<?xml version="1.0" encoding="UTF-8" standalone="no"?>
<!-- Created with Inkscape (http://www.inkscape.org/) -->

<svg
   xmlns:dc="http://purl.org/dc/elements/1.1/"
   xmlns:cc="http://creativecommons.org/ns#"
   xmlns:rdf="http://www.w3.org/1999/02/22-rdf-syntax-ns#"
   xmlns:svg="http://www.w3.org/2000/svg"
   xmlns="http://www.w3.org/2000/svg"
   xmlns:sodipodi="http://sodipodi.sourceforge.net/DTD/sodipodi-0.dtd"
   xmlns:inkscape="http://www.inkscape.org/namespaces/inkscape"
   version="1.1"
   id="svg2"
   width="26.458334mm"
   height="26.458334mm"
   viewBox="0 0 100 100"
   sodipodi:docname="favicon.svg"
   inkscape:version="0.92.5 (2060ec1f9f, 2020-04-08)"
   inkscape:export-filename="/home/david/Documentos/Trabajos/Clientes/Pedro Sarmiento/transport-consolidated/multimedia/favicon/favicon.png"
   inkscape:export-xdpi="245.75999"
   inkscape:export-ydpi="245.75999">
  <metadata
     id="metadata8">
    <rdf:RDF>
      <cc:Work
         rdf:about="">
        <dc:format>image/svg+xml</dc:format>
        <dc:type
           rdf:resource="http://purl.org/dc/dcmitype/StillImage" />
        <dc:title></dc:title>
      </cc:Work>
    </rdf:RDF>
  </metadata>
  <defs
     id="defs6" />
  <sodipodi:namedview
     pagecolor="#ffffff"
     bordercolor="#666666"
     borderopacity="1"
     objecttolerance="10"
     gridtolerance="10"
     guidetolerance="10"
     inkscape:pageopacity="0"
     inkscape:pageshadow="2"
     inkscape:window-width="1440"
     inkscape:window-height="784"
     id="namedview4"
     showgrid="false"
     inkscape:zoom="4"
     inkscape:cx="47.273686"
     inkscape:cy="36.385481"
     inkscape:window-x="0"
     inkscape:window-y="27"
     inkscape:window-maximized="1"
     inkscape:current-layer="svg2"
     showguides="true"
     inkscape:guide-bbox="true"
     fit-margin-top="0"
     fit-margin-left="0"
     fit-margin-right="0"
     fit-margin-bottom="0"
     units="mm" />
  <g
     id="g25"
     transform="translate(-391.15234,-367.19632)">
    <rect
       y="367.19632"
       x="391.15234"
       height="100"
       width="100"
       id="rect17"
       style="opacity:1;fill:none;fill-opacity:1;fill-rule:nonzero;stroke:none;stroke-width:61.66628647;stroke-linecap:round;stroke-linejoin:round;stroke-miterlimit:4;stroke-dasharray:none;stroke-opacity:1" />
    <g
       transform="matrix(0.11687218,0,0,0.11687218,470.28658,348.88904)"
       id="g144">
      <path
         inkscape:connector-curvature="0"
         id="path44"
         transform="matrix(8.4707931,0,0,8.4707931,-3986.1932,-2949.5223)"
         d="m 391.23438,394.85352 c 2.29557,6.82415 6.93961,10.19311 10.67968,11.7832 0,0 -3.30867,0.2719 -6.36328,-0.31836 0.14757,0.76734 1.80859,2.08203 1.8086,2.08203 h 87.74804 c 0.75259,-0.43532 1.52861,-1.53645 1.71289,-2.08203 0,0 -2.3947,0.69863 -6.10937,0.28125 2.18709,-1.01847 4.07351,-2.26528 5.72851,-4 2.27194,-2.38137 4.01156,-5.42754 4.63282,-7.74609 -3.00288,1.37888 -10.04326,3.72501 -16.23243,4.87109 -5.15333,0.95427 -9.407,1.44141 -12.00586,1.44141 h -44.15625 c -10.76838,-0.62607 -22.05917,-4.01692 -27.44335,-6.3125 z m 78.50585,6.29687 0.32227,1.05664 1.10352,0.0234 -0.9043,0.63281 0.31836,1.05664 -0.88086,-0.66406 -0.90625,0.62891 0.35937,-1.04297 -0.8789,-0.66797 1.10351,0.0195 z m -4.72461,1.49219 0.32227,1.05664 1.10352,0.0234 -0.9043,0.63281 0.31836,1.05664 -0.88086,-0.66406 -0.90625,0.6289 0.35937,-1.04297 -0.8789,-0.66796 1.10351,0.0195 z m 9.26954,0.0137 0.32226,1.05469 1.10352,0.0234 -0.9043,0.63476 0.31836,1.05664 -0.88086,-0.66601 -0.90625,0.63085 0.35938,-1.04296 -0.87891,-0.66797 1.10352,0.0195 z m -13.62305,2.3125 0.32422,1.05469 1.10351,0.0234 -0.90429,0.63281 0.31836,1.05664 -0.88282,-0.66406 -0.90625,0.63085 0.35938,-1.04492 -0.87891,-0.66797 1.10352,0.0195 z m 17.79101,0.0195 0.32227,1.05469 1.10352,0.0234 -0.9043,0.63281 0.31836,1.05664 -0.88086,-0.66406 -0.9082,0.63086 0.36132,-1.04493 -0.88085,-0.66796 1.10546,0.0195 z m 3.86329,5.05274 -4.41797,0.004 -0.69727,0.48828 0.31836,1.05664 -0.88086,-0.66406 -0.9082,0.63086 0.35937,-1.04492 -0.61132,-0.46484 -22.86329,0.0195 5.31641,13.86328 c -0.003,0.75265 -0.41833,1.13257 -1.0293,1.33593 h -12.7207 l 4.63867,7.14258 h 17.94531 c 1.20901,0 2.89454,-0.69911 2.89454,-2.1875 0,-2.01213 -2.5987,-7.29538 -3.58399,-10.44922 -0.0446,-0.1428 -0.13054,-0.37611 0,-0.44921 1.27114,-0.71182 4.84961,-1.41993 4.84961,-1.41993 2.21211,0.45912 5.22691,-0.20224 6.16602,-1.09961 -0.51129,-0.073 -2.96287,-0.77782 -3.35938,-1.25781 3.00255,0.0522 6.46112,0.21588 8.45313,-3.23437 0,0 -3.90668,0.52737 -5.17969,0.13086 1.04345,-0.2713 4.72621,-1.89954 5.31055,-2.40039 z m -44.02539,0.0215 0.77539,2.12695 h 9.76757 l -0.77343,-2.12695 z m -6.63868,0.0195 -31.46093,0.0274 c 1.68225,1.12517 4.12003,1.97982 5.06445,2.33398 0,0 -2.26439,0.31336 -5.09766,-0.0703 2.48244,4.04375 6.50473,2.94426 8.41602,3.1289 -0.0313,0.18782 -2.45492,1.0777 -3.31055,1.32813 2.56688,1.83647 6.11133,1.07812 6.11133,1.07812 1.47006,0.25504 3.05312,0.57444 4.27344,0.92774 1.41765,0.41042 2.11033,0.87994 2.58203,0.77148 l -4.82227,12.80078 h 9.7168 z m 41.69727,2.35938 0.32227,1.05664 1.10351,0.0234 -0.9043,0.63282 0.32032,1.05664 -0.88282,-0.66406 -0.90625,0.6289 0.35938,-1.04297 -0.87891,-0.66797 1.10352,0.0195 z m -4.11133,2.5 0.32227,1.05664 1.10351,0.0234 -0.90429,0.63282 0.32031,1.05664 -0.88281,-0.66406 -0.90625,0.6289 0.35937,-1.04297 -0.87891,-0.66797 1.10352,0.0195 z m -29.66601,19.11914 c -0.29891,0 -0.5437,0.0645 -0.73438,0.19336 -0.18552,0.12883 -0.33318,0.33108 -0.44141,0.60937 l -0.16992,0.44141 h 4.21289 l 0.16993,-0.44141 c 0.10821,-0.27829 0.11885,-0.48054 0.0312,-0.60937 -0.0824,-0.12884 -0.27336,-0.19336 -0.57226,-0.19336 z m 4.67578,0 c -0.2989,0 -0.5437,0.0645 -0.73438,0.19336 -0.18552,0.12883 -0.33123,0.33108 -0.43945,0.60937 l -0.16992,0.44141 h 4.34375 l 0.16992,-0.44141 c 0.10822,-0.27829 0.11886,-0.48054 0.0312,-0.60937 -0.0825,-0.12884 -0.27337,-0.19336 -0.57227,-0.19336 z m 3.94336,0 -0.48047,1.24414 h 2.0957 l -0.38672,-1.24414 z m 2.64257,0 -0.47851,1.24414 h 1.70117 l 0.47852,-1.24414 z m 3.07813,0 c -0.2989,0 -0.5437,0.0645 -0.73438,0.19336 -0.18552,0.12883 -0.33318,0.33108 -0.4414,0.60937 l -0.16992,0.44141 h 4.21289 l 0.16992,-0.44141 c 0.10822,-0.27829 0.11886,-0.48054 0.0312,-0.60937 -0.0825,-0.12884 -0.27337,-0.19336 -0.57227,-0.19336 z m 4.67578,0 c -0.2989,0 -0.5437,0.0645 -0.73437,0.19336 -0.18553,0.12883 -0.33123,0.33108 -0.43946,0.60937 l -0.16992,0.44141 h 4.34375 l 0.16992,-0.44141 c 0.10823,-0.27829 0.11886,-0.48054 0.0312,-0.60937 -0.0824,-0.12884 -0.27336,-0.19336 -0.57226,-0.19336 z m 3.94336,0 -0.48047,1.24414 h 1.70117 l 0.47852,-1.24414 z m 3.88672,0 -0.47852,1.24414 h 1.70117 l 0.47852,-1.24414 z m 2.36719,0 -0.78907,1.24414 h 4.6543 l 0.16992,-0.44141 c 0.10823,-0.27829 0.11691,-0.48054 0.0293,-0.60937 -0.0825,-0.12884 -0.27141,-0.19336 -0.57031,-0.19336 z m 5.96679,0 -0.77343,1.24414 h 3.00781 l 0.13867,-1.24414 z m 3.58789,0 -0.8125,1.24414 h 3.9043 l 0.80274,-1.24414 z m 4.24219,0 -0.47851,1.24414 h 3.57226 l 0.80274,-1.24414 z m 4.44531,0 -0.78906,1.24414 h 4.6543 l 0.16992,-0.44141 c 0.10822,-0.27829 0.11886,-0.48054 0.0312,-0.60937 -0.0825,-0.12884 -0.27336,-0.19336 -0.57227,-0.19336 z m -94.70703,0.0137 -0.8125,1.24414 h 3.9043 l 0.80469,-1.24414 z m 4.40625,0 -0.78906,1.24414 h 4.63867 l 0.16992,-0.44141 c 0.10823,-0.27828 0.11886,-0.48054 0.0312,-0.60937 -0.0824,-0.12884 -0.27336,-0.19336 -0.57226,-0.19336 z m 5.95117,0 -0.77343,1.24414 h 3.00781 l 0.13867,-1.24414 z m 4.21289,0 -0.47851,1.24414 h 2.0957 l -0.38672,-1.24414 z m 2.64454,0 -0.47852,1.24414 h 1.69922 l 0.48047,-1.24414 z m 3.07617,0 c -0.2989,0 -0.5437,0.0645 -0.73438,0.19336 -0.18552,0.12883 -0.33123,0.33109 -0.43945,0.60937 l -0.17188,0.44141 h 4.2129 l 0.17187,-0.44141 c 0.10822,-0.27828 0.11691,-0.48054 0.0293,-0.60937 -0.0825,-0.12884 -0.27142,-0.19336 -0.57031,-0.19336 z m 4.01172,0 -0.78711,1.24414 h 4.63672 l 0.16992,-0.44141 c 0.10822,-0.27828 0.11886,-0.48054 0.0312,-0.60937 -0.0825,-0.12884 -0.27337,-0.19336 -0.57227,-0.19336 z m 5.6582,0 c -0.2989,0 -0.54371,0.0645 -0.73437,0.19336 -0.18553,0.12883 -0.33124,0.33109 -0.43946,0.60937 l -0.16992,0.44141 h 4.34375 l 0.16992,-0.44141 c 0.10822,-0.27828 0.11886,-0.48054 0.0312,-0.60937 -0.0824,-0.12884 -0.27336,-0.19336 -0.57226,-0.19336 z m 4.14453,0 -0.78906,1.24414 h 4.63867 l 0.16992,-0.44141 c 0.10823,-0.27828 0.11886,-0.48054 0.0312,-0.60937 -0.0824,-0.12884 -0.27336,-0.19336 -0.57226,-0.19336 z m 5.01563,0 -0.81055,1.24414 h 3.9043 l 0.80273,-1.24414 z m 6.66992,1.53125 -1.19141,3.11523 c -0.10822,0.27829 -0.11886,0.48249 -0.0312,0.61133 0.0928,0.12884 0.28899,0.19336 0.58789,0.19336 h 3.03906 l 0.78711,-1.24414 h -2.15625 c -0.12883,0 -0.21002,-0.0292 -0.24609,-0.0859 -0.0309,-0.0567 -0.0169,-0.16446 0.0449,-0.32422 l 0.82813,-2.15625 c 0.0103,-0.0206 0.0183,-0.0392 0.0234,-0.0547 0.005,-0.0155 0.0112,-0.0341 0.0215,-0.0547 z m 2.51172,0 c -0.005,0.0155 -0.0105,0.0341 -0.0156,0.0547 l -0.0156,0.0469 -0.0996,0.26172 h 1.70117 l 0.13086,-0.36328 z m 2.16406,0 -1.18945,3.11523 c -0.10823,0.27829 -0.11886,0.48249 -0.0312,0.61133 0.0928,0.12884 0.28899,0.19336 0.58789,0.19336 h 2.62695 c 0.2989,0 0.54033,-0.0645 0.7207,-0.19336 0.18553,-0.12884 0.33123,-0.33304 0.43946,-0.61133 l 1.1914,-3.11523 h -1.70117 c -0.005,0.0206 -0.0105,0.0392 -0.0156,0.0547 -0.005,0.0155 -0.0131,0.0341 -0.0234,0.0547 l -0.82617,2.15625 c -0.0618,0.15976 -0.13169,0.26753 -0.20899,0.32422 -0.0721,0.0567 -0.1739,0.0859 -0.30273,0.0859 h -0.23047 c -0.12884,0 -0.21197,-0.0292 -0.24805,-0.0859 -0.0309,-0.0567 -0.015,-0.16446 0.0469,-0.32422 l 0.82617,-2.15625 c 0.0103,-0.0206 0.0183,-0.0392 0.0234,-0.0547 0.005,-0.0155 0.0131,-0.0341 0.0234,-0.0547 z m 4.80859,0 -1.5,3.91992 h 1.70118 l 0.78124,-2.04101 0.63282,2.04101 h 1.23047 l 1.49804,-3.91992 h -1.69922 l -0.18554,0.49609 -0.1543,-0.49609 z m 4.85547,0 -0.3789,0.99805 c -0.10823,0.27828 -0.11886,0.48249 -0.0312,0.61132 0.0928,0.12884 0.28898,0.19336 0.58789,0.19336 h 1.39843 c 0.0876,0.0155 0.13618,0.0534 0.14649,0.11524 0.0103,0.0618 -0.009,0.15898 -0.0606,0.29297 l -0.0234,0.0547 c -0.0618,0.15976 -0.13168,0.26753 -0.20898,0.32422 -0.0721,0.0567 -0.1739,0.0859 -0.30274,0.0859 h -2.19531 l -0.16992,1.24414 h 3.07813 c 0.2989,0 0.54103,-0.0645 0.72656,-0.19336 0.19068,-0.12884 0.33904,-0.33304 0.44726,-0.61133 l 0.67383,-1.7539 c 0.10822,-0.27829 0.11425,-0.48249 0.0215,-0.61133 -0.0876,-0.12884 -0.27923,-0.19336 -0.57813,-0.19336 h -1.2832 c -0.12884,0 -0.21197,-0.0246 -0.24805,-0.0762 -0.0309,-0.0515 -0.015,-0.15665 0.0469,-0.31641 l 0.0156,-0.0547 c 0.0103,-0.0206 0.0163,-0.0392 0.0215,-0.0547 0.005,-0.0155 0.0131,-0.0341 0.0234,-0.0547 z m 2.51172,0 -0.0234,0.0703 c -0.005,0.0258 -0.0131,0.047 -0.0234,0.0625 h 1.70117 l 0.0547,-0.13281 z m 2.16406,0 -1.18945,3.11523 c -0.10822,0.27829 -0.11886,0.48249 -0.0312,0.61133 0.0928,0.12884 0.28899,0.19336 0.58789,0.19336 h 2.62695 c 0.29891,0 0.53838,-0.0645 0.71875,-0.19336 0.18553,-0.12884 0.33319,-0.33304 0.44141,-0.61133 l 1.18945,-3.11523 h -1.69922 c -0.005,0.0206 -0.0105,0.0392 -0.0156,0.0547 -0.005,0.0155 -0.0131,0.0341 -0.0234,0.0547 l -0.82812,2.15625 c -0.0618,0.15976 -0.12973,0.26753 -0.20703,0.32422 -0.0722,0.0567 -0.1739,0.0859 -0.30274,0.0859 h -0.23047 c -0.12883,0 -0.21197,-0.0292 -0.24804,-0.0859 -0.0309,-0.0567 -0.015,-0.16446 0.0469,-0.32422 l 0.82617,-2.15625 c 0.0103,-0.0206 0.0183,-0.0392 0.0234,-0.0547 0.005,-0.0155 0.0131,-0.0341 0.0234,-0.0547 z m 4.8086,0 -1.5,3.91992 h 3.22461 l 0.79492,-1.24414 h -1.83985 l 1.02149,-2.67578 z m 3.88867,0 -1.5,3.91992 h 1.70117 l 1.49805,-3.91992 z m 2.38867,0 -1.50781,3.91992 h 3.47851 c 0.29891,0 0.53838,-0.0645 0.71875,-0.19336 0.18553,-0.12884 0.33319,-0.33304 0.44141,-0.61133 l 1.18945,-3.11523 h -1.70117 c -0.005,0.0206 -0.009,0.0392 -0.0137,0.0547 -0.005,0.0155 -0.0131,0.0341 -0.0234,0.0547 l -0.82812,2.15625 c -0.0618,0.15976 -0.13169,0.26753 -0.20899,0.32422 -0.0722,0.0567 -0.17194,0.0859 -0.30078,0.0859 h -0.57226 l 1.02734,-2.67578 z m 5.58008,0 -2.41211,3.91992 h 2.54492 l 0.80274,-1.24414 h -0.92774 l 1.50781,-2.45898 -0.45507,3.70312 h 1.66796 l 0.4336,-3.91992 z m 4.88672,0 -1.50781,3.91992 h 1.70117 l 1.50586,-3.91992 z m 3.30859,0 -1.5,3.91992 h 3.5625 l 0.80469,-1.24414 h -2.1875 L 483,437.41602 h 1.51562 l 0.79688,-1.23047 h -1.83984 l 0.22265,-0.58008 z m 4.4668,0 -1.50781,3.91992 h 3.48046 c 0.29891,0 0.53838,-0.0645 0.71875,-0.19336 0.18553,-0.12884 0.33123,-0.33304 0.43946,-0.61133 l 1.1914,-3.11523 h -1.70117 c -0.005,0.0206 -0.0105,0.0392 -0.0156,0.0547 -0.005,0.0155 -0.0131,0.0341 -0.0234,0.0547 l -0.82617,2.15625 c -0.0618,0.15976 -0.13168,0.26753 -0.20899,0.32422 -0.0722,0.0567 -0.17389,0.0859 -0.30273,0.0859 h -0.57031 l 1.02734,-2.67578 z m -93.79492,0.0137 -1.50782,3.91992 h 1.70118 l 1.50781,-3.91992 z m 3.49414,0 -1.50782,3.91992 h 1.70118 l 0.71093,-1.84765 0.26953,1.84765 h 1.70899 l -0.20899,-1.83203 c 0.29891,0 0.53838,-0.0672 0.71876,-0.20117 0.18036,-0.13399 0.32271,-0.33554 0.42578,-0.60352 l 0.48632,-1.2832 h -1.69921 c -0.005,0.0206 -0.0105,0.0392 -0.0156,0.0547 -0.005,0.0155 -0.0131,0.0341 -0.0234,0.0547 l -0.12304,0.32421 c -0.0618,0.15976 -0.13169,0.26753 -0.20899,0.32422 -0.0721,0.0567 -0.1739,0.0859 -0.30273,0.0859 h -0.55664 l 0.32617,-0.84375 z m 5.56445,0 -2.41016,3.91992 h 2.54297 l 0.80274,-1.24414 h -0.92774 l 1.50782,-2.45898 -0.45508,3.70312 h 1.66992 l 0.43164,-3.91992 z m 4.57813,0 -1.5,3.91992 h 1.69921 l 0.78125,-2.04101 0.63477,2.04101 h 1.22851 l 1.5,-3.91992 h -1.70117 l -0.18554,0.49414 -0.1543,-0.49414 z m 4.85351,0 -0.37891,0.99805 c -0.10822,0.27829 -0.11885,0.48054 -0.0312,0.60937 0.0928,0.12884 0.289,0.19336 0.58789,0.19336 h 1.39844 c 0.0876,0.0155 0.13813,0.0554 0.14844,0.11719 0.0103,0.0618 -0.011,0.15898 -0.0625,0.29297 l -0.0234,0.0547 c -0.0618,0.15975 -0.13168,0.26753 -0.20898,0.32421 -0.0722,0.0567 -0.17195,0.0859 -0.30078,0.0859 h -2.19532 l -0.16992,1.24414 h 3.07617 c 0.29891,0 0.54104,-0.0645 0.72657,-0.19336 0.19068,-0.12883 0.34099,-0.33305 0.44922,-0.61132 l 0.67187,-1.75391 c 0.10822,-0.27829 0.1162,-0.48249 0.0234,-0.61133 -0.0876,-0.12884 -0.28118,-0.19336 -0.58008,-0.19336 h -1.2832 c -0.12884,0 -0.21198,-0.0246 -0.24805,-0.0762 -0.0309,-0.0515 -0.015,-0.1586 0.0469,-0.31836 l 0.0156,-0.0527 c 0.0103,-0.0206 0.0183,-0.0392 0.0234,-0.0547 0.005,-0.0155 0.0131,-0.0341 0.0234,-0.0547 z m 2.51172,0 -0.0215,0.0703 c -0.005,0.0258 -0.0131,0.0451 -0.0234,0.0605 h 1.69922 l 0.0547,-0.13086 z m 2.38867,0 -1.50586,3.91992 h 1.69922 l 0.70313,-1.83203 h 1.76367 c 0.2989,0 0.53838,-0.0645 0.71875,-0.19336 0.18552,-0.12883 0.33318,-0.33304 0.4414,-0.61133 l 0.48633,-1.2832 h -1.70117 c -0.005,0.0206 -0.0105,0.0392 -0.0156,0.0547 -0.005,0.0155 -0.0131,0.0341 -0.0234,0.0547 l -0.12305,0.32421 c -0.0618,0.15976 -0.13168,0.26753 -0.20898,0.32422 -0.0722,0.0567 -0.17196,0.0859 -0.30078,0.0859 h -0.55665 l 0.32422,-0.84375 z m 4.76953,0 -1.18945,3.11524 c -0.10822,0.27827 -0.11886,0.48249 -0.0312,0.61132 0.0928,0.12884 0.28899,0.19336 0.58789,0.19336 h 2.62891 c 0.2989,0 0.53837,-0.0645 0.71875,-0.19336 0.18552,-0.12883 0.33123,-0.33305 0.43945,-0.61132 l 1.19141,-3.11524 h -1.70118 c -0.005,0.0206 -0.0105,0.0392 -0.0156,0.0547 -0.005,0.0155 -0.0131,0.0341 -0.0234,0.0547 l -0.82617,2.15625 c -0.0618,0.15975 -0.13168,0.26753 -0.20899,0.32421 -0.0721,0.0567 -0.17389,0.0859 -0.30273,0.0859 h -0.23047 c -0.12883,0 -0.21198,-0.0292 -0.24804,-0.0859 -0.0309,-0.0567 -0.015,-0.16446 0.0469,-0.32421 l 0.82617,-2.15625 c 0.0103,-0.0206 0.0183,-0.0392 0.0234,-0.0547 0.005,-0.0155 0.0131,-0.0341 0.0234,-0.0547 z m 5.03321,0 -1.50782,3.91992 h 1.70118 l 0.71093,-1.84765 0.27149,1.84765 h 1.70703 l -0.20899,-1.83203 c 0.29891,0 0.53838,-0.0672 0.71875,-0.20117 0.18038,-0.13399 0.32272,-0.33554 0.42579,-0.60352 l 0.48632,-1.2832 h -1.69922 c -0.005,0.0206 -0.0105,0.0392 -0.0156,0.0547 -0.005,0.0155 -0.0131,0.0341 -0.0234,0.0547 l -0.12304,0.32421 c -0.0618,0.15976 -0.13169,0.26753 -0.20899,0.32422 -0.0722,0.0567 -0.1739,0.0859 -0.30273,0.0859 h -0.55664 l 0.32617,-0.84375 z m 5.92968,0 -1.50781,3.91992 h 1.70117 l 1.50586,-3.91992 z"
         style="fill:#4d4d4d;fill-opacity:1;stroke:none;stroke-width:0.1180527px;stroke-linecap:butt;stroke-linejoin:miter;stroke-opacity:1" />
    </g>
  </g>
</svg>
