<?xml version="1.0" encoding="UTF-8" standalone="no"?>
<svg
   xmlns:dc="http://purl.org/dc/elements/1.1/"
   xmlns:cc="http://creativecommons.org/ns#"
   xmlns:rdf="http://www.w3.org/1999/02/22-rdf-syntax-ns#"
   xmlns:svg="http://www.w3.org/2000/svg"
   xmlns="http://www.w3.org/2000/svg"
   viewBox="0 0 275.42773 316.08593"
   xml:space="preserve"
   id="insurance"
   version="1.1"><metadata
     id="metadata8"><rdf:RDF><cc:Work
         rdf:about=""><dc:format>image/svg+xml</dc:format><dc:type
           rdf:resource="http://purl.org/dc/dcmitype/StillImage" /><dc:title></dc:title></cc:Work></rdf:RDF></metadata><defs
     id="defs6"><clipPath
       id="clipPath18"
       clipPathUnits="userSpaceOnUse"><path
         style="clip-rule:evenodd"
         id="path16"
         d="M 9.12e-6,0 H 612.00001 V 792 H 9.12e-6 Z" /></clipPath><clipPath
       id="clipPath26"
       clipPathUnits="userSpaceOnUse"><path
         style="clip-rule:evenodd"
         id="path24"
         d="M 9.12e-6,0 H 612.00001 V 792 H 9.12e-6 Z" /></clipPath><clipPath
       id="clipPath34"
       clipPathUnits="userSpaceOnUse"><path
         style="clip-rule:evenodd"
         id="path32"
         d="M 9.12e-6,0 H 612.00001 V 792 H 9.12e-6 Z" /></clipPath><clipPath
       id="clipPath42"
       clipPathUnits="userSpaceOnUse"><path
         style="clip-rule:evenodd"
         id="path40"
         d="M 114.38,507.55 H 497.73 V 631.77 H 114.38 Z" /></clipPath><clipPath
       id="clipPath50"
       clipPathUnits="userSpaceOnUse"><path
         style="clip-rule:evenodd"
         id="path48"
         d="M 114.38,507.55 H 497.73 V 631.77 H 114.38 Z" /></clipPath><clipPath
       id="clipPath62"
       clipPathUnits="userSpaceOnUse"><path
         style="clip-rule:evenodd"
         id="path60"
         d="M 114.38,507.55 H 497.73 V 631.77 H 114.38 Z" /></clipPath><clipPath
       id="clipPath70"
       clipPathUnits="userSpaceOnUse"><path
         style="clip-rule:evenodd"
         id="path68"
         d="M 114.38,507.55 H 497.73 V 631.77 H 114.38 Z" /></clipPath><clipPath
       id="clipPath82"
       clipPathUnits="userSpaceOnUse"><path
         style="clip-rule:evenodd"
         id="path80"
         d="M 114.38,507.55 H 497.73 V 631.77 H 114.38 Z" /></clipPath><clipPath
       id="clipPath90"
       clipPathUnits="userSpaceOnUse"><path
         style="clip-rule:evenodd"
         id="path88"
         d="M 114.38,507.55 H 497.73 V 631.77 H 114.38 Z" /></clipPath><clipPath
       id="clipPath98"
       clipPathUnits="userSpaceOnUse"><path
         style="clip-rule:evenodd"
         id="path96"
         d="M 9.12e-6,0 H 612.00001 V 792 H 9.12e-6 Z" /></clipPath><clipPath
       id="clipPath106"
       clipPathUnits="userSpaceOnUse"><path
         style="clip-rule:evenodd"
         id="path104"
         d="M 9.12e-6,0 H 612.00001 V 792 H 9.12e-6 Z" /></clipPath><clipPath
       id="clipPath114"
       clipPathUnits="userSpaceOnUse"><path
         style="clip-rule:evenodd"
         id="path112"
         d="M 9.12e-6,0 H 612.00001 V 792 H 9.12e-6 Z" /></clipPath><clipPath
       id="clipPath122"
       clipPathUnits="userSpaceOnUse"><path
         style="clip-rule:evenodd"
         id="path120"
         d="M 9.12e-6,0 H 612.00001 V 792 H 9.12e-6 Z" /></clipPath><clipPath
       id="clipPath130"
       clipPathUnits="userSpaceOnUse"><path
         style="clip-rule:evenodd"
         id="path128"
         d="M 9.12e-6,0 H 612.00001 V 792 H 9.12e-6 Z" /></clipPath><clipPath
       id="clipPath138"
       clipPathUnits="userSpaceOnUse"><path
         style="clip-rule:evenodd"
         id="path136"
         d="M 9.12e-6,0 H 612.00001 V 792 H 9.12e-6 Z" /></clipPath><clipPath
       id="clipPath146"
       clipPathUnits="userSpaceOnUse"><path
         style="clip-rule:evenodd"
         id="path144"
         d="M 9.12e-6,0 H 612.00001 V 792 H 9.12e-6 Z" /></clipPath><clipPath
       id="clipPath154"
       clipPathUnits="userSpaceOnUse"><path
         style="clip-rule:evenodd"
         id="path152"
         d="M 9.12e-6,0 H 612.00001 V 792 H 9.12e-6 Z" /></clipPath><clipPath
       id="clipPath162"
       clipPathUnits="userSpaceOnUse"><path
         style="clip-rule:evenodd"
         id="path160"
         d="M 9.12e-6,0 H 612.00001 V 792 H 9.12e-6 Z" /></clipPath><clipPath
       id="clipPath170"
       clipPathUnits="userSpaceOnUse"><path
         style="clip-rule:evenodd"
         id="path168"
         d="M 9.12e-6,0 H 612.00001 V 792 H 9.12e-6 Z" /></clipPath><clipPath
       id="clipPath182"
       clipPathUnits="userSpaceOnUse"><path
         style="clip-rule:evenodd"
         id="path180"
         d="M 9.12e-6,0 H 612.00001 V 792 H 9.12e-6 Z" /></clipPath><clipPath
       id="clipPath194"
       clipPathUnits="userSpaceOnUse"><path
         style="clip-rule:evenodd"
         id="path192"
         d="M 9.12e-6,0 H 612.00001 V 792 H 9.12e-6 Z" /></clipPath><clipPath
       id="clipPath206"
       clipPathUnits="userSpaceOnUse"><path
         style="clip-rule:evenodd"
         id="path204"
         d="M 9.12e-6,0 H 612.00001 V 792 H 9.12e-6 Z" /></clipPath><clipPath
       id="clipPath218"
       clipPathUnits="userSpaceOnUse"><path
         style="clip-rule:evenodd"
         id="path216"
         d="M 9.12e-6,0 H 612.00001 V 792 H 9.12e-6 Z" /></clipPath><clipPath
       id="clipPath230"
       clipPathUnits="userSpaceOnUse"><path
         style="clip-rule:evenodd"
         id="path228"
         d="M 9.12e-6,0 H 612.00001 V 792 H 9.12e-6 Z" /></clipPath><clipPath
       id="clipPath242"
       clipPathUnits="userSpaceOnUse"><path
         style="clip-rule:evenodd"
         id="path240"
         d="M 9.12e-6,0 H 612.00001 V 792 H 9.12e-6 Z" /></clipPath><clipPath
       id="clipPath254"
       clipPathUnits="userSpaceOnUse"><path
         style="clip-rule:evenodd"
         id="path252"
         d="M 9.12e-6,0 H 612.00001 V 792 H 9.12e-6 Z" /></clipPath><clipPath
       id="clipPath262"
       clipPathUnits="userSpaceOnUse"><path
         style="clip-rule:evenodd"
         id="path260"
         d="M 9.12e-6,0 H 612.00001 V 792 H 9.12e-6 Z" /></clipPath><clipPath
       id="clipPath274"
       clipPathUnits="userSpaceOnUse"><path
         style="clip-rule:evenodd"
         id="path272"
         d="M 9.12e-6,0 H 612.00001 V 792 H 9.12e-6 Z" /></clipPath><clipPath
       id="clipPath282"
       clipPathUnits="userSpaceOnUse"><path
         style="clip-rule:evenodd"
         id="path280"
         d="M 9.12e-6,0 H 612.00001 V 792 H 9.12e-6 Z" /></clipPath><clipPath
       id="clipPath290"
       clipPathUnits="userSpaceOnUse"><path
         style="clip-rule:evenodd"
         id="path288"
         d="M 9.12e-6,234.36 H 612.00001 V 493.8 H 9.12e-6 Z" /></clipPath><clipPath
       id="clipPath1174"
       clipPathUnits="userSpaceOnUse"><rect
         transform="scale(1,-1)"
         y="-520.16949"
         x="115.77966"
         height="330.55933"
         width="407.74576"
         id="rect1176"
         style="opacity:1;fill:#999999;fill-opacity:1;fill-rule:nonzero;stroke:none;stroke-width:2.83464575;stroke-linecap:round;stroke-linejoin:round;stroke-miterlimit:4;stroke-dasharray:none;stroke-opacity:1" /></clipPath></defs><g
     transform="matrix(1.3333333,0,0,-1.3333333,-268.19951,645.59766)"
     id="g10"><g
       id="g12"><g
         clip-path="url(#clipPath18)"
         id="g14" /></g><g
       id="g20"><g
         clip-path="url(#clipPath26)"
         id="g22" /></g><g
       id="g28"><g
         clip-path="url(#clipPath34)"
         id="g30" /></g><g
       id="g92"><g
         clip-path="url(#clipPath98)"
         id="g94" /></g><g
       id="g100"><g
         clip-path="url(#clipPath106)"
         id="g102" /></g><g
       id="g108"><g
         clip-path="url(#clipPath114)"
         id="g110" /></g><g
       id="g116"><g
         clip-path="url(#clipPath122)"
         id="g118" /></g><g
       id="g124"><g
         clip-path="url(#clipPath130)"
         id="g126" /></g><g
       id="g132"><g
         clip-path="url(#clipPath138)"
         id="g134" /></g><g
       id="g140"><g
         clip-path="url(#clipPath146)"
         id="g142" /></g><g
       id="g148"><g
         clip-path="url(#clipPath154)"
         id="g150" /></g><g
       id="g156"><g
         clip-path="url(#clipPath162)"
         id="g158" /></g><g
       id="g248"><g
         clip-path="url(#clipPath254)"
         id="g250" /></g><g
       id="g268"><g
         clip-path="url(#clipPath274)"
         id="g270" /></g><g
       id="g276"><g
         clip-path="url(#clipPath282)"
         id="g278" /></g><path
       clip-path="url(#clipPath1174)"
       id="path300"
       style="fill:#ff0000;fill-opacity:1;fill-rule:evenodd;stroke:none"
       d="m 27,765 h 558.1 v 3 H 27 Z" /><path
       id="path1145"
       d="M 268.17357,484.19826 201.14964,353.21193 h 24.59326 l 67.02686,130.98633 z m 46.75928,0 V 353.21193 h 24.11572 v 26.91357 h 30.81152 l 13.57764,-26.91357 h 24.28272 l -66.08204,130.98633 z m -20.74659,-42.99903 -21.15967,-41.9414 h 21.15967 z m 44.86231,0 21.15967,-41.9414 H 339.04857 Z M 263.37474,380.1255 249.7971,353.21193 h 44.38916 v 26.91357 z m -61.83692,-45.20947 v -2.20605 h 205.97169 v 2.20605 z m 50.18701,-11.73633 c -1.96289,0 -3.58398,-0.54687 -4.86328,-1.64062 -1.26953,-1.08399 -1.90429,-2.52442 -1.90429,-4.32129 0,-1.48438 0.46875,-2.77344 1.40625,-3.86719 0.9375,-1.08398 2.47558,-2.03125 4.61425,-2.8418 1.17188,-0.47851 1.97754,-0.94238 2.417,-1.3916 0.44921,-0.43945 0.67382,-1.09375 0.67382,-1.96289 0,-1.5918 -0.75195,-2.38769 -2.25586,-2.38769 -1.08398,0 -1.86523,0.27831 -2.34375,0.83496 -0.47851,0.55663 -0.71777,1.45019 -0.71777,2.68066 h -4.32129 c 0,-1.43555 0.31738,-2.68066 0.95215,-3.73535 0.64453,-1.05469 1.5332,-1.86524 2.66602,-2.43164 1.13281,-0.56641 2.38769,-0.84961 3.76464,-0.84961 2.03125,0 3.6377,0.52246 4.81934,1.56738 1.18164,1.04492 1.77246,2.49511 1.77246,4.35058 0,1.68946 -0.47363,3.08106 -1.4209,4.17481 -0.9375,1.09375 -2.44629,2.01658 -4.52636,2.76856 -1.19141,0.50781 -2.02149,0.99609 -2.49024,1.46484 -0.46875,0.47851 -0.70312,1.01074 -0.70312,1.59668 0,0.75195 0.20996,1.34765 0.62988,1.78711 0.41992,0.44922 1.00586,0.67383 1.75781,0.67383 0.80078,0 1.41113,-0.26368 1.83106,-0.79102 0.42968,-0.51758 0.64453,-1.27439 0.64453,-2.27051 h 4.29199 c 0,1.27932 -0.27832,2.42188 -0.83496,3.42774 -0.54688,1.00586 -1.33301,1.78223 -2.3584,2.3291 -1.02539,0.55664 -2.19238,0.83496 -3.50098,0.83496 z m 125.55323,0 c -2.36328,0 -4.20899,-0.7959 -5.53711,-2.3877 -1.32812,-1.58203 -1.99219,-3.83788 -1.99219,-6.76757 v -3.58887 c 0,-2.93945 0.63966,-5.20508 1.91895,-6.79688 1.28906,-1.58202 3.13965,-2.37304 5.55176,-2.37304 2.29492,0 4.07227,0.625 5.33203,1.875 1.25976,1.24999 1.94336,3.09082 2.05078,5.52246 h -4.30664 c -0.0586,-1.44531 -0.30274,-2.44629 -0.73242,-3.00293 -0.42969,-0.54687 -1.21094,-0.82032 -2.34375,-0.82032 -1.15235,0 -1.96778,0.39552 -2.44629,1.18653 -0.46875,0.79101 -0.70313,2.2461 -0.70313,4.36524 v 4.02831 c 0.0293,1.84571 0.2832,3.16895 0.76172,3.96973 0.47852,0.81055 1.29394,1.21582 2.44629,1.21582 1.13281,0 1.90918,-0.28808 2.3291,-0.86426 0.42969,-0.5664 0.66407,-1.60156 0.70313,-3.10547 h 4.32129 c -0.16602,2.43164 -0.85449,4.29688 -2.06544,5.59571 -1.20117,1.29883 -2.96386,1.94824 -5.28808,1.94824 z M 203.22532,322.88673 V 301.5586 h 4.30664 v 21.32813 z m 15.6958,0 V 301.5586 h 4.30664 v 13.98927 l 6.29883,-13.98927 h 4.30664 v 21.32813 h -4.29199 v -14.0039 l -6.31348,14.0039 z m 49.9336,0 v -14.66309 c 0,-2.25585 0.60058,-3.97949 1.80175,-5.17089 1.21095,-1.19141 2.95899,-1.78711 5.24415,-1.78711 2.24609,0 3.96972,0.58594 5.17089,1.75781 1.20117,1.18164 1.81153,2.88086 1.83106,5.09765 v 14.76563 h -4.30664 v -14.75098 c -0.01,-1.17187 -0.20508,-2.0166 -0.58594,-2.53417 -0.38086,-0.50782 -1.08398,-0.76173 -2.10937,-0.76173 -1.0254,0 -1.7334,0.25879 -2.12403,0.77637 -0.39062,0.51758 -0.58593,1.38184 -0.58593,2.59278 v 14.67773 z m 25.1001,0 V 301.5586 h 4.30664 v 7.79298 h 2.13867 l 3.20801,-7.79298 h 4.62891 v 0.20508 l -3.73535,8.73047 c 2.06054,1.13284 3.09081,3.11524 3.09081,5.94727 0,2.06055 -0.59082,3.64746 -1.77246,4.76074 -1.17187,1.12305 -2.83691,1.68457 -4.99512,1.68457 z m 29.63965,0 -6.66504,-21.32813 h 4.55566 l 1.14258,4.36524 h 5.87403 l 1.14257,-4.36524 h 4.59961 l -6.70899,21.32813 z m 20.41113,0 V 301.5586 h 4.30664 v 13.98927 l 6.29883,-13.98927 h 4.30664 v 21.32813 h -4.29199 v -14.0039 l -6.31348,14.0039 z m 51.01904,0 V 301.5586 h 12.2461 v 3.57423 h -7.93945 v 5.65429 h 6.70898 v 3.47168 h -6.70898 v 5.03907 h 7.91015 v 3.58886 z m -96.76318,-3.58886 h 2.51953 c 1.66992,0 2.50488,-1.06935 2.50488,-3.20802 0,-0.95703 -0.21484,-1.72362 -0.64453,-2.2998 -0.42969,-0.5664 -1.07421,-0.84961 -1.93359,-0.84961 h -2.44629 z m 27.2959,-2.18262 1.99219,-7.60254 h -3.98438 z M 201.53782,292.20118 v -2.20605 h 205.97169 v 2.20605 z m 60.2461,-11.39062 c -2.41211,0 -4.29688,-0.8252 -5.6543,-2.47559 -1.35742,-1.64062 -2.03613,-3.92578 -2.03613,-6.85547 v -3.64746 c 0.0195,-2.82226 0.71289,-5.01953 2.08007,-6.59179 1.36719,-1.5625 3.24707,-2.34375 5.63966,-2.34375 2.40234,0 4.27734,0.79101 5.625,2.37304 1.35741,1.58204 2.03613,3.80372 2.03613,6.66504 v 3.64746 c -0.0195,2.91992 -0.71289,5.18555 -2.08008,6.79688 -1.36719,1.62109 -3.2373,2.43164 -5.61035,2.43164 z m 60.38379,0 c -2.36328,0 -4.20898,-0.7959 -5.53711,-2.38769 -1.32812,-1.58204 -1.99219,-3.8379 -1.99219,-6.76758 v -3.58887 c 0,-2.93946 0.63965,-5.20508 1.91895,-6.79688 1.28906,-1.58203 3.13964,-2.37304 5.55176,-2.37304 2.29492,0 4.07226,0.62499 5.33202,1.875 1.25977,1.25 1.94337,3.09081 2.05079,5.52246 h -4.30664 c -0.0586,-1.44531 -0.30273,-2.44627 -0.73242,-3.00294 -0.42969,-0.54687 -1.21094,-0.8203 -2.34375,-0.8203 -1.15235,-3e-5 -1.96778,0.3955 -2.44629,1.18652 -0.46875,0.79101 -0.70313,2.24609 -0.70313,4.36523 v 4.02832 c 0.0293,1.84571 0.2832,3.16895 0.76172,3.96973 0.47852,0.81055 1.29395,1.21582 2.44629,1.21582 1.13281,0 1.90918,-0.28809 2.3291,-0.86426 0.42969,-0.56641 0.66406,-1.60156 0.70312,-3.10546 h 4.32129 c -0.16601,2.43163 -0.85449,4.29687 -2.06542,5.59569 -1.20118,1.29883 -2.96387,1.94825 -5.28809,1.94825 z m 41.8418,0 c -2.41211,0 -4.29688,-0.8252 -5.6543,-2.47559 -1.35742,-1.64062 -2.03613,-3.92578 -2.03613,-6.85547 v -3.64746 c 0.0195,-2.82226 0.71289,-5.01953 2.08008,-6.59179 1.36718,-1.5625 3.24707,-2.34375 5.63964,-2.34375 2.40234,0 4.27734,0.79101 5.625,2.37304 1.35743,1.58204 2.03613,3.80372 2.03613,6.66504 v 3.64746 c -0.0195,2.91992 -0.71289,5.18555 -2.08007,6.79688 -1.36719,1.62109 -3.23731,2.43164 -5.61035,2.43164 z m 36.19043,0 c -1.96289,0 -3.58398,-0.54688 -4.86328,-1.64063 -1.26953,-1.08398 -1.9043,-2.52441 -1.9043,-4.32129 0,-1.48437 0.46875,-2.77344 1.40625,-3.86718 0.9375,-1.08399 2.47559,-2.03125 4.61426,-2.8418 1.17187,-0.47851 1.97754,-0.94238 2.41699,-1.3916 0.44922,-0.43946 0.67383,-1.09375 0.67383,-1.96289 0,-1.5918 -0.75195,-2.3877 -2.25586,-2.3877 -1.08398,0 -1.86524,0.27832 -2.34375,0.83496 -0.47852,0.55665 -0.71777,1.4502 -0.71777,2.68067 h -4.32129 c 0,-1.43555 0.31738,-2.68067 0.95214,-3.73535 0.64454,-1.05469 1.53321,-1.86524 2.66602,-2.43165 1.13282,-0.5664 2.38769,-0.8496 3.76465,-0.8496 2.03125,0 3.63769,0.52245 4.81933,1.56738 1.18164,1.04492 1.77246,2.4951 1.77246,4.35059 0,1.68945 -0.47363,3.08105 -1.42089,4.1748 -0.9375,1.09375 -2.44629,2.0166 -4.52637,2.76856 -1.19141,0.50781 -2.02149,0.99609 -2.49024,1.46484 -0.46875,0.47851 -0.70312,1.01074 -0.70312,1.59668 0,0.75195 0.20996,1.34765 0.62989,1.78711 0.41991,0.44922 1.00585,0.67383 1.75781,0.67383 0.80078,0 1.41113,-0.26367 1.83105,-0.79102 0.42969,-0.51758 0.64453,-1.27442 0.64453,-2.27051 h 4.29199 c 0,1.2793 -0.27832,2.42187 -0.83496,3.42774 -0.54687,1.00586 -1.333,1.78222 -2.3584,2.3291 -1.02539,0.55664 -2.19238,0.83496 -3.50097,0.83496 z m -191.7129,-0.29297 -6.66504,-21.32812 h 4.55566 l 1.14258,4.36523 h 5.87403 l 1.14257,-4.36523 h 4.59961 l -6.70898,21.32812 z m 12.4043,0 V 265.8545 c 0,-2.25586 0.60058,-3.97949 1.80175,-5.1709 1.21094,-1.1914 2.95899,-1.7871 5.24414,-1.7871 2.2461,0 3.96973,0.58593 5.1709,1.75781 1.20118,1.18164 1.81153,2.88084 1.83106,5.09766 v 14.76562 h -4.30664 v -14.75097 c -0.01,-1.17188 -0.20508,-2.01661 -0.58594,-2.53419 -0.38086,-0.50781 -1.08398,-0.76171 -2.10938,-0.76171 -1.02539,-3e-5 -1.73339,0.25879 -2.12402,0.77636 -0.39062,0.51758 -0.58594,1.38184 -0.58594,2.59277 v 14.67774 z m 16.53515,0 v -3.58887 h 5.18555 v -17.73925 h 4.32129 v 17.73925 h 5.27344 v 3.58887 z m 47.70118,0 -6.66504,-21.32812 h 4.55567 l 1.14257,4.36523 h 5.87402 l 1.14258,-4.36523 h 4.59961 l -6.70898,21.32812 z m 12.4043,0 V 265.8545 c 0,-2.25586 0.60058,-3.97949 1.80175,-5.1709 1.21095,-1.1914 2.95899,-1.7871 5.24415,-1.7871 2.24609,0 3.96972,0.58593 5.17089,1.75781 1.20117,1.18164 1.81153,2.88084 1.83106,5.09766 v 14.76562 h -4.30664 v -14.75097 c -0.01,-1.17188 -0.20508,-2.01661 -0.58594,-2.53419 -0.38086,-0.50781 -1.08398,-0.76171 -2.10937,-0.76171 -1.0254,-3e-5 -1.7334,0.25879 -2.12403,0.77636 -0.39063,0.51758 -0.58593,1.38184 -0.58593,2.59277 v 14.67774 z m 33.40723,0 v -3.58887 h 5.18554 v -17.73925 h 4.32129 v 17.73925 h 5.27344 v 3.58887 z m 17.63379,0 v -21.32812 h 4.30663 v 21.32812 z m 26.40527,0 v -21.32812 h 4.30663 v 13.98925 l 6.29883,-13.98925 h 4.30665 v 21.32812 h -4.292 v -14.00391 l -6.31348,14.00391 z m -113.19434,-3.31055 c 1.15234,0 2.00195,-0.46875 2.54882,-1.40625 0.54688,-0.9375 0.82032,-2.36816 0.82032,-4.29199 v -3.70605 c -0.01,-1.81641 -0.28809,-3.15918 -0.83496,-4.02832 -0.54687,-0.85938 -1.38184,-1.28906 -2.50488,-1.28906 -1.16211,0 -2.02149,0.43944 -2.57813,1.31835 -0.55664,0.88867 -0.83496,2.26563 -0.83496,4.13086 v 3.79394 c 0.0195,1.84573 0.30273,3.21778 0.84961,4.11622 0.54687,0.9082 1.3916,1.3623 2.53418,1.3623 z m 102.22559,0 c 1.15234,0 2.00195,-0.46875 2.54882,-1.40625 0.54688,-0.9375 0.82031,-2.36816 0.82031,-4.29199 v -3.70605 c -0.01,-1.81641 -0.28808,-3.15918 -0.83496,-4.02832 -0.54687,-0.85938 -1.38183,-1.28906 -2.50488,-1.28906 -1.16211,0 -2.02148,0.43944 -2.57812,1.31835 -0.55664,0.88867 -0.83496,2.26563 -0.83496,4.13086 v 3.79394 c 0.0195,1.84573 0.30273,3.21778 0.84961,4.11622 0.54687,0.9082 1.3916,1.3623 2.53418,1.3623 z m -153.55958,-2.46094 1.99219,-7.60254 h -3.98438 z m 76.64063,0 1.99218,-7.60254 h -3.98437 z m -85.55274,-25.40624 v -2.20605 h 205.97169 v 2.20605 z"
       style="fill:#999999;stroke:none;stroke-width:0.75px;stroke-linecap:butt;stroke-linejoin:miter;stroke-opacity:1" /></g></svg>