<?xml version="1.0" encoding="UTF-8" standalone="no"?>
<svg
   xmlns:dc="http://purl.org/dc/elements/1.1/"
   xmlns:cc="http://creativecommons.org/ns#"
   xmlns:rdf="http://www.w3.org/1999/02/22-rdf-syntax-ns#"
   xmlns:svg="http://www.w3.org/2000/svg"
   xmlns="http://www.w3.org/2000/svg"
   xmlns:xlink="http://www.w3.org/1999/xlink"
   viewBox="0 0 847.07821 378.52128"
   id="svg-transport-consolidated"
   version="1.1">
  <metadata
     id="metadata8">
    <rdf:RDF>
      <cc:Work
         rdf:about="">
        <dc:format>image/svg+xml</dc:format>
        <dc:type
           rdf:resource="http://purl.org/dc/dcmitype/StillImage" />
        <dc:title></dc:title>
      </cc:Work>
    </rdf:RDF>
  </metadata>
  <defs
     id="defs6">
    <linearGradient
       id="linearGradient965">
      <stop
         id="stop961"
         offset="0"
         style="stop-color:#b22234;stop-opacity:1" />
      <stop
         id="stop963"
         offset="1"
         style="stop-color:#2d2b74;stop-opacity:1" />
    </linearGradient>
    <linearGradient
       gradientUnits="userSpaceOnUse"
       y2="551.43188"
       x2="-229.9321"
       y1="551.43188"
       x1="-344.55753"
       id="linearGradient967"
       xlink:href="#linearGradient965" />
  </defs>
  <g
     transform="translate(672.82049,-395.19784)"
     id="g144">
    <path
       style="fill:url(#linearGradient967);fill-opacity:1;stroke:none;stroke-width:1px;stroke-linecap:butt;stroke-linejoin:miter;stroke-opacity:1"
       d="m -672.13472,395.19784 c 19.44544,57.80598 58.79324,86.34317 90.4746,99.8125 0,0 -28.0371,2.3125 -53.9121,-2.6875 1.25,6.5 15.32617,17.625 15.32617,17.625 h 743.29883 c 6.375,-3.6875 12.93902,-13.00348 14.5,-17.625 0,0 -20.28375,5.91053 -51.75,2.375 18.5264,-8.62728 34.51209,-19.18058 48.53125,-33.875 19.2451,-20.17208 33.98748,-45.985 39.25,-65.625 -25.43675,11.68028 -85.08456,31.56135 -137.51172,41.26953 -43.65281,8.08339 -79.68676,12.20117 -101.70117,12.20117 h -374.03907 c -91.21678,-5.3033 -186.8584,-34.02526 -232.46679,-53.4707 z m 771.54687,128.6543 -251.60351,0.20703 45.04296,117.43164 c -0.024,6.37556 -3.53946,9.59759 -8.71484,11.32031 H -223.6191 l 39.28516,60.51172 h 152.01172 c 10.24127,0 24.52539,-5.92736 24.52539,-18.53516 0,-17.0444 -22.02101,-61.79621 -30.36719,-88.51172 -0.37793,-1.20969 -1.1058,-3.1835 0,-3.80273 10.76755,-6.02967 41.0918,-12.02539 41.0918,-12.02539 18.73833,3.88909 44.27356,-1.71501 52.22851,-9.31641 -4.33103,-0.61872 -25.10413,-6.59234 -28.46289,-10.6582 25.434,0.44233 54.73554,1.82596 71.60938,-27.40039 0,0 -33.09162,4.47009 -43.875,1.11133 8.83883,-2.29809 40.03462,-16.08939 44.98437,-20.33203 z m -372.92773,0.17773 6.55859,18.02149 h 82.74609 l -6.55859,-18.02149 z m -56.23828,0.17578 -266.50391,0.22071 c 14.25001,9.53125 34.89648,16.76757 42.89648,19.76757 0,0 -19.17382,2.66407 -43.17383,-0.58593 21.02819,34.25381 55.09503,24.93786 71.28516,26.50195 -0.26516,1.59099 -20.79317,9.12282 -28.04101,11.24414 21.74353,15.55635 51.76757,9.13672 51.76757,9.13672 12.45256,2.16036 25.86801,4.86865 36.20508,7.86133 12.00868,3.47662 17.8754,7.44996 21.8711,6.53125 l -40.84375,108.43945 h 82.30273 z"
       id="path44" />
    <path
       style="opacity:1;fill:#ffffff;fill-opacity:1;fill-rule:nonzero;stroke:none;stroke-width:1.13385832;stroke-linecap:round;stroke-miterlimit:4;stroke-dasharray:none;stroke-opacity:1"
       d="m -7.1211,448.54297 -3.07812,8.83008 -9.34961,-0.16406 7.44531,5.65625 -3.04492,8.83984 L -7.4668,466.3711 0,472 l -2.69922,-8.95312 7.66015,-5.36133 -9.34961,-0.19922 z m -40.01953,12.64063 -3.07812,8.82812 -9.34961,-0.16406 7.44531,5.65625 -3.04492,8.8418 7.67968,-5.33399 7.4668,5.62891 -2.69922,-8.95313 7.66211,-5.36328 -9.34961,-0.19922 z m 78.51953,0.10937 -3.07812,8.83008 -9.34961,-0.16406 7.44531,5.65625 -3.04492,8.83984 7.67969,-5.33398 7.46875,5.6289 -2.69922,-8.95312 7.66015,-5.36133 -9.34961,-0.19922 z m -115.39258,19.58594 -3.07812,8.82813 -9.34961,-0.16407 7.44531,5.65625 -3.04492,8.8418 7.67969,-5.33398 7.46679,5.6289 -2.69921,-8.95312 7.6621,-5.36328 -9.3496,-0.19922 z m 150.69336,0.16406 -3.08007,8.83008 -9.34961,-0.16406 7.44726,5.65625 -3.04687,8.83984 7.68164,-5.33398 7.46679,5.6289 -2.69921,-8.95312 7.66015,-5.36133 -9.34765,-0.19922 z m -15.02734,32.47657 -3.07813,8.83007 -9.3496,-0.16406 7.44726,5.65625 -3.04687,8.83985 7.68164,-5.33399 7.46679,5.62891 -2.69922,-8.95313 7.66016,-5.36133 -9.34961,-0.19922 z m -28.19531,30.67187 -3.07813,8.82813 -9.34961,-0.16407 7.44532,5.65625 -3.04493,8.8418 7.67969,-5.33398 7.4668,5.6289 -2.69922,-8.95312 7.66211,-5.36328 -9.34961,-0.19922 z m -34.82422,21.17188 -3.08008,8.83007 -9.34961,-0.16601 7.44727,5.65625 -3.04688,8.84179 7.68164,-5.33398 7.4668,5.62891 -2.69922,-8.95313 7.66016,-5.36133 -9.34766,-0.20117 z"
       id="path46" />
    <path
       id="text70"
       transform="translate(-810.54119,187.60778)"
       d="m 147.60742,539.81641 -6.875,10.54101 h 33.06836 l 6.8086,-10.54101 z m 37.32422,0 -6.67969,10.54101 h 39.28907 l 1.4414,-3.73242 c 0.91674,-2.35732 1.00384,-4.08052 0.26172,-5.17188 -0.69846,-1.09135 -2.31377,-1.63671 -4.8457,-1.63671 z m 50.41992,0 -6.54687,10.54101 h 25.4707 l 1.17969,-10.54101 z m 35.6875,0 -4.05859,10.54101 h 17.74414 l -3.27344,-10.54101 z m 22.39453,0 -4.05859,10.54101 h 14.4043 l 4.06054,-10.54101 z m 26.0625,0 c -2.53193,0 -4.6055,0.54536 -6.2207,1.63671 -1.57154,1.09136 -2.81569,2.81456 -3.73242,5.17188 l -1.44141,3.73242 h 35.6875 l 1.43946,-3.73242 c 0.91673,-2.35732 1.00579,-4.08052 0.26367,-5.17188 -0.69847,-1.09135 -2.31377,-1.63671 -4.84571,-1.63671 z m 33.98438,0 -6.67969,10.54101 h 39.28906 l 1.43946,-3.73242 c 0.91673,-2.35732 1.00383,-4.08052 0.26172,-5.17188 -0.69847,-1.09135 -2.31182,-1.63671 -4.84375,-1.63671 z m 47.93164,0 c -2.53193,0 -4.60551,0.54536 -6.2207,1.63671 -1.57155,1.09136 -2.81569,2.81456 -3.73243,5.17188 l -1.4414,3.73242 h 36.80078 l 1.44141,-3.73242 c 0.91673,-2.35732 1.00383,-4.08052 0.26171,-5.17188 -0.69846,-1.09135 -2.31377,-1.63671 -4.8457,-1.63671 z m 35.09766,0 -6.67969,10.54101 h 39.28906 l 1.44141,-3.73242 c 0.91673,-2.35732 1.00383,-4.08052 0.26172,-5.17188 -0.69847,-1.09135 -2.31377,-1.63671 -4.84571,-1.63671 z m 42.49804,0 -6.87695,10.54101 h 33.06836 l 6.81055,-10.54101 z m -328.51953,13.0957 -12.76758,33.19922 h 14.40625 l 12.76758,-33.19922 z m 29.59766,0 -12.76758,33.19922 h 14.4043 l 6.02539,-15.65039 2.29101,15.65039 h 14.47071 l -1.76758,-15.51953 c 2.53193,0 4.56195,-0.56812 6.08984,-1.70313 1.52789,-1.135 2.72848,-2.83741 3.60156,-5.10742 l 4.125,-10.86914 H 202.1543 c -0.0437,0.17462 -0.0892,0.32802 -0.13282,0.45898 -0.0436,0.13097 -0.108,0.28242 -0.19531,0.45703 l -1.04883,2.75 c -0.52384,1.35328 -1.11276,2.26981 -1.76757,2.75 -0.61116,0.4802 -1.46139,0.72071 -2.55274,0.72071 h -4.71484 l 2.75,-7.13672 z m 47.14648,0 -20.42969,33.19922 h 21.54297 l 6.81055,-10.54297 h -7.85742 l 12.76758,-20.82227 -3.86329,31.36524 h 14.14454 l 3.66601,-33.19922 z m 38.76563,0 -12.70313,33.19922 h 14.4043 l 6.61328,-17.28711 5.37109,17.28711 h 10.41016 l 12.70313,-33.19922 h -14.4043 l -1.57227,4.19141 -1.31054,-4.19141 z m 41.12109,0 -3.20898,8.44727 c -0.91674,2.35731 -1.00384,4.08052 -0.26172,5.17187 0.78577,1.09135 2.44463,1.63672 4.97656,1.63672 h 11.85156 c 0.74212,0.13096 1.15684,0.45857 1.24414,0.98242 0.0873,0.52385 -0.0869,1.35328 -0.52343,2.48828 l -0.19532,0.45899 c -0.52385,1.35327 -1.11472,2.2698 -1.76953,2.75 -0.61115,0.48019 -1.46138,0.7207 -2.55273,0.7207 h -18.59571 l -1.4414,10.54297 h 26.06054 c 2.53194,0 4.58471,-0.54537 6.15626,-1.63672 1.61519,-1.09135 2.88014,-2.81651 3.79687,-5.17383 l 5.69727,-14.86523 c 0.91673,-2.35732 0.98303,-4.08053 0.19726,-5.17188 -0.74212,-1.09135 -2.38018,-1.63672 -4.91211,-1.63672 h -10.86914 c -1.09135,0 -1.79012,-0.21971 -2.0957,-0.65625 -0.26193,-0.43654 -0.13127,-1.33032 0.39258,-2.68359 l 0.13086,-0.45899 c 0.0873,-0.17461 0.15361,-0.32606 0.19726,-0.45703 0.0437,-0.13096 0.10801,-0.28436 0.19531,-0.45898 z m 21.28125,0 -0.19531,0.58984 c -0.0437,0.21827 -0.10996,0.39248 -0.19727,0.52344 h 14.40625 l 0.45703,-1.11328 z m 20.23438,0 -12.76954,33.19922 h 14.40625 l 5.95899,-15.51953 h 14.92969 c 2.53193,0 4.56195,-0.54537 6.08984,-1.63672 1.57154,-1.09135 2.81569,-2.81651 3.73242,-5.17383 l 4.125,-10.86914 h -14.40625 c -0.0437,0.17462 -0.0872,0.32802 -0.13086,0.45898 -0.0437,0.13097 -0.10996,0.28242 -0.19726,0.45703 l -1.04688,2.75 c -0.52385,1.35328 -1.11277,2.26981 -1.76758,2.75 -0.61115,0.4802 -1.46333,0.72071 -2.55468,0.72071 h -4.71485 l 2.75196,-7.13672 z m 40.40039,0 -10.08399,26.38867 c -0.91673,2.35732 -1.00384,4.08248 -0.26172,5.17383 0.78578,1.09135 2.44463,1.63672 4.97657,1.63672 h 22.26367 c 2.53193,0 4.56195,-0.54537 6.08984,-1.63672 1.57155,-1.09135 2.81569,-2.81651 3.73242,-5.17383 l 10.08399,-26.38867 h -14.40625 c -0.0437,0.17462 -0.0872,0.32802 -0.13086,0.45898 -0.0437,0.13097 -0.10801,0.28242 -0.19531,0.45703 l -7.00782,18.26954 c -0.52385,1.35327 -1.11276,2.2698 -1.76758,2.75 -0.61115,0.48019 -1.46138,0.7207 -2.55273,0.7207 h -1.96484 c -1.09135,0 -1.79013,-0.24051 -2.09571,-0.7207 -0.26192,-0.4802 -0.13127,-1.39673 0.39258,-2.75 l 7.00781,-18.26954 c 0.0873,-0.17461 0.15166,-0.32606 0.19532,-0.45703 0.0437,-0.13096 0.10995,-0.28436 0.19726,-0.45898 z m 42.6289,0 -12.76953,33.19922 h 14.40625 l 6.02539,-15.65039 2.29102,15.65039 h 14.4707 l -1.76758,-15.51953 c 2.53194,0 4.56196,-0.56812 6.08985,-1.70313 1.52789,-1.135 2.72848,-2.83741 3.60156,-5.10742 l 4.125,-10.86914 h -14.40625 c -0.0437,0.17462 -0.0872,0.32802 -0.13086,0.45898 -0.0436,0.13097 -0.10801,0.28242 -0.19531,0.45703 l -1.04883,2.75 c -0.52385,1.35328 -1.11277,2.26981 -1.76758,2.75 -0.61116,0.4802 -1.46138,0.72071 -2.55273,0.72071 h -4.71485 l 2.75,-7.13672 z m 50.22461,0 -12.76953,33.19922 h 14.40625 l 12.76758,-33.19922 z"
       style="font-style:normal;font-variant:normal;font-weight:normal;font-stretch:normal;font-size:65.48101807px;line-height:1.25;font-family:'American Kestrel Laser';-inkscape-font-specification:'American Kestrel Laser';letter-spacing:0px;word-spacing:0px;fill:#b22234;fill-opacity:1;stroke:none;stroke-width:0.99999994" />
    <path
       id="text127"
       transform="translate(-810.54119,187.60778)"
       d="m 547.87109,539.70508 c -2.53193,0 -4.6055,0.54537 -6.2207,1.63672 -1.57154,1.09135 -2.81569,2.81651 -3.73242,5.17382 l -1.44141,3.73243 h 35.6875 l 1.44141,-3.73243 c 0.91673,-2.35731 1.00384,-4.08247 0.26172,-5.17382 -0.69847,-1.09135 -2.31377,-1.63672 -4.84571,-1.63672 z m 39.61524,0 c -2.53193,0 -4.60551,0.54537 -6.22071,1.63672 -1.57154,1.09135 -2.81568,2.81651 -3.73242,5.17382 l -1.43945,3.73243 h 36.80078 l 1.43945,-3.73243 c 0.91674,-2.35731 1.00384,-4.08247 0.26172,-5.17382 -0.69846,-1.09135 -2.31377,-1.63672 -4.8457,-1.63672 z m 33.39648,0 -4.06054,10.54297 h 17.74609 l -3.27539,-10.54297 z m 22.39453,0 -4.06054,10.54297 h 14.40625 l 4.06054,-10.54297 z m 26.06055,0 c -2.53193,0 -4.6055,0.54537 -6.2207,1.63672 -1.57155,1.09135 -2.81569,2.81651 -3.73242,5.17382 l -1.43946,3.73243 h 35.68555 l 1.44141,-3.73243 c 0.91673,-2.35731 1.00383,-4.08247 0.26171,-5.17382 -0.69846,-1.09135 -2.31377,-1.63672 -4.8457,-1.63672 z m 39.61719,0 c -2.53193,0 -4.60551,0.54537 -6.2207,1.63672 -1.57155,1.09135 -2.81569,2.81651 -3.73243,5.17382 l -1.4414,3.73243 h 36.80078 l 1.43945,-3.73243 c 0.91674,-2.35731 1.00384,-4.08247 0.26172,-5.17382 -0.69846,-1.09135 -2.31377,-1.63672 -4.8457,-1.63672 z m 33.39453,0 -4.06055,10.54297 h 14.40625 l 4.06055,-10.54297 z m 32.9375,0 -4.06055,10.54297 h 14.40625 l 4.0586,-10.54297 z m 20.03711,0 -6.67969,10.54297 h 39.41992 l 1.43946,-3.73243 c 0.91673,-2.35731 1.00383,-4.08247 0.26171,-5.17382 -0.69846,-1.09135 -2.31377,-1.63672 -4.8457,-1.63672 z m 50.55078,0 -6.54883,10.54297 h 25.47266 l 1.17773,-10.54297 z m 30.38281,0 -6.875,10.54297 h 33.06836 l 6.8086,-10.54297 z m 35.94922,0 -4.06055,10.54297 h 30.25196 l 6.81054,-10.54297 z m 37.65235,0 -6.67969,10.54297 h 39.41992 l 1.43945,-3.73243 c 0.91674,-2.35731 1.00384,-4.08247 0.26172,-5.17382 -0.69846,-1.09135 -2.31377,-1.63672 -4.8457,-1.63672 z m -414.36329,13.0957 -10.08593,26.38867 c -0.91674,2.35732 -1.00384,4.08248 -0.26172,5.17383 0.78577,1.09135 2.44463,1.63672 4.97656,1.63672 h 25.73438 l 6.67968,-10.54297 h -18.26953 c -1.09135,0 -1.79012,-0.24051 -2.0957,-0.7207 -0.26193,-0.4802 -0.13127,-1.39673 0.39258,-2.75 l 7.00781,-18.26953 c 0.0873,-0.17462 0.15166,-0.32607 0.19531,-0.45703 0.0437,-0.13097 0.10996,-0.28437 0.19727,-0.45899 z m 21.28125,0 c -0.0436,0.13096 -0.0872,0.28437 -0.13086,0.45899 l -0.13281,0.39257 -0.84961,2.22657 h 14.4043 l 1.11328,-3.07813 z m 18.33399,0 -10.08399,26.38867 c -0.91673,2.35732 -1.00383,4.08248 -0.26172,5.17383 0.78578,1.09135 2.44463,1.63672 4.97657,1.63672 h 22.26367 c 2.53193,0 4.56195,-0.54537 6.08984,-1.63672 1.57155,-1.09135 2.81569,-2.81651 3.73242,-5.17383 l 10.08399,-26.38867 h -14.40625 c -0.0436,0.17462 -0.0872,0.32802 -0.13086,0.45899 -0.0436,0.13096 -0.10996,0.28241 -0.19727,0.45703 l -7.00585,18.26953 c -0.52385,1.35327 -1.11277,2.2698 -1.76758,2.75 -0.61116,0.48019 -1.46334,0.7207 -2.55469,0.7207 h -1.96484 c -1.09135,0 -1.78818,-0.24051 -2.09375,-0.7207 -0.26193,-0.4802 -0.13127,-1.39673 0.39257,-2.75 l 7.00586,-18.26953 c 0.0873,-0.17462 0.15361,-0.32607 0.19727,-0.45703 0.0437,-0.13097 0.108,-0.28437 0.19531,-0.45899 z m 40.72851,0 L 603.13672,586 h 14.40625 L 624.15625,568.71289 629.52539,586 h 10.41211 l 12.70312,-33.19922 h -14.40624 l -1.57032,4.19141 -1.31054,-4.19141 z m 41.12305,0 -3.20898,8.44727 c -0.91674,2.35731 -1.00384,4.08247 -0.26172,5.17383 0.78577,1.09135 2.44463,1.63671 4.97656,1.63671 h 11.85156 c 0.74212,0.13097 1.15684,0.45858 1.24414,0.98243 0.0873,0.52384 -0.0869,1.35327 -0.52343,2.48828 l -0.19727,0.45703 c -0.52385,1.35327 -1.11277,2.2698 -1.76758,2.75 -0.61115,0.48019 -1.46138,0.7207 -2.55273,0.7207 H 647.92578 L 646.48633,586 h 26.06055 c 2.53193,0 4.58275,-0.54537 6.15429,-1.63672 1.6152,-1.09135 2.8821,-2.81651 3.79883,-5.17383 l 5.69727,-14.86328 c 0.91673,-2.35731 0.98108,-4.08248 0.19531,-5.17383 -0.74212,-1.09135 -2.37823,-1.63672 -4.91016,-1.63672 h -10.86914 c -1.09135,0 -1.79012,-0.21775 -2.0957,-0.65429 -0.26193,-0.43654 -0.13127,-1.33227 0.39258,-2.68555 l 0.13086,-0.45898 c 0.0873,-0.17462 0.15165,-0.32607 0.19531,-0.45703 0.0437,-0.13097 0.10996,-0.28437 0.19726,-0.45899 z m 21.28125,0 -0.19726,0.58984 c -0.0437,0.21828 -0.10801,0.39248 -0.19532,0.52344 h 14.4043 l 0.45898,-1.11328 z m 18.33398,0 -10.08398,26.38867 c -0.91673,2.35732 -1.00384,4.08248 -0.26172,5.17383 0.78577,1.09135 2.44463,1.63672 4.97656,1.63672 h 22.26368 c 2.53193,0 4.56195,-0.54537 6.08984,-1.63672 1.57154,-1.09135 2.81569,-2.81651 3.73242,-5.17383 l 10.08399,-26.38867 h -14.40625 c -0.0437,0.17462 -0.0872,0.32802 -0.13086,0.45899 -0.0437,0.13096 -0.10996,0.28241 -0.19727,0.45703 l -7.00586,18.26953 c -0.52385,1.35327 -1.11277,2.2698 -1.76758,2.75 -0.61115,0.48019 -1.46333,0.7207 -2.55468,0.7207 h -1.96289 c -1.09135,0 -1.79013,-0.24051 -2.09571,-0.7207 -0.26192,-0.4802 -0.13127,-1.39673 0.39258,-2.75 l 7.00586,-18.26953 c 0.0873,-0.17462 0.15361,-0.32607 0.19727,-0.45703 0.0436,-0.13097 0.108,-0.28437 0.19531,-0.45899 z m 40.72852,0 L 724.60352,586 h 27.30664 l 6.74414,-10.54297 h -15.58399 l 8.64258,-22.65625 z m 32.9375,0 L 757.54102,586 h 14.40625 l 12.70312,-33.19922 z m 20.23438,0 L 777.70898,586 h 29.4668 c 2.53193,0 4.56195,-0.54537 6.08984,-1.63672 1.57155,-1.09135 2.81569,-2.81651 3.73243,-5.17383 l 10.08398,-26.38867 h -14.40625 c -0.0437,0.17462 -0.0872,0.32802 -0.13086,0.45899 -0.0437,0.13096 -0.10996,0.28241 -0.19726,0.45703 l -7.00586,18.26953 c -0.52385,1.35327 -1.11277,2.2698 -1.76758,2.75 -0.61116,0.48019 -1.46334,0.7207 -2.55469,0.7207 h -4.8457 l 8.70898,-22.65625 z m 47.27734,0 L 817.32422,586 h 21.54492 l 6.80859,-10.54297 h -7.85742 L 850.58984,554.63477 846.72656,586 h 14.14258 l 3.66797,-33.19922 z m 41.38281,0 L 866.37109,586 h 14.4043 l 12.76953,-33.19922 z m 28.02539,0 L 894.46094,586 h 30.1875 l 6.81054,-10.54297 h -18.53125 l 2.81446,-7.33398 h 12.83593 l 6.74415,-10.41016 h -15.58594 l 1.90039,-4.91211 z m 37.84961,0 L 932.24414,586 h 29.4668 c 2.53193,0 4.56195,-0.54537 6.08984,-1.63672 1.57155,-1.09135 2.81569,-2.81651 3.73242,-5.17383 l 10.08399,-26.38867 h -14.40625 c -0.0437,0.17462 -0.0872,0.32802 -0.13086,0.45899 -0.0437,0.13096 -0.10996,0.28241 -0.19727,0.45703 l -7.00586,18.26953 c -0.52385,1.35327 -1.11276,2.2698 -1.76757,2.75 -0.61116,0.48019 -1.46334,0.7207 -2.55469,0.7207 h -4.84571 l 8.70899,-22.65625 z"
       style="font-style:normal;font-variant:normal;font-weight:normal;font-stretch:normal;font-size:65.48101807px;line-height:1.25;font-family:'American Kestrel Laser';-inkscape-font-specification:'American Kestrel Laser';letter-spacing:0px;word-spacing:0px;fill:#2d2b74;fill-opacity:1;stroke:none;stroke-width:0.99999994" />
  </g>
</svg>
