<?xml version="1.0" encoding="UTF-8" standalone="no"?>
<!-- Created with Inkscape (http://www.inkscape.org/) -->

<svg
   xmlns:dc="http://purl.org/dc/elements/1.1/"
   xmlns:cc="http://creativecommons.org/ns#"
   xmlns:rdf="http://www.w3.org/1999/02/22-rdf-syntax-ns#"
   xmlns:svg="http://www.w3.org/2000/svg"
   xmlns="http://www.w3.org/2000/svg"
   xmlns:xlink="http://www.w3.org/1999/xlink"
   xmlns:sodipodi="http://sodipodi.sourceforge.net/DTD/sodipodi-0.dtd"
   xmlns:inkscape="http://www.inkscape.org/namespaces/inkscape"
   version="1.1"
   id="svg2"
   width="297mm"
   height="210mm"
   viewBox="0 0 1122.5197 793.70079"
   sodipodi:docname="LOGOTIPO-PNG.svg"
   inkscape:version="0.92.5 (2060ec1f9f, 2020-04-08)">
  <metadata
     id="metadata8">
    <rdf:RDF>
      <cc:Work
         rdf:about="">
        <dc:format>image/svg+xml</dc:format>
        <dc:type
           rdf:resource="http://purl.org/dc/dcmitype/StillImage" />
        <dc:title />
      </cc:Work>
    </rdf:RDF>
  </metadata>
  <defs
     id="defs6">
    <linearGradient
       inkscape:collect="always"
       id="linearGradient965">
      <stop
         style="stop-color:#b22234;stop-opacity:1"
         offset="0"
         id="stop961" />
      <stop
         style="stop-color:#2d2b74;stop-opacity:1"
         offset="1"
         id="stop963" />
    </linearGradient>
    <linearGradient
       inkscape:collect="always"
       xlink:href="#linearGradient965"
       id="linearGradient967"
       x1="-344.55753"
       y1="551.43188"
       x2="-229.9321"
       y2="551.43188"
       gradientUnits="userSpaceOnUse" />
  </defs>
  <sodipodi:namedview
     pagecolor="#ffffff"
     bordercolor="#666666"
     borderopacity="1"
     objecttolerance="10"
     gridtolerance="10"
     guidetolerance="10"
     inkscape:pageopacity="0"
     inkscape:pageshadow="2"
     inkscape:window-width="1440"
     inkscape:window-height="784"
     id="namedview4"
     showgrid="false"
     inkscape:zoom="0.35355339"
     inkscape:cx="649.46627"
     inkscape:cy="-198.89673"
     inkscape:window-x="0"
     inkscape:window-y="27"
     inkscape:window-maximized="1"
     inkscape:current-layer="svg2"
     showguides="true"
     inkscape:guide-bbox="true"
     fit-margin-top="0"
     fit-margin-left="0"
     fit-margin-right="0"
     fit-margin-bottom="0"
     units="mm" />
  <g
     id="g144"
     transform="translate(810.54119,-187.60778)">
    <path
       inkscape:connector-curvature="0"
       id="path44"
       d="m -672.13472,395.19784 c 19.44544,57.80598 58.79324,86.34317 90.4746,99.8125 0,0 -28.0371,2.3125 -53.9121,-2.6875 1.25,6.5 15.32617,17.625 15.32617,17.625 h 743.29883 c 6.375,-3.6875 12.93902,-13.00348 14.5,-17.625 0,0 -20.28375,5.91053 -51.75,2.375 18.5264,-8.62728 34.51209,-19.18058 48.53125,-33.875 19.2451,-20.17208 33.98748,-45.985 39.25,-65.625 -25.43675,11.68028 -85.08456,31.56135 -137.51172,41.26953 -43.65281,8.08339 -79.68676,12.20117 -101.70117,12.20117 h -374.03907 c -91.21678,-5.3033 -186.8584,-34.02526 -232.46679,-53.4707 z m 771.54687,128.6543 -251.60351,0.20703 45.04296,117.43164 c -0.024,6.37556 -3.53946,9.59759 -8.71484,11.32031 H -223.6191 l 39.28516,60.51172 h 152.01172 c 10.24127,0 24.52539,-5.92736 24.52539,-18.53516 0,-17.0444 -22.02101,-61.79621 -30.36719,-88.51172 -0.37793,-1.20969 -1.1058,-3.1835 0,-3.80273 10.76755,-6.02967 41.0918,-12.02539 41.0918,-12.02539 18.73833,3.88909 44.27356,-1.71501 52.22851,-9.31641 -4.33103,-0.61872 -25.10413,-6.59234 -28.46289,-10.6582 25.434,0.44233 54.73554,1.82596 71.60938,-27.40039 0,0 -33.09162,4.47009 -43.875,1.11133 8.83883,-2.29809 40.03462,-16.08939 44.98437,-20.33203 z m -372.92773,0.17773 6.55859,18.02149 h 82.74609 l -6.55859,-18.02149 z m -56.23828,0.17578 -266.50391,0.22071 c 14.25001,9.53125 34.89648,16.76757 42.89648,19.76757 0,0 -19.17382,2.66407 -43.17383,-0.58593 21.02819,34.25381 55.09503,24.93786 71.28516,26.50195 -0.26516,1.59099 -20.79317,9.12282 -28.04101,11.24414 21.74353,15.55635 51.76757,9.13672 51.76757,9.13672 12.45256,2.16036 25.86801,4.86865 36.20508,7.86133 12.00868,3.47662 17.8754,7.44996 21.8711,6.53125 l -40.84375,108.43945 h 82.30273 z"
       style="fill:url(#linearGradient967);fill-opacity:1;stroke:none;stroke-width:1px;stroke-linecap:butt;stroke-linejoin:miter;stroke-opacity:1"
       sodipodi:nodetypes="cccccccscssccccccccssccccccccccccccccccccscccc" />
    <path
       id="path46"
       d="m -7.1211,448.54297 -3.07812,8.83008 -9.34961,-0.16406 7.44531,5.65625 -3.04492,8.83984 L -7.4668,466.3711 0,472 l -2.69922,-8.95312 7.66015,-5.36133 -9.34961,-0.19922 z m -40.01953,12.64063 -3.07812,8.82812 -9.34961,-0.16406 7.44531,5.65625 -3.04492,8.8418 7.67968,-5.33399 7.4668,5.62891 -2.69922,-8.95313 7.66211,-5.36328 -9.34961,-0.19922 z m 78.51953,0.10937 -3.07812,8.83008 -9.34961,-0.16406 7.44531,5.65625 -3.04492,8.83984 7.67969,-5.33398 7.46875,5.6289 -2.69922,-8.95312 7.66015,-5.36133 -9.34961,-0.19922 z m -115.39258,19.58594 -3.07812,8.82813 -9.34961,-0.16407 7.44531,5.65625 -3.04492,8.8418 7.67969,-5.33398 7.46679,5.6289 -2.69921,-8.95312 7.6621,-5.36328 -9.3496,-0.19922 z m 150.69336,0.16406 -3.08007,8.83008 -9.34961,-0.16406 7.44726,5.65625 -3.04687,8.83984 7.68164,-5.33398 7.46679,5.6289 -2.69921,-8.95312 7.66015,-5.36133 -9.34765,-0.19922 z m -15.02734,32.47657 -3.07813,8.83007 -9.3496,-0.16406 7.44726,5.65625 -3.04687,8.83985 7.68164,-5.33399 7.46679,5.62891 -2.69922,-8.95313 7.66016,-5.36133 -9.34961,-0.19922 z m -28.19531,30.67187 -3.07813,8.82813 -9.34961,-0.16407 7.44532,5.65625 -3.04493,8.8418 7.67969,-5.33398 7.4668,5.6289 -2.69922,-8.95312 7.66211,-5.36328 -9.34961,-0.19922 z m -34.82422,21.17188 -3.08008,8.83007 -9.34961,-0.16601 7.44727,5.65625 -3.04688,8.84179 7.68164,-5.33398 7.4668,5.62891 -2.69922,-8.95313 7.66016,-5.36133 -9.34766,-0.20117 z"
       style="opacity:1;fill:#ffffff;fill-opacity:1;fill-rule:nonzero;stroke:none;stroke-width:1.13385832;stroke-linecap:round;stroke-miterlimit:4;stroke-dasharray:none;stroke-opacity:1"
       inkscape:connector-curvature="0" />
    <text
       id="text70"
       y="773.71851"
       x="-684.54211"
       style="font-style:normal;font-variant:normal;font-weight:normal;font-stretch:normal;font-size:65.48101807px;line-height:1.25;font-family:'American Kestrel Laser';-inkscape-font-specification:'American Kestrel Laser';letter-spacing:0px;word-spacing:0px;fill:#b22234;fill-opacity:1;stroke:none;stroke-width:0.99999994"
       xml:space="preserve"><tspan
         style="font-style:normal;font-variant:normal;font-weight:normal;font-stretch:normal;font-family:'American Kestrel Laser';-inkscape-font-specification:'American Kestrel Laser';fill:#b22234;fill-opacity:1;stroke:none;stroke-width:0.99999994"
         y="773.71851"
         x="-684.54211"
         id="tspan68"
         sodipodi:role="line">transport</tspan></text>
    <text
       xml:space="preserve"
       style="font-style:normal;font-variant:normal;font-weight:normal;font-stretch:normal;font-size:65.48101807px;line-height:1.25;font-family:'American Kestrel Laser';-inkscape-font-specification:'American Kestrel Laser';letter-spacing:0px;word-spacing:0px;fill:#2d2b74;fill-opacity:1;stroke:none;stroke-width:0.99999994"
       x="-289.71375"
       y="773.6076"
       id="text127"><tspan
         sodipodi:role="line"
         id="tspan125"
         x="-289.71375"
         y="773.6076"
         style="font-style:normal;font-variant:normal;font-weight:normal;font-stretch:normal;font-family:'American Kestrel Laser';-inkscape-font-specification:'American Kestrel Laser';fill:#2d2b74;fill-opacity:1;stroke:none;stroke-width:0.99999994">consolidated</tspan></text>
  </g>
</svg>
