<?xml version="1.0" encoding="UTF-8" standalone="no"?>
<!-- Generator: Adobe Illustrator 19.2.1, SVG Export Plug-In . SVG Version: 6.00 Build 0)  -->

<svg
   xmlns:dc="http://purl.org/dc/elements/1.1/"
   xmlns:cc="http://creativecommons.org/ns#"
   xmlns:rdf="http://www.w3.org/1999/02/22-rdf-syntax-ns#"
   xmlns:svg="http://www.w3.org/2000/svg"
   xmlns="http://www.w3.org/2000/svg"
   xmlns:xlink="http://www.w3.org/1999/xlink"
   xmlns:sodipodi="http://sodipodi.sourceforge.net/DTD/sodipodi-0.dtd"
   xmlns:inkscape="http://www.inkscape.org/namespaces/inkscape"
   version="1.1"
   id="layer"
   x="0px"
   y="0px"
   viewBox="0 0 600.18756 147.17509"
   xml:space="preserve"
   sodipodi:docname="manheim-vector-logo-gris.svg"
   inkscape:version="0.92.5 (2060ec1f9f, 2020-04-08)"
   width="600.18756"
   height="147.17509"><metadata
   id="metadata667"><rdf:RDF><cc:Work
       rdf:about=""><dc:format>image/svg+xml</dc:format><dc:type
         rdf:resource="http://purl.org/dc/dcmitype/StillImage" /><dc:title></dc:title></cc:Work></rdf:RDF></metadata><defs
   id="defs665" /><sodipodi:namedview
   pagecolor="#ffffff"
   bordercolor="#666666"
   borderopacity="1"
   objecttolerance="10"
   gridtolerance="10"
   guidetolerance="10"
   inkscape:pageopacity="0"
   inkscape:pageshadow="2"
   inkscape:window-width="1440"
   inkscape:window-height="784"
   id="namedview663"
   showgrid="false"
   inkscape:zoom="0.5"
   inkscape:cx="85.295031"
   inkscape:cy="222.40733"
   inkscape:window-x="0"
   inkscape:window-y="27"
   inkscape:window-maximized="1"
   inkscape:current-layer="layer"
   fit-margin-top="0"
   fit-margin-left="0"
   fit-margin-right="0"
   fit-margin-bottom="0" />
<style
   type="text/css"
   id="style2">
	.st0{fill:#010101;}
	.st1{fill:#6E451C;}
	.st2{fill:#FEFBEB;}
	.st3{clip-path:url(#SVGID_2_);fill:url(#SVGID_3_);}
	.st4{clip-path:url(#SVGID_5_);fill:url(#SVGID_6_);}
	.st5{fill:none;stroke:#FCD20A;stroke-width:0.3595;}
	.st6{fill:none;stroke:#EFE8B3;stroke-width:0.5939;}
	.st7{clip-path:url(#SVGID_8_);fill:url(#SVGID_9_);}
	.st8{fill:none;stroke:#9D6A29;stroke-width:0.3751;}
	.st9{fill:#FCFADE;}
	.st10{clip-path:url(#SVGID_11_);fill:url(#SVGID_12_);}
	.st11{fill:#1B3663;}
	.st12{clip-path:url(#SVGID_14_);fill:url(#SVGID_15_);}
	.st13{fill:none;stroke:#675221;stroke-width:0.6877;}
	.st14{clip-path:url(#SVGID_17_);fill:url(#SVGID_18_);}
	.st15{clip-path:url(#SVGID_20_);fill:url(#SVGID_21_);}
	.st16{fill:#FBE393;}
	.st17{fill:#F5E8AF;}
	.st18{fill:#FCF9D9;}
	.st19{fill:#B18F2F;}
	.st20{clip-path:url(#SVGID_23_);fill:url(#SVGID_24_);}
	.st21{clip-path:url(#SVGID_26_);fill:url(#SVGID_27_);}
	.st22{clip-path:url(#SVGID_29_);fill:url(#SVGID_30_);}
	.st23{clip-path:url(#SVGID_32_);fill:url(#SVGID_33_);}
	.st24{clip-path:url(#SVGID_35_);fill:url(#SVGID_36_);}
	.st25{clip-path:url(#SVGID_38_);fill:url(#SVGID_39_);}
	.st26{clip-path:url(#SVGID_41_);fill:url(#SVGID_42_);}
	.st27{clip-path:url(#SVGID_44_);fill:url(#SVGID_45_);}
	.st28{fill:#9D6A29;}
	.st29{fill:#FCF8CC;}
	.st30{clip-path:url(#SVGID_47_);fill:url(#SVGID_48_);}
</style>
<g
   id="g22"
   transform="translate(-22.71245,-247.11245)">
	<path
   class="st0"
   d="m 238.8,360 -32,-67 h -0.3 l -3.4,56.5 c -0.3,6.4 4.4,7.8 10.1,8 v 2.4 H 187 v -2.4 c 9.2,0 10.3,-2 10.9,-13.4 l 3,-48.9 c 0.5,-8.3 0.2,-10.6 -7.5,-11.1 V 282 h 19 l 30.3,63.3 30.1,-63.3 h 18.5 v 2.3 c -6.2,0.5 -8.5,0.6 -8.3,4.9 l 4,56.9 c 0.8,11.6 1.8,11.6 10.9,11.6 v 2.4 h -32.3 v -2.4 c 5.9,0 11.7,-1.6 11.2,-8.3 l -3.6,-56.3 H 273 l -31.3,67 h -2.9 z"
   id="path4"
   style="fill:#595959;fill-opacity:1"
   inkscape:connector-curvature="0" />
	<path
   class="st0"
   d="m 299.5,325.2 c -0.3,-0.7 -0.4,-1.1 -0.4,-1.8 0,-4.4 10.5,-14.6 18.6,-14.6 3.8,0 9.7,1.8 13.2,6.7 1.9,2.6 1.9,4.3 1.9,10.8 v 16.8 c 0,10.1 0,12.3 3.3,12.3 1.4,0 3,-0.1 6.2,-2.8 l 0.6,1.9 c -6.8,5.5 -10.3,6.9 -12.4,6.9 -5.1,0 -5.6,-5.7 -5.8,-7.7 -8.7,7.2 -11.2,7.7 -14.6,7.7 -7.3,0 -11.7,-4.1 -11.7,-10.3 0,-7.7 6.8,-10.3 14.8,-12.3 2.6,-0.6 6.8,-2.1 11.2,-4.8 v -9.9 c 0,-3.5 0,-5.5 -2.1,-8 -1.6,-2 -4.3,-3.7 -7,-3.7 -4.1,0 -7.8,3.5 -7.8,6.2 0,0.8 0.1,1.3 0.6,2.4 z m 24.9,11.4 c -2.4,1.4 -4.4,2.3 -7.4,3.5 -7.7,3.2 -10.6,4.4 -10.6,9.6 0,4.5 3.7,7.4 7.4,7.4 2,0 3.5,-0.6 10.6,-5.5 z"
   id="path6"
   style="fill:#595959;fill-opacity:1"
   inkscape:connector-curvature="0" />
	<path
   class="st0"
   d="m 357,349.1 c 0,6.9 1.6,8.5 8.4,8.5 v 2.4 h -25.3 v -2.4 c 5.5,0 8.4,-3 8.4,-7.9 v -26.4 c 0,-4.6 -0.5,-5.5 -3.8,-6.2 l -4.3,-0.9 v -2 L 355,309 h 2 v 9.8 c 8.4,-5.3 15.5,-9.9 21.6,-9.9 8.5,0 13.4,6.3 13.4,18.8 0,16.7 -0.9,20 -1,24.9 -0.1,3.4 1.9,5 7,5 h 2.8 v 2.4 h -27 v -2.4 c 3.7,-0.1 5.8,-1 7.2,-2.4 2.4,-2.4 2.6,-11.6 2.6,-28.3 0,-10.1 -4.9,-13.2 -9.9,-13.2 -4,0 -10.2,3.5 -16.7,8 z"
   id="path8"
   style="fill:#595959;fill-opacity:1"
   inkscape:connector-curvature="0" />
	<path
   class="st0"
   d="m 413.2,350.1 c 0,5.9 1.6,7.5 8.2,7.5 v 2.4 h -25.1 v -2.4 c 6.9,-0.4 8.5,-2.8 8.5,-9.7 v -60.2 c 0,-2.8 -0.5,-3.8 -3.1,-4.1 l -5.4,-0.8 v -2.1 l 15,-5.2 h 2 v 41.2 c 8.3,-4.9 14.3,-7.9 20.7,-7.9 9.7,0 14,6 14,18.7 0,11.4 -0.3,18.5 -0.6,25.3 0.3,3.4 2.1,4.8 9.5,4.8 v 2.4 h -27.1 v -2.4 c 3.3,0 5.6,-0.6 7,-2 2.3,-2.3 2.8,-7.7 2.8,-26.4 0,-13.4 -7.3,-15.2 -11.4,-15.2 -4.1,0 -8.7,2 -14.8,5.9 v 30.2 z"
   id="path10"
   style="fill:#595959;fill-opacity:1"
   inkscape:connector-curvature="0" />
	<path
   class="st0"
   d="m 463.6,328.1 c -0.3,1.9 -0.5,3.6 -0.5,5.3 0,13.1 9.2,21.9 19.1,21.9 6.3,0 11.2,-2.5 16,-8.2 l 1.4,1.5 c -5.3,6.7 -13.2,12.9 -22.4,12.9 -12.3,0 -21.9,-11.2 -21.9,-25.8 0,-13.3 8.9,-26.9 24.3,-26.9 17,0 16.6,12.2 20.7,16.3 v 2.9 h -36.7 z m 26.1,-3.3 c -1.4,-8.2 -6.4,-13.6 -12.5,-13.6 -4.1,0 -10.4,1.9 -13.3,13.6 z"
   id="path12"
   style="fill:#595959;fill-opacity:1"
   inkscape:connector-curvature="0" />
	<path
   class="st0"
   d="m 518.6,350.5 c 0,4.4 2.4,7.2 9,7.2 v 2.4 h -27.9 v -2.4 c 7.7,0 10.4,-2.5 10.4,-9.2 v -25.3 c 0,-4.9 -0.6,-5.5 -3.9,-6.2 l -5.9,-1.1 v -2 l 16.3,-5.7 h 1.9 v 42.3 z M 513.5,280 c 3,0 5.5,2.1 5.5,4.8 0,2.6 -2.5,4.8 -5.5,4.8 -3,0 -5.4,-2.1 -5.4,-4.8 0,-2.7 2.4,-4.8 5.4,-4.8"
   id="path14"
   style="fill:#595959;fill-opacity:1"
   inkscape:connector-curvature="0" />
	<path
   class="st0"
   d="m 543.4,349.8 c 0,6.5 1.8,7.8 8.8,7.8 v 2.4 h -26.1 v -2.4 c 7.3,0 8.9,-3.3 8.9,-9.7 v -24.6 c 0,-4.9 -0.8,-6 -3.6,-6.4 l -4.9,-0.6 v -2.1 l 15.1,-5.3 h 1.9 v 10 c 9,-6.4 17.3,-10 22.4,-10 6.2,0 10.7,3.9 11.9,10 8.4,-5.3 16.1,-10 22.2,-10 9,0 12.6,6.9 12.6,19 0,8 0,16.5 -0.4,24.1 0,2.6 1.5,5.7 6.7,5.7 h 4 v 2.4 h -28.3 v -2.4 h 1.1 c 3.6,0 5.3,-0.6 6.4,-1.8 1.9,-1.9 2,-9.2 2,-17.8 v -9.8 c 0,-9.7 -3.3,-14.3 -9.4,-14.3 -3.9,0 -8.9,1.9 -16.7,7 v 28.9 c 0,6.3 1.5,7.8 7.8,7.8 v 2.4 H 560 v -2.4 c 7.1,0 9.6,-2.5 9.6,-9.7 v -23.3 c 0,-7.9 -4.9,-10.8 -9.3,-10.8 -3.5,0 -8.3,1.6 -16.8,7.3 v 28.6 z"
   id="path16"
   style="fill:#595959;fill-opacity:1"
   inkscape:connector-curvature="0" />
	<path
   class="st1"
   d="m 27.6,321.5 c 0,38.2 31,69.2 69.2,69.2 38.2,0 69.2,-30.9 69.2,-69.2 0,-38.2 -31,-69.2 -69.2,-69.2 -38.2,0 -69.2,31 -69.2,69.2"
   id="path18"
   inkscape:connector-curvature="0"
   style="fill:#6e451c" />
	<path
   class="st2"
   d="m 26.1,319.9 c 0,38.2 30.9,69.2 69.2,69.2 38.2,0 69.1,-31 69.1,-69.2 0,-38.2 -31,-69.2 -69.1,-69.2 -38.3,0.1 -69.2,31 -69.2,69.2"
   id="path20"
   inkscape:connector-curvature="0"
   style="fill:#fefbeb" />
</g>
<g
   id="g57"
   transform="translate(-22.71245,-247.11245)">
	<defs
   id="defs25">
		<path
   id="SVGID_1_"
   d="m 27.1,320.7 c 0,38.2 30.9,69.1 69.2,69.1 38.2,0 69.2,-30.9 69.2,-69.1 0,-38.2 -31,-69.2 -69.2,-69.2 -38.3,0 -69.2,31 -69.2,69.2"
   inkscape:connector-curvature="0" />
	</defs>
	<clipPath
   id="SVGID_2_">
		<use
   xlink:href="#SVGID_1_"
   style="overflow:visible"
   id="use27"
   x="0"
   y="0"
   width="100%"
   height="100%" />
	</clipPath>
	
		<linearGradient
   id="SVGID_3_"
   gradientUnits="userSpaceOnUse"
   x1="-62.544498"
   y1="636.69708"
   x2="-46.9147"
   y2="636.69708"
   gradientTransform="matrix(6.3836,5.8285,-5.8285,6.3836,4155.5698,-3425.7278)">
		<stop
   offset="0"
   style="stop-color:#FDEDA1"
   id="stop30" />
		<stop
   offset="0.3539"
   style="stop-color:#EDB62F"
   id="stop32" />
		<stop
   offset="0.5315"
   style="stop-color:#EEB82D"
   id="stop34" />
		<stop
   offset="0.6193"
   style="stop-color:#F1BE25"
   id="stop36" />
		<stop
   offset="0.6872"
   style="stop-color:#F7C818"
   id="stop38" />
		<stop
   offset="0.7303"
   style="stop-color:#FCD20B"
   id="stop40" />
		<stop
   offset="0.763"
   style="stop-color:#E2B411"
   id="stop42" />
		<stop
   offset="0.8074"
   style="stop-color:#C59318"
   id="stop44" />
		<stop
   offset="0.8529"
   style="stop-color:#AF781D"
   id="stop46" />
		<stop
   offset="0.8995"
   style="stop-color:#9F6621"
   id="stop48" />
		<stop
   offset="0.9476"
   style="stop-color:#955B23"
   id="stop50" />
		<stop
   offset="1"
   style="stop-color:#925724"
   id="stop52" />
	</linearGradient>
	<polygon
   class="st3"
   points="234.3,314.4 90,182.7 -41.8,327 102.5,458.7 "
   clip-path="url(#SVGID_2_)"
   id="polygon55"
   style="fill:url(#SVGID_3_)" />
</g>
<g
   id="g90"
   transform="translate(-22.71245,-247.11245)">
	<defs
   id="defs60">
		<path
   id="SVGID_4_"
   d="m 30.2,320.7 c 0,36.5 29.6,66 66.1,66 36.5,0 66,-29.6 66,-66 0,-36.5 -29.6,-66.1 -66,-66.1 -36.4,0 -66.1,29.6 -66.1,66.1"
   inkscape:connector-curvature="0" />
	</defs>
	<clipPath
   id="SVGID_5_">
		<use
   xlink:href="#SVGID_4_"
   style="overflow:visible"
   id="use62"
   x="0"
   y="0"
   width="100%"
   height="100%" />
	</clipPath>
	
		<linearGradient
   id="SVGID_6_"
   gradientUnits="userSpaceOnUse"
   x1="-65.230598"
   y1="632.66632"
   x2="-49.6008"
   y2="632.66632"
   gradientTransform="matrix(6.5796,9.9421,-9.9421,6.5796,6769.3877,-3263.1252)">
		<stop
   offset="0"
   style="stop-color:#C9952F"
   id="stop65" />
		<stop
   offset="2.513951e-002"
   style="stop-color:#D2A542"
   id="stop67" />
		<stop
   offset="7.606491e-002"
   style="stop-color:#E8CD74"
   id="stop69" />
		<stop
   offset="9.550480e-002"
   style="stop-color:#F1DE89"
   id="stop71" />
		<stop
   offset="0.2764"
   style="stop-color:#EEC758"
   id="stop73" />
		<stop
   offset="0.4663"
   style="stop-color:#EBAC20"
   id="stop75" />
		<stop
   offset="0.4916"
   style="stop-color:#ECAE27"
   id="stop77" />
		<stop
   offset="0.7416"
   style="stop-color:#F5C66D"
   id="stop79" />
		<stop
   offset="0.8258"
   style="stop-color:#E6AE53"
   id="stop81" />
		<stop
   offset="0.936"
   style="stop-color:#D59437"
   id="stop83" />
		<stop
   offset="1"
   style="stop-color:#CF8A2D"
   id="stop85" />
	</linearGradient>
	<polygon
   class="st4"
   points="223.1,346.5 122.1,193.8 -30.6,294.9 70.4,447.5 "
   clip-path="url(#SVGID_5_)"
   id="polygon88"
   style="fill:url(#SVGID_6_)" />
</g>
<g
   id="g98"
   transform="translate(-22.71245,-247.11245)">
	<path
   class="st5"
   d="m 30.2,320.7 c 0,36.5 29.6,66.1 66.1,66.1 36.5,0 66,-29.6 66,-66.1 0,-36.5 -29.6,-66.1 -66,-66.1 -36.5,0 -66.1,29.6 -66.1,66.1 z"
   id="path92"
   inkscape:connector-curvature="0"
   style="fill:none;stroke:#fcd20a;stroke-width:0.35949999" />
	<path
   class="st0"
   d="m 96.2,260.8 c -33.1,0 -59.9,26.8 -59.9,59.8 0,33.1 26.8,59.9 59.9,59.9 33,0 59.8,-26.8 59.8,-59.9 0,-33 -26.8,-59.8 -59.8,-59.8 m 0,113 C 66.8,373.8 43,350 43,320.7 c 0,-29.3 23.8,-53.1 53.1,-53.1 27.2,0 53.1,24.9 53.1,53.1 0.1,29.3 -23.7,53.1 -53,53.1"
   id="path94"
   inkscape:connector-curvature="0"
   style="fill:#010101" />
	<path
   class="st6"
   d="m 96.2,260.8 c -33.1,0 -59.9,26.8 -59.9,59.8 0,33.1 26.8,59.9 59.9,59.9 33,0 59.8,-26.8 59.8,-59.9 0,-33 -26.8,-59.8 -59.8,-59.8 z m 0,113 C 66.8,373.8 43,350 43,320.7 c 0,-29.3 23.8,-53.1 53.1,-53.1 27.2,0 53.1,24.9 53.1,53.1 0.1,29.3 -23.7,53.1 -53,53.1 z"
   id="path96"
   inkscape:connector-curvature="0"
   style="fill:none;stroke:#efe8b3;stroke-width:0.59390002" />
</g>
<g
   id="g151"
   transform="translate(-22.71245,-247.11245)">
	<defs
   id="defs101">
		<path
   id="SVGID_7_"
   d="m 31.7,320.7 c 0,-35.7 28.9,-64.6 64.6,-64.6 35.7,0 64.6,28.9 64.6,64.6 0,35.7 -28.9,64.6 -64.6,64.6 -35.7,0 -64.6,-28.9 -64.6,-64.6 m -8.9,0 c 0,40.5 32.9,73.4 73.4,73.4 40.5,0 73.4,-32.9 73.4,-73.4 0,-40.5 -32.9,-73.4 -73.4,-73.4 -40.5,0 -73.4,32.9 -73.4,73.4"
   inkscape:connector-curvature="0" />
	</defs>
	<clipPath
   id="SVGID_8_">
		<use
   xlink:href="#SVGID_7_"
   style="overflow:visible"
   id="use103"
   x="0"
   y="0"
   width="100%"
   height="100%" />
	</clipPath>
	
		<linearGradient
   id="SVGID_9_"
   gradientUnits="userSpaceOnUse"
   x1="-66.932297"
   y1="621.18048"
   x2="-51.302502"
   y2="621.18048"
   gradientTransform="matrix(-2.4825,8.6641,-8.6641,-2.4825,5331.5059,2374.7913)">
		<stop
   offset="0"
   style="stop-color:#878785;stop-opacity:1"
   id="stop106" />
		<stop
   offset="5.615230e-003"
   style="stop-color:#878785;stop-opacity:1"
   id="stop108" />
		<stop
   offset="5.504611e-002"
   style="stop-color:#878785;stop-opacity:1"
   id="stop110" />
		<stop
   offset="0.1083"
   style="stop-color:#878785;stop-opacity:1"
   id="stop112" />
		<stop
   offset="0.1632"
   style="stop-color:#878785;stop-opacity:1"
   id="stop114" />
		<stop
   offset="0.2194"
   style="stop-color:#878785;stop-opacity:1"
   id="stop116" />
		<stop
   offset="0.278"
   style="stop-color:#878785;stop-opacity:1"
   id="stop118" />
		<stop
   offset="0.3427"
   style="stop-color:#878785;stop-opacity:1"
   id="stop120" />
		<stop
   offset="0.3802"
   style="stop-color:#878785;stop-opacity:1"
   id="stop122" />
		<stop
   offset="0.4507"
   style="stop-color:#878785;stop-opacity:1"
   id="stop124" />
		<stop
   offset="0.546"
   style="stop-color:#878785;stop-opacity:1"
   id="stop126" />
		<stop
   offset="0.6348"
   style="stop-color:#878785;stop-opacity:1"
   id="stop128" />
		<stop
   offset="0.6637"
   style="stop-color:#878785;stop-opacity:1"
   id="stop130" />
		<stop
   offset="0.7051"
   style="stop-color:#878785;stop-opacity:1"
   id="stop132" />
		<stop
   offset="0.7541"
   style="stop-color:#878785;stop-opacity:1"
   id="stop134" />
		<stop
   offset="0.8084"
   style="stop-color:#878785;stop-opacity:1"
   id="stop136" />
		<stop
   offset="0.8315"
   style="stop-color:#878785;stop-opacity:1"
   id="stop138" />
		<stop
   offset="0.8514"
   style="stop-color:#878785;stop-opacity:1"
   id="stop140" />
		<stop
   offset="0.9138"
   style="stop-color:#878785;stop-opacity:1"
   id="stop142" />
		<stop
   offset="0.9656"
   style="stop-color:#878785;stop-opacity:1"
   id="stop144" />
		<stop
   offset="1"
   style="stop-color:#878785;stop-opacity:1"
   id="stop146" />
	</linearGradient>
	<polygon
   class="st7"
   points="158.5,433 208.5,258.4 34,208.4 -16,383 "
   clip-path="url(#SVGID_8_)"
   id="polygon149"
   style="fill:url(#SVGID_9_)" />
</g>
<g
   id="g159"
   transform="translate(-22.71245,-247.11245)">
	<path
   class="st8"
   d="m 96.3,247.3 c -40.5,0 -73.4,32.9 -73.4,73.4 0,40.5 32.9,73.4 73.4,73.4 40.5,0 73.4,-32.9 73.4,-73.4 0,-40.6 -32.9,-73.4 -73.4,-73.4 z m 0,138 c -35.7,0 -64.6,-28.9 -64.6,-64.6 0,-35.7 28.9,-64.6 64.6,-64.6 35.7,0 64.6,28.9 64.6,64.6 0,35.7 -29,64.6 -64.6,64.6 z"
   id="path153"
   style="fill:none;stroke:#636363;stroke-width:0.37509999;stroke-opacity:1"
   inkscape:connector-curvature="0" />
	<path
   class="st9"
   d="m 134.4,283.8 c 9.5,9.5 16.8,22.2 16.8,36.7 0,9.4 -5.8,19.5 -10.1,27.1 4.3,-7.6 8.9,-18 8.9,-27.4 0,-14.5 -7.3,-27.1 -16.8,-36.7 z"
   id="path155"
   inkscape:connector-curvature="0"
   style="fill:#fcfade" />
	<path
   class="st9"
   d="m 126.6,363.7 c 0,0 -1.6,1 -1.6,1.3 -8.4,5.6 -17.3,7.8 -28.2,7.8 14.4,1.3 24.2,-3.8 26.8,-5.7 2.5,-1.9 3,-3.4 3,-3.4"
   id="path157"
   inkscape:connector-curvature="0"
   style="fill:#fcfade" />
</g>
<g
   id="g188"
   transform="translate(-22.71245,-247.11245)">
	<defs
   id="defs162">
		<path
   id="SVGID_10_"
   d="m 46.9,320.1 c 0,27.2 22.1,49.3 49.3,49.3 21.7,0 49.7,-17.8 49.7,-49.3 0,-25.9 -25.1,-49.3 -49.7,-49.3 -27.3,0.1 -49.3,22.1 -49.3,49.3"
   inkscape:connector-curvature="0" />
	</defs>
	<clipPath
   id="SVGID_11_">
		<use
   xlink:href="#SVGID_10_"
   style="overflow:visible"
   id="use164"
   x="0"
   y="0"
   width="100%"
   height="100%" />
	</clipPath>
	
		<radialGradient
   id="SVGID_12_"
   cx="-58.306999"
   cy="659.22211"
   r="15.6298"
   gradientTransform="matrix(5.7961,0,0,5.7961,434.0647,-3456.6477)"
   gradientUnits="userSpaceOnUse">
		<stop
   offset="0"
   style="stop-color:#3f3f40;stop-opacity:1"
   id="stop167" />
		<stop
   offset="0.1985"
   style="stop-color:#424242;stop-opacity:1"
   id="stop169" />
		<stop
   offset="0.3538"
   style="stop-color:#4b4b4b;stop-opacity:1"
   id="stop171" />
		<stop
   offset="0.4944"
   style="stop-color:#595959;stop-opacity:1"
   id="stop173" />
		<stop
   offset="0.6262"
   style="stop-color:#6d6d6d;stop-opacity:1"
   id="stop175" />
		<stop
   offset="0.7521"
   style="stop-color:#858689;stop-opacity:1"
   id="stop177" />
		<stop
   offset="0.8734"
   style="stop-color:#a6a7a8;stop-opacity:1"
   id="stop179" />
		<stop
   offset="0.9891"
   style="stop-color:#caccd0;stop-opacity:1"
   id="stop181" />
		<stop
   offset="1"
   style="stop-color:#d1d1d1;stop-opacity:1"
   id="stop183" />
	</radialGradient>
	<rect
   x="46.900002"
   y="270.89999"
   class="st10"
   width="99"
   height="98.599998"
   clip-path="url(#SVGID_11_)"
   id="rect186"
   style="fill:url(#SVGID_12_)" />
</g>
<g
   id="g192"
   transform="translate(-22.71245,-247.11245)">
	<path
   class="st11"
   d="m 143.8,307.7 c -1.7,-6.4 -4.6,-12.3 -8.5,-17.4 -5.8,-7.5 -13.6,-13.3 -22.7,-16.6 -5.1,-1.8 -10.7,-2.8 -16.5,-2.8 -3.5,0 -7,0.4 -10.3,1.1 -7.8,1.7 -14.9,5.2 -20.9,10.1 -11.1,9 -18.1,22.8 -18.1,38.2 0,6.4 1.2,12.5 3.5,18.1 -1,-4 -1.6,-8.2 -1.6,-12.5 0,-13.8 5.7,-26.2 14.8,-35.2 -2.2,13.5 -5.4,36 -7.1,58.7 4.4,6.1 10.3,11.1 17,14.6 v 0.2 c 0.6,-10.1 2.1,-31.5 4.8,-58.6 0,0 7.7,37.9 15.7,62.6 h 10.9 c 10.2,-29.9 16.9,-62 16.9,-62 2.4,23.2 2.9,42.6 3.6,54 6.7,-5.2 14.8,-16 18.1,-23.9 -1.6,-16.7 -2.9,-26.5 -4.7,-37.7 2.4,3.4 3.3,5 5.1,9.1 m -43.9,13.9 c 0,0 -5.8,-18.1 -12.2,-44 3.5,-0.8 6.6,-1.2 10.3,-1.2 4.6,0 9.2,0.7 13.5,1.9 -6.4,25.6 -11.6,43.3 -11.6,43.3"
   id="path190"
   style="fill:#3f3f3f;fill-opacity:1"
   inkscape:connector-curvature="0" />
</g>
<g
   id="g241"
   transform="translate(-22.71245,-247.11245)">
	<defs
   id="defs195">
		<path
   id="SVGID_13_"
   d="m 46.9,320.1 c 0,-27.3 22,-49.3 49.3,-49.3 24.7,0 49.5,21.7 49.7,49.3 0.2,31.5 -28,49.3 -49.7,49.3 -27.4,0 -49.3,-22 -49.3,-49.3 m -16.2,0.6 c 0,36.2 29.3,65.5 65.5,65.5 36.1,0 65.5,-29.3 65.5,-65.5 0,-34.9 -31.9,-65.5 -65.5,-65.5 -36.2,0 -65.5,29.3 -65.5,65.5"
   inkscape:connector-curvature="0" />
	</defs>
	<clipPath
   id="SVGID_14_">
		<use
   xlink:href="#SVGID_13_"
   style="overflow:visible"
   id="use197"
   x="0"
   y="0"
   width="100%"
   height="100%" />
	</clipPath>
	
		<linearGradient
   id="SVGID_15_"
   gradientUnits="userSpaceOnUse"
   x1="-82.628304"
   y1="649.49762"
   x2="-66.998497"
   y2="649.49762"
   gradientTransform="matrix(5.1868,-5.3333,5.3333,5.1868,-2981.9771,-3444.8984)">
		<stop
   offset="0"
   style="stop-color:#d5d5d5;stop-opacity:1"
   id="stop200" />
		<stop
   offset="1.577569e-002"
   style="stop-color:#d5d5d5;stop-opacity:1"
   id="stop202" />
		<stop
   offset="4.379293e-002"
   style="stop-color:#d5d5d5;stop-opacity:1"
   id="stop204" />
		<stop
   offset="8.052620e-002"
   style="stop-color:#d5d5d5;stop-opacity:1"
   id="stop206" />
		<stop
   offset="9.550480e-002"
   style="stop-color:#d5d5d5;stop-opacity:1"
   id="stop208" />
		<stop
   offset="0.1079"
   style="stop-color:#d5d5d5;stop-opacity:1"
   id="stop210" />
		<stop
   offset="0.2358"
   style="stop-color:#a5a5a5;stop-opacity:1"
   id="stop212" />
		<stop
   offset="0.3423"
   style="stop-color:#a5a5a5;stop-opacity:1"
   id="stop214" />
		<stop
   offset="0.4222"
   style="stop-color:#a5a5a5;stop-opacity:1"
   id="stop216" />
		<stop
   offset="0.4663"
   style="stop-color:#a5a5a5;stop-opacity:1"
   id="stop218" />
		<stop
   offset="0.5154"
   style="stop-color:#a5a5a5;stop-opacity:1"
   id="stop220" />
		<stop
   offset="0.6139"
   style="stop-color:#a8a8a8;stop-opacity:1"
   id="stop222" />
		<stop
   offset="0.7416"
   style="stop-color:#a8a8a8;stop-opacity:1"
   id="stop224" />
		<stop
   offset="0.7656"
   style="stop-color:#a8a8a8;stop-opacity:1"
   id="stop226" />
		<stop
   offset="0.8206"
   style="stop-color:#a8a8a8;stop-opacity:1"
   id="stop228" />
		<stop
   offset="0.8732"
   style="stop-color:#a8a8a8;stop-opacity:1"
   id="stop230" />
		<stop
   offset="0.922"
   style="stop-color:#a8a8a8;stop-opacity:1"
   id="stop232" />
		<stop
   offset="0.9657"
   style="stop-color:#a8a8a8;stop-opacity:1"
   id="stop234" />
		<stop
   offset="1"
   style="stop-color:#6f6f6f;stop-opacity:1"
   id="stop236" />
	</linearGradient>
	<polygon
   class="st12"
   points="94.3,189.8 -34.8,322.5 98,451.6 227.1,318.9 "
   clip-path="url(#SVGID_14_)"
   id="polygon239"
   style="fill:url(#SVGID_15_)" />
</g>
<g
   id="g245"
   transform="translate(-22.71245,-247.11245)">
	<path
   class="st13"
   d="m 96.1,255.2 c -36.2,0 -65.5,29.3 -65.5,65.5 0,36.2 29.3,65.5 65.5,65.5 36.2,0 65.5,-29.3 65.5,-65.5 0,-34.9 -31.8,-65.5 -65.5,-65.5 z m 0,114.2 c -27.3,0 -49.3,-22 -49.3,-49.3 0,-27.3 22,-49.3 49.3,-49.3 24.7,0 49.6,21.7 49.7,49.3 0.3,31.5 -27.9,49.3 -49.7,49.3 z"
   id="path243"
   style="fill:none;stroke:#4a463e;stroke-width:0.68769997;stroke-opacity:1"
   inkscape:connector-curvature="0" />
</g>
<g
   id="g276"
   transform="translate(-22.71245,-247.11245)">
	<defs
   id="defs248">
		<path
   id="SVGID_16_"
   d="m 98.9,320.1 c 0,0 -6.7,-19.8 -14,-47.7 l -2.8,-2.9 -19.7,7.1 c 0,0 -7.4,36.9 -10.2,73.9 l 15.3,13.3 3.1,-1.4 c 0.7,-10.4 2.2,-31.4 5.1,-58.1 0,0 8.2,38.5 16.1,61.6 l 11.3,0.2 c 7.8,-23.1 18.1,-61.1 18.1,-61.1 4.2,38.3 5.6,65.1 5.6,65.1 L 141,347.5 c 0.2,-3.3 0.6,-6.1 0.6,-6.1 -1.7,-15.8 -4,-38.5 -5.8,-49.3 0,0 -2.6,-6.8 -3.3,-8.9 -1.3,-4 0.9,-6.1 0.9,-6.1 L 114,266 c -7.7,31.5 -15.1,54.1 -15.1,54.1"
   inkscape:connector-curvature="0" />
	</defs>
	<clipPath
   id="SVGID_17_">
		<use
   xlink:href="#SVGID_16_"
   style="overflow:visible"
   id="use250"
   x="0"
   y="0"
   width="100%"
   height="100%" />
	</clipPath>
	
		<linearGradient
   id="SVGID_18_"
   gradientUnits="userSpaceOnUse"
   x1="-120.3826"
   y1="654.2821"
   x2="-104.7528"
   y2="654.2821"
   gradientTransform="matrix(0,-3.0777,3.0777,0,-1916.7083,-9.1354)">
		<stop
   offset="0"
   style="stop-color:#8a8a89;stop-opacity:1"
   id="stop253" />
		<stop
   offset="6.435696e-002"
   style="stop-color:#8a8a89;stop-opacity:1"
   id="stop255" />
		<stop
   offset="0.1762"
   style="stop-color:#8a8a89;stop-opacity:1"
   id="stop257" />
		<stop
   offset="0.2416"
   style="stop-color:#8a8a89;stop-opacity:1"
   id="stop259" />
		<stop
   offset="0.4538"
   style="stop-color:#8a8a89;stop-opacity:1"
   id="stop261" />
		<stop
   offset="0.5787"
   style="stop-color:#8a8a89;stop-opacity:1"
   id="stop263" />
		<stop
   offset="0.6691"
   style="stop-color:#8a8a89;stop-opacity:1"
   id="stop265" />
		<stop
   offset="0.8132"
   style="stop-color:#8a8a89;stop-opacity:1"
   id="stop267" />
		<stop
   offset="0.9286"
   style="stop-color:#8a8a89;stop-opacity:1"
   id="stop269" />
		<stop
   offset="1"
   style="stop-color:#8a8a89;stop-opacity:1"
   id="stop271" />
	</linearGradient>
	<rect
   x="52.299999"
   y="266.10001"
   class="st14"
   width="89.400002"
   height="104"
   clip-path="url(#SVGID_17_)"
   id="rect274"
   style="fill:url(#SVGID_18_)" />
</g>
<g
   id="g321"
   transform="translate(-22.71245,-247.11245)">
	<defs
   id="defs279">
		<path
   id="SVGID_19_"
   d="m 67.6,363.9 c 0.6,-9.3 2.4,-34.3 5.5,-63.1 0,0 11.9,40.4 19.7,63.5 h 9.1 c 10,-31.4 19,-62.9 19,-62.9 2.9,26.5 3.1,48.8 3.8,59.2 0,0.5 1.9,3.2 1.9,3.2 0,0 -1.6,1 -1.6,1.3 -8.4,5.6 -17.3,7.8 -28.2,7.8 -10.8,-0.1 -20.9,-3.4 -29.2,-9 m 73,-15.3 c -2.1,-24.3 -6.3,-53.7 -8.4,-66 0,-0.3 0.2,0 0.5,0.4 0.3,0.4 0.5,0.8 0.5,0.5 9.5,9.5 16.8,22.2 16.8,36.7 0,9.4 -4.5,19.8 -8.8,27.4 0,-0.2 -0.2,0.2 -0.3,0.5 -0.2,0.2 -0.3,0.5 -0.3,0.5 0,0 0,0 0,0 M 44.2,320.1 c 0,-14.5 5.9,-27.6 15.4,-37.2 l 1.5,-1 c -2.1,12.5 -6.9,41.7 -9,66.5 -4.4,-7.6 -7.9,-18.9 -7.9,-28.3 m 37.9,-50.5 c 4.7,-1.4 9.6,-2.1 14.7,-2.1 5.1,0 10,0.7 14.7,2.1 l 1.3,0.5 c -8.6,28 -15.7,53 -15.7,53 0,0 -7.5,-24.2 -15,-53.5 m -48.3,50.5 c 0,34.8 28.2,63.1 63.1,63.1 34.9,0 63.1,-28.2 63.1,-63.1 C 160,286.5 129.2,257 96.9,257 62,257 33.8,285.3 33.8,320.1"
   inkscape:connector-curvature="0" />
	</defs>
	<clipPath
   id="SVGID_20_">
		<use
   xlink:href="#SVGID_19_"
   style="overflow:visible"
   id="use281"
   x="0"
   y="0"
   width="100%"
   height="100%" />
	</clipPath>
	
		<linearGradient
   id="SVGID_21_"
   gradientUnits="userSpaceOnUse"
   x1="-63.5462"
   y1="626.96289"
   x2="-47.916401"
   y2="626.96289"
   gradientTransform="matrix(1.5871,9.4329,-9.4329,1.5871,6100.3687,-143.4435)">
		<stop
   offset="0"
   style="stop-color:#EDBE60"
   id="stop284" />
		<stop
   offset="5.618290e-002"
   style="stop-color:#EDBE60"
   id="stop286" />
		<stop
   offset="0.2118"
   style="stop-color:#F3D265"
   id="stop288" />
		<stop
   offset="0.2528"
   style="stop-color:#F5D867"
   id="stop290" />
		<stop
   offset="0.3129"
   style="stop-color:#EFCB5A"
   id="stop292" />
		<stop
   offset="0.4663"
   style="stop-color:#E0AE3C"
   id="stop294" />
		<stop
   offset="0.4957"
   style="stop-color:#D8A539"
   id="stop296" />
		<stop
   offset="0.5883"
   style="stop-color:#C48E2F"
   id="stop298" />
		<stop
   offset="0.6461"
   style="stop-color:#BD852C"
   id="stop300" />
		<stop
   offset="0.6936"
   style="stop-color:#C28D30"
   id="stop302" />
		<stop
   offset="0.7655"
   style="stop-color:#D1A13C"
   id="stop304" />
		<stop
   offset="0.8524"
   style="stop-color:#EAC350"
   id="stop306" />
		<stop
   offset="0.8876"
   style="stop-color:#F5D359"
   id="stop308" />
		<stop
   offset="0.894"
   style="stop-color:#F1CD56"
   id="stop310" />
		<stop
   offset="0.941"
   style="stop-color:#D6A340"
   id="stop312" />
		<stop
   offset="0.9779"
   style="stop-color:#C68A32"
   id="stop314" />
		<stop
   offset="1"
   style="stop-color:#C0802D"
   id="stop316" />
	</linearGradient>
	<polygon
   class="st15"
   points="180.6,379.7 156.4,236.4 13.1,260.5 37.2,403.8 "
   clip-path="url(#SVGID_20_)"
   id="polygon319"
   style="fill:#b3b3b3" />
</g>
<g
   id="g349"
   transform="translate(-22.71245,-247.11245)">
	<path
   class="st16"
   d="m 52.1,348.4 c 2.7,-26.9 7.5,-56.3 9,-66.5 l -2.4,6.4 c -2.1,12.1 -5.2,32 -7.2,52.8 z"
   id="path323"
   style="fill:#c7c7c7;fill-opacity:1"
   inkscape:connector-curvature="0" />
	<path
   class="st17"
   d="m 73.1,300.8 c 0,0 11.9,40.4 19.8,63.5 l -0.9,1.8 c -5.7,-16.7 -13.1,-41.8 -16.8,-54.5 -0.8,-3.2 -1.4,-6.2 -1.4,-6.2 z"
   id="path325"
   style="fill:#d7d5cd;fill-opacity:1"
   inkscape:connector-curvature="0" />
	<path
   class="st16"
   d="m 97.2,323 c 0,0 7.9,-24.1 15.7,-53 l -2.3,3 c -5.4,21 -10.6,37.3 -12.8,43.9 z"
   id="path327"
   style="fill:#c7c7c7;fill-opacity:1"
   inkscape:connector-curvature="0" />
	<path
   class="st16"
   d="m 120.9,301.3 c 3.1,28.8 5.1,53.1 5.7,62.4 l -1.9,-3.2 c -0.7,-10.3 -2,-28.4 -4.4,-51.1 z"
   id="path329"
   style="fill:#c7c7c7;fill-opacity:1"
   inkscape:connector-curvature="0" />
	<path
   class="st18"
   d="m 112.9,270.1 c -3.4,-1.6 -9.1,-3.5 -16.8,-3.2 -5.1,0.2 -8.6,0.6 -14,2.7 4.7,-1.4 9.6,-2.1 14.7,-2.1 5.1,0 11.4,1.2 16.1,2.6"
   id="path331"
   style="fill:#ebebea;fill-opacity:1"
   inkscape:connector-curvature="0" />
	<path
   class="st9"
   d="m 53.2,345.7 -1.2,2.8 c 2.7,-26.9 7.5,-56.3 9,-66.5 0,-0.1 -2.2,21.9 -7.8,63.7"
   id="path333"
   style="fill:#eeeeec;fill-opacity:1"
   inkscape:connector-curvature="0" />
	<path
   class="st9"
   d="m 75.4,309.2 16.8,53.4 C 88.5,342.3 75.4,309.2 75.4,309.2"
   id="path335"
   style="fill:#ededed;fill-opacity:1"
   inkscape:connector-curvature="0" />
	<path
   class="st9"
   d="m 122,309.3 c 2,21.5 4.4,51.5 4.4,51.5 1.2,-25.9 -4.4,-51.5 -4.4,-51.5"
   id="path337"
   style="fill:#ededed;fill-opacity:1"
   inkscape:connector-curvature="0" />
	<path
   class="st9"
   d="m 35.7,303.4 c 0,0 0.2,0.2 0,0 6.6,-16.1 11.6,-22.3 21,-31.4 l -2.6,2.1 c -13.7,11 -17.8,25.6 -18.4,29.3 -0.6,3.7 0,0 0,0"
   id="path339"
   style="fill:#ededed;fill-opacity:1"
   inkscape:connector-curvature="0" />
	<path
   class="st9"
   d="m 112.8,272 c -1.9,15.6 -15.6,51 -15.6,51 z"
   id="path341"
   style="fill:#ededed;fill-opacity:1"
   inkscape:connector-curvature="0" />
	<path
   class="st19"
   d="m 67.9,361 c 1.3,-19.3 4.7,-54.6 4.7,-54.6 C 67,341 67.9,361 67.9,361"
   id="path343"
   style="fill:#707070;fill-opacity:1"
   inkscape:connector-curvature="0" />
	<path
   class="st19"
   d="m 140.2,347.6 c -3,-37.6 -5.8,-51 -5.8,-51 0,0 3.1,37.1 3.8,41.2 0.5,4 2,9.8 2,9.8"
   id="path345"
   style="fill:#707070;fill-opacity:1"
   inkscape:connector-curvature="0" />
	<path
   class="st19"
   d="m 101.9,364.2 c 4,-12 17.1,-54.8 17.1,-54.8 -11.5,32.2 -17.1,54.8 -17.1,54.8"
   id="path347"
   style="fill:#707070;fill-opacity:1"
   inkscape:connector-curvature="0" />
</g>
<g
   id="g386"
   transform="translate(-22.71245,-247.11245)">
	<defs
   id="defs352">
		<path
   id="SVGID_22_"
   d="m 29.6,320.8 c 0,-37 29.8,-67.1 66.6,-67.1 36.8,0 66.6,30 66.6,67.1 0,37 -29.8,67 -66.6,67 -36.8,0 -66.6,-29.9 -66.6,-67 m -4.6,0 c 0,39.6 31.9,71.7 71.2,71.7 39.3,0 71.2,-32.1 71.2,-71.7 0,-39.6 -31.9,-71.7 -71.2,-71.7 -39.3,0 -71.2,32.1 -71.2,71.7"
   inkscape:connector-curvature="0" />
	</defs>
	<clipPath
   id="SVGID_23_">
		<use
   xlink:href="#SVGID_22_"
   style="overflow:visible"
   id="use354"
   x="0"
   y="0"
   width="100%"
   height="100%" />
	</clipPath>
	
		<linearGradient
   id="SVGID_24_"
   gradientUnits="userSpaceOnUse"
   x1="-66.172096"
   y1="638.33221"
   x2="-50.542301"
   y2="638.33221"
   gradientTransform="matrix(9.4356,5.326,-5.326,9.4356,4050.4021,-5389.3042)">
		<stop
   offset="0"
   style="stop-color:#898989;stop-opacity:1"
   id="stop357" />
		<stop
   offset="2.972045e-002"
   style="stop-color:#8f8f8f;stop-opacity:1"
   id="stop359" />
		<stop
   offset="7.854547e-002"
   style="stop-color:#a0a0a0;stop-opacity:1"
   id="stop361" />
		<stop
   offset="0.1404"
   style="stop-color:#bbbbbb;stop-opacity:1"
   id="stop363" />
		<stop
   offset="0.2079"
   style="stop-color:#dddddd;stop-opacity:1"
   id="stop365" />
		<stop
   offset="0.4663"
   style="stop-color:#999999;stop-opacity:1"
   id="stop367" />
		<stop
   offset="0.5316"
   style="stop-color:#a7a7a7;stop-opacity:1"
   id="stop369" />
		<stop
   offset="0.6688"
   style="stop-color:#c9c9c9;stop-opacity:1"
   id="stop371" />
		<stop
   offset="0.7416"
   style="stop-color:#dcdcdc;stop-opacity:1"
   id="stop373" />
		<stop
   offset="0.8219"
   style="stop-color:#bbbbbb;stop-opacity:1"
   id="stop375" />
		<stop
   offset="0.9009"
   style="stop-color:#9f9f9f;stop-opacity:1"
   id="stop377" />
		<stop
   offset="0.9628"
   style="stop-color:#D69C47"
   id="stop379" />
		<stop
   offset="1"
   style="stop-color:#888888;stop-opacity:1"
   id="stop381" />
	</linearGradient>
	<polygon
   class="st20"
   points="228.8,283.8 59.5,188.2 -36.3,357.9 133,453.5 "
   clip-path="url(#SVGID_23_)"
   id="polygon384"
   style="fill:url(#SVGID_24_)" />
</g>
<g
   id="g390"
   transform="translate(-22.71245,-247.11245)">
	<path
   class="st5"
   d="m 96.3,249.1 c -39.3,0 -71.2,32.1 -71.2,71.7 0,39.6 31.9,71.7 71.2,71.7 39.3,0 71.2,-32.1 71.2,-71.7 0,-39.6 -31.9,-71.7 -71.2,-71.7 z m 0,138.8 c -36.8,0 -66.6,-30 -66.6,-67 0,-37 29.8,-67.1 66.6,-67.1 36.8,0 66.6,30 66.6,67.1 0,36.9 -29.9,67 -66.6,67 z"
   id="path388"
   style="fill:none;stroke:#838383;stroke-width:0.35949999;stroke-opacity:1"
   inkscape:connector-curvature="0" />
</g>
<g
   id="g423"
   transform="translate(-22.71245,-247.11245)">
	<defs
   id="defs393">
		<path
   id="SVGID_25_"
   d="m 92.6,248.6 c -19.3,1.2 -37.1,10 -49.9,24.6 -12.8,14.7 -19.1,32.9 -17.8,52.4 0,0.2 0.3,2.2 0.5,2.2 0.2,0 0.1,-1.4 0.1,-1.6 -1.2,-19.3 5.1,-37.9 17.8,-52.4 12.7,-14.5 30.2,-23.6 49.3,-24.8 0.3,0 1.2,0 1.2,-0.2 0,-0.1 -0.3,-0.2 -0.6,-0.2 -0.2,0 -0.5,0 -0.6,0"
   inkscape:connector-curvature="0" />
	</defs>
	<clipPath
   id="SVGID_26_">
		<use
   xlink:href="#SVGID_25_"
   style="overflow:visible"
   id="use395"
   x="0"
   y="0"
   width="100%"
   height="100%" />
	</clipPath>
	
		<linearGradient
   id="SVGID_27_"
   gradientUnits="userSpaceOnUse"
   x1="-69.7509"
   y1="651.64441"
   x2="-54.121101"
   y2="651.64441"
   gradientTransform="matrix(4.4093,0,0,4.4093,332.429,-2585.0344)">
		<stop
   offset="0"
   style="stop-color:#F2DE7F"
   id="stop398" />
		<stop
   offset="8.924518e-003"
   style="stop-color:#F2DF82"
   id="stop400" />
		<stop
   offset="0.1757"
   style="stop-color:#F8ECB1"
   id="stop402" />
		<stop
   offset="0.3228"
   style="stop-color:#FCF6D4"
   id="stop404" />
		<stop
   offset="0.4434"
   style="stop-color:#FEFCE9"
   id="stop406" />
		<stop
   offset="0.5225"
   style="stop-color:#FFFEF1"
   id="stop408" />
		<stop
   offset="0.5883"
   style="stop-color:#FEFAE9"
   id="stop410" />
		<stop
   offset="0.6931"
   style="stop-color:#FDF0D1"
   id="stop412" />
		<stop
   offset="0.824"
   style="stop-color:#FAE0AC"
   id="stop414" />
		<stop
   offset="0.9744"
   style="stop-color:#F6CA78"
   id="stop416" />
		<stop
   offset="1"
   style="stop-color:#F5C66E"
   id="stop418" />
	</linearGradient>
	<rect
   x="23.700001"
   y="248.60001"
   class="st21"
   width="70.199997"
   height="79.300003"
   clip-path="url(#SVGID_26_)"
   id="rect421"
   style="fill:#b3b3b3" />
</g>
<g
   id="g456"
   transform="translate(-22.71245,-247.11245)">
	<defs
   id="defs426">
		<path
   id="SVGID_28_"
   d="m 162.3,317.5 c 1.1,17.4 -4.6,34.3 -16.1,47.4 -11.4,13.1 -27.2,21.4 -44.5,22.5 -0.2,0 -1.1,0 -1.1,0.2 0,0.2 0.9,0.1 1.1,0.1 17.5,-1.1 33.5,-9 45.1,-22.3 11.6,-13.3 17.2,-29.7 16.1,-47.4 0,-0.2 -0.3,-2 -0.5,-2 -0.2,0 -0.1,1.3 -0.1,1.5"
   inkscape:connector-curvature="0" />
	</defs>
	<clipPath
   id="SVGID_29_">
		<use
   xlink:href="#SVGID_28_"
   style="overflow:visible"
   id="use428"
   x="0"
   y="0"
   width="100%"
   height="100%" />
	</clipPath>
	
		<linearGradient
   id="SVGID_30_"
   gradientUnits="userSpaceOnUse"
   x1="-102.679"
   y1="595.3576"
   x2="-87.049202"
   y2="595.3576"
   gradientTransform="matrix(-3.9886,0,0,-3.9886,-246.5904,2726.5161)">
		<stop
   offset="0"
   style="stop-color:#d7d6d5;stop-opacity:1"
   id="stop431" />
		<stop
   offset="8.924518e-003"
   style="stop-color:#d7d6d5;stop-opacity:1"
   id="stop433" />
		<stop
   offset="0.1757"
   style="stop-color:#d7d6d5;stop-opacity:1"
   id="stop435" />
		<stop
   offset="0.3228"
   style="stop-color:#d7d6d5;stop-opacity:1"
   id="stop437" />
		<stop
   offset="0.4434"
   style="stop-color:#d7d6d5;stop-opacity:1"
   id="stop439" />
		<stop
   offset="0.5225"
   style="stop-color:#d7d6d5;stop-opacity:1"
   id="stop441" />
		<stop
   offset="0.5883"
   style="stop-color:#d7d6d5;stop-opacity:1"
   id="stop443" />
		<stop
   offset="0.6931"
   style="stop-color:#d7d6d5;stop-opacity:1"
   id="stop445" />
		<stop
   offset="0.824"
   style="stop-color:#d7d6d5;stop-opacity:1"
   id="stop447" />
		<stop
   offset="0.9744"
   style="stop-color:#d7d6d5;stop-opacity:1"
   id="stop449" />
		<stop
   offset="1"
   style="stop-color:#d7d6d5;stop-opacity:1"
   id="stop451" />
	</linearGradient>
	<rect
   x="100.6"
   y="316"
   class="st22"
   width="63.400002"
   height="71.699997"
   clip-path="url(#SVGID_29_)"
   id="rect454"
   style="fill:url(#SVGID_30_)" />
</g>
<g
   id="g489"
   transform="translate(-22.71245,-247.11245)">
	<defs
   id="defs459">
		<path
   id="SVGID_31_"
   d="m 166.7,317.2 c 1.1,18.8 -5.1,36.9 -17.5,51 -12.4,14.1 -29.5,22.6 -48.3,23.8 -0.2,0 -0.6,0.1 -0.6,0.3 0,0.2 0.3,0.2 0.5,0.2 19,-1.2 36.4,-9.6 49,-23.8 12.6,-14.3 18.6,-32.8 17.4,-51.8 0,-0.2 -0.1,-0.6 -0.3,-0.6 -0.2,0.1 -0.2,0.7 -0.2,0.9"
   inkscape:connector-curvature="0" />
	</defs>
	<clipPath
   id="SVGID_32_">
		<use
   xlink:href="#SVGID_31_"
   style="overflow:visible"
   id="use461"
   x="0"
   y="0"
   width="100%"
   height="100%" />
	</clipPath>
	
		<linearGradient
   id="SVGID_33_"
   gradientUnits="userSpaceOnUse"
   x1="-53.224602"
   y1="666.75702"
   x2="-37.5947"
   y2="666.75702"
   gradientTransform="matrix(4.2768,0,0,4.2768,327.9833,-2497.0542)">
		<stop
   offset="0"
   style="stop-color:#9b9889;stop-opacity:1"
   id="stop464" />
		<stop
   offset="9.550480e-002"
   style="stop-color:#9b9889;stop-opacity:1"
   id="stop466" />
		<stop
   offset="0.09699158"
   style="stop-color:#9b9889;stop-opacity:1"
   id="stop468" />
		<stop
   offset="0.2182"
   style="stop-color:#9b9889;stop-opacity:1"
   id="stop470" />
		<stop
   offset="0.32449999"
   style="stop-color:#9b9889;stop-opacity:1"
   id="stop472" />
		<stop
   offset="0.411735"
   style="stop-color:#9b9889;stop-opacity:1"
   id="stop474" />
		<stop
   offset="0.4663"
   style="stop-color:#9b9889;stop-opacity:1"
   id="stop476" />
		<stop
   offset="0.5598"
   style="stop-color:#9b9889;stop-opacity:1"
   id="stop478" />
		<stop
   offset="0.6979"
   style="stop-color:#9b9889;stop-opacity:1"
   id="stop480" />
		<stop
   offset="0.8628"
   style="stop-color:#9b9889;stop-opacity:1"
   id="stop482" />
		<stop
   offset="1"
   style="stop-color:#9b9889;stop-opacity:1"
   id="stop484" />
	</linearGradient>
	<rect
   x="100.4"
   y="316.39999"
   class="st23"
   width="68.099998"
   height="76.199997"
   clip-path="url(#SVGID_32_)"
   id="rect487"
   style="fill:url(#SVGID_33_)" />
</g>
<g
   id="g522"
   transform="translate(-22.71245,-247.11245)">
	<defs
   id="defs492">
		<path
   id="SVGID_34_"
   d="m 24.7,321.2 c 0.2,19.4 8,37.5 22,51.1 14,13.6 31.8,20.8 51.4,20.6 0.3,0 2.3,-0.2 2.2,-0.4 0,-0.2 -1.4,-0.2 -1.6,-0.2 -19.3,0.2 -37.6,-7.1 -51.4,-20.5 -13.8,-13.4 -22,-31.3 -22.2,-50.5 0,-0.2 0.1,-1.2 -0.2,-1.2 -0.2,-0.1 -0.2,0.8 -0.2,1.1"
   inkscape:connector-curvature="0" />
	</defs>
	<clipPath
   id="SVGID_35_">
		<use
   xlink:href="#SVGID_34_"
   style="overflow:visible"
   id="use494"
   x="0"
   y="0"
   width="100%"
   height="100%" />
	</clipPath>
	
		<linearGradient
   id="SVGID_36_"
   gradientUnits="userSpaceOnUse"
   x1="-110.9424"
   y1="642.00787"
   x2="-95.3125"
   y2="642.00787"
   gradientTransform="matrix(0.2303,-4.406,4.406,0.2303,-2742.3762,-245.7864)">
		<stop
   offset="0"
   style="stop-color:#d6d6d6;stop-opacity:1"
   id="stop497" />
		<stop
   offset="8.924518e-003"
   style="stop-color:#d6d6d6;stop-opacity:1"
   id="stop499" />
		<stop
   offset="0.1757"
   style="stop-color:#d6d6d6;stop-opacity:1"
   id="stop501" />
		<stop
   offset="0.3228"
   style="stop-color:#d6d6d6;stop-opacity:1"
   id="stop503" />
		<stop
   offset="0.4434"
   style="stop-color:#d6d6d6;stop-opacity:1"
   id="stop505" />
		<stop
   offset="0.5225"
   style="stop-color:#d6d6d6;stop-opacity:1"
   id="stop507" />
		<stop
   offset="0.5883"
   style="stop-color:#d6d6d6;stop-opacity:1"
   id="stop509" />
		<stop
   offset="0.6931"
   style="stop-color:#d6d6d6;stop-opacity:1"
   id="stop511" />
		<stop
   offset="0.824"
   style="stop-color:#d6d6d6;stop-opacity:1"
   id="stop513" />
		<stop
   offset="0.9744"
   style="stop-color:#d6d6d6;stop-opacity:1"
   id="stop515" />
		<stop
   offset="1"
   style="stop-color:#d6d6d6;stop-opacity:1"
   id="stop517" />
	</linearGradient>
	<polygon
   class="st24"
   points="24.9,316 20.9,392.8 100.2,397 104.2,320.2 "
   clip-path="url(#SVGID_35_)"
   id="polygon520"
   style="fill:url(#SVGID_36_)" />
</g>
<g
   id="g555"
   transform="translate(-22.71245,-247.11245)">
	<defs
   id="defs525">
		<path
   id="SVGID_37_"
   d="m 101.7,253.8 c 0,0.2 1.3,0.4 1.5,0.4 17.7,2.2 33.5,11 44.6,24.8 9.8,12.2 15.2,27.1 14.9,42.5 -0.1,1.9 0.3,1.6 0.3,-0.6 0.3,-15.3 -4.8,-30.1 -14.6,-42.3 -11.2,-13.9 -26.7,-22.6 -44.5,-24.8 -0.1,0 -0.5,0 -0.9,0 -0.7,-0.1 -1.3,-0.1 -1.3,0"
   inkscape:connector-curvature="0" />
	</defs>
	<clipPath
   id="SVGID_38_">
		<use
   xlink:href="#SVGID_37_"
   style="overflow:visible"
   id="use527"
   x="0"
   y="0"
   width="100%"
   height="100%" />
	</clipPath>
	
		<linearGradient
   id="SVGID_39_"
   gradientUnits="userSpaceOnUse"
   x1="-59.1091"
   y1="600.28943"
   x2="-43.479198"
   y2="600.28943"
   gradientTransform="matrix(-0.6628,3.5929,-3.5929,-0.6628,2255.3354,870.1829)">
		<stop
   offset="0"
   style="stop-color:#d6d6d6;stop-opacity:1"
   id="stop530" />
		<stop
   offset="8.924518e-003"
   style="stop-color:#d6d6d6;stop-opacity:1"
   id="stop532" />
		<stop
   offset="0.1757"
   style="stop-color:#d6d6d6;stop-opacity:1"
   id="stop534" />
		<stop
   offset="0.3228"
   style="stop-color:#d6d6d6;stop-opacity:1"
   id="stop536" />
		<stop
   offset="0.4434"
   style="stop-color:#d6d6d6;stop-opacity:1"
   id="stop538" />
		<stop
   offset="0.5225"
   style="stop-color:#d6d6d6;stop-opacity:1"
   id="stop540" />
		<stop
   offset="0.5883"
   style="stop-color:#d6d6d6;stop-opacity:1"
   id="stop542" />
		<stop
   offset="0.6931"
   style="stop-color:#d6d6d6;stop-opacity:1"
   id="stop544" />
		<stop
   offset="0.824"
   style="stop-color:#d6d6d6;stop-opacity:1"
   id="stop546" />
		<stop
   offset="0.9744"
   style="stop-color:#d6d6d6;stop-opacity:1"
   id="stop548" />
		<stop
   offset="1"
   style="stop-color:#d6d6d6;stop-opacity:1"
   id="stop550" />
	</linearGradient>
	<polygon
   class="st25"
   points="161.2,334.3 175.7,256 103.7,242.7 89.2,321.1 "
   clip-path="url(#SVGID_38_)"
   id="polygon553"
   style="fill:url(#SVGID_39_)" />
</g>
<g
   id="g588"
   transform="translate(-22.71245,-247.11245)">
	<defs
   id="defs558">
		<path
   id="SVGID_40_"
   d="m 30.2,326.4 c 0.7,15.3 6.5,29.3 17.2,40.8 12,12.9 27.7,20.3 45.4,21.1 0.2,0 2,-0.1 2,-0.3 0,-0.2 -1.3,-0.2 -1.5,-0.2 C 75.8,387 59.7,379.6 47.9,366.8 37.3,355.3 30.8,341.2 30.2,325.9 Z m 0,-5.7 c 0,-0.1 0,-0.2 0,-0.2 0,0 0,0.1 0,0.2"
   inkscape:connector-curvature="0" />
	</defs>
	<clipPath
   id="SVGID_41_">
		<use
   xlink:href="#SVGID_40_"
   style="overflow:visible"
   id="use560"
   x="0"
   y="0"
   width="100%"
   height="100%" />
	</clipPath>
	
		<linearGradient
   id="SVGID_42_"
   gradientUnits="userSpaceOnUse"
   x1="-114.4796"
   y1="645.36823"
   x2="-98.849701"
   y2="645.36823"
   gradientTransform="matrix(0.409,-3.8546,3.8546,0.409,-2381.5371,-320.4861)">
		<stop
   offset="0"
   style="stop-color:#949390;stop-opacity:1"
   id="stop563" />
		<stop
   offset="9.550480e-002"
   style="stop-color:#949390;stop-opacity:1"
   id="stop565" />
		<stop
   offset="9.699158e-002"
   style="stop-color:#949390;stop-opacity:1"
   id="stop567" />
		<stop
   offset="0.2182"
   style="stop-color:#949390;stop-opacity:1"
   id="stop569" />
		<stop
   offset="0.3245"
   style="stop-color:#949390;stop-opacity:1"
   id="stop571" />
		<stop
   offset="0.4108"
   style="stop-color:#949390;stop-opacity:1"
   id="stop573" />
		<stop
   offset="0.4663"
   style="stop-color:#949390;stop-opacity:1"
   id="stop575" />
		<stop
   offset="0.5598"
   style="stop-color:#949390;stop-opacity:1"
   id="stop577" />
		<stop
   offset="0.6979"
   style="stop-color:#949390;stop-opacity:1"
   id="stop579" />
		<stop
   offset="0.8628"
   style="stop-color:#949390;stop-opacity:1"
   id="stop581" />
		<stop
   offset="1"
   style="stop-color:#949390;stop-opacity:1"
   id="stop583" />
	</linearGradient>
	<polygon
   class="st26"
   points="30.9,313.8 23.1,387.5 94.1,395 101.9,321.3 "
   clip-path="url(#SVGID_41_)"
   id="polygon586"
   style="fill:url(#SVGID_42_)" />
</g>
<g
   id="g621"
   transform="translate(-22.71245,-247.11245)">
	<defs
   id="defs591">
		<path
   id="SVGID_43_"
   d="m 93.4,248.7 c -0.2,0 -0.6,0 -0.6,0.3 0,0.2 0.6,0.3 0.8,0.3 18.8,-0.8 36.8,5.9 50.6,18.7 13.8,12.8 21.9,30 22.7,48.8 0,0.2 0.1,0.6 0.3,0.5 0.2,0 0.3,-0.3 0.2,-0.5 -0.7,-19 -8.7,-36.6 -22.7,-49.5 -13.3,-12.3 -30.4,-18.6 -48.4,-18.6 -1,-0.1 -1.9,-0.1 -2.9,0"
   inkscape:connector-curvature="0" />
	</defs>
	<clipPath
   id="SVGID_44_">
		<use
   xlink:href="#SVGID_43_"
   style="overflow:visible"
   id="use593"
   x="0"
   y="0"
   width="100%"
   height="100%" />
	</clipPath>
	
		<linearGradient
   id="SVGID_45_"
   gradientUnits="userSpaceOnUse"
   x1="-95.874496"
   y1="655.71033"
   x2="-80.244698"
   y2="655.71033"
   gradientTransform="matrix(0.0975527,-4.2776,4.2776,0.0975527,-2666.1248,-157.6552)">
		<stop
   offset="0"
   style="stop-color:#F1DE89"
   id="stop596" />
		<stop
   offset="9.550480e-002"
   style="stop-color:#F1DE89"
   id="stop598" />
		<stop
   offset="9.699158e-002"
   style="stop-color:#F1DD88"
   id="stop600" />
		<stop
   offset="0.2182"
   style="stop-color:#CFAC60"
   id="stop602" />
		<stop
   offset="0.3245"
   style="stop-color:#B68842"
   id="stop604" />
		<stop
   offset="0.4108"
   style="stop-color:#A77230"
   id="stop606" />
		<stop
   offset="0.4663"
   style="stop-color:#A26A29"
   id="stop608" />
		<stop
   offset="0.5598"
   style="stop-color:#A8712E"
   id="stop610" />
		<stop
   offset="0.6979"
   style="stop-color:#BA853D"
   id="stop612" />
		<stop
   offset="0.8628"
   style="stop-color:#D8A655"
   id="stop614" />
		<stop
   offset="1"
   style="stop-color:#F5C66D"
   id="stop616" />
	</linearGradient>
	<polygon
   class="st27"
   points="92.8,246.7 91.2,317.2 167.5,318.9 169.1,248.5 "
   clip-path="url(#SVGID_44_)"
   id="polygon619"
   style="fill:#b3b3b3" />
</g>
<g
   id="g627"
   transform="translate(-22.71245,-247.11245)">
	<path
   class="st28"
   d="M 86.1,387 C 50.9,381.6 26.5,346 32,310.7 37.4,275.4 71.3,249 106.5,254.4 70.1,248.8 36.1,274 30.5,310.5 24.8,347.2 49.7,381.4 86.1,387"
   id="path623"
   style="fill:#636363;fill-opacity:1"
   inkscape:connector-curvature="0" />
	<path
   class="st29"
   d="m 162.2,330.9 c 5.6,-36.6 -19.3,-70.8 -55.7,-76.4 35.3,5.4 59.6,40.8 54.2,76 -5.4,35.2 -39.3,61.9 -74.6,56.5 36.4,5.7 70.5,-19.4 76.1,-56.1"
   id="path625"
   style="fill:#e4e4e4;fill-opacity:1"
   inkscape:connector-curvature="0" />
</g>
<g
   id="g660"
   transform="translate(-22.71245,-247.11245)">
	<defs
   id="defs630">
		<path
   id="SVGID_46_"
   d="m 58,264.9 c -14.5,10 -24,24.6 -27.3,41.9 0,0.2 -0.2,2 0,2.1 0.2,0 0.4,-1.2 0.4,-1.4 3.3,-17.2 13,-32.1 27.3,-41.9 14.3,-9.9 31.7,-14 48.7,-10.8 0.2,0.1 1.1,0.3 1.1,0.1 0,-0.2 -0.8,-0.3 -1,-0.4 -4.1,-0.8 -8.2,-1.1 -12.2,-1.1 -13.1,-0.1 -25.9,3.9 -37,11.5"
   inkscape:connector-curvature="0" />
	</defs>
	<clipPath
   id="SVGID_47_">
		<use
   xlink:href="#SVGID_46_"
   style="overflow:visible"
   id="use632"
   x="0"
   y="0"
   width="100%"
   height="100%" />
	</clipPath>
	
		<linearGradient
   id="SVGID_48_"
   gradientUnits="userSpaceOnUse"
   x1="-61.960701"
   y1="648.58112"
   x2="-46.330799"
   y2="648.58112"
   gradientTransform="matrix(3.8652,0.9848,-0.9848,3.8652,917.6824,-2173.2144)">
		<stop
   offset="0"
   style="stop-color:#929292;stop-opacity:1"
   id="stop635" />
		<stop
   offset="9.550480e-002"
   style="stop-color:#929292;stop-opacity:1"
   id="stop637" />
		<stop
   offset="9.699158e-002"
   style="stop-color:#929292;stop-opacity:1"
   id="stop639" />
		<stop
   offset="0.2182"
   style="stop-color:#929292;stop-opacity:1"
   id="stop641" />
		<stop
   offset="0.3245"
   style="stop-color:#929292;stop-opacity:1"
   id="stop643" />
		<stop
   offset="0.4108"
   style="stop-color:#929292;stop-opacity:1"
   id="stop645" />
		<stop
   offset="0.4663"
   style="stop-color:#929292;stop-opacity:1"
   id="stop647" />
		<stop
   offset="0.5598"
   style="stop-color:#929292;stop-opacity:1"
   id="stop649" />
		<stop
   offset="0.6979"
   style="stop-color:#929292;stop-opacity:1"
   id="stop651" />
		<stop
   offset="0.8628"
   style="stop-color:#929292;stop-opacity:1"
   id="stop653" />
		<stop
   offset="1"
   style="stop-color:#929292;stop-opacity:1"
   id="stop655" />
	</linearGradient>
	<polygon
   class="st30"
   points="122,255.1 35.2,233 16.8,305.4 103.6,327.6 "
   clip-path="url(#SVGID_47_)"
   id="polygon658"
   style="fill:url(#SVGID_48_)" />
</g>
</svg>