<?xml version="1.0" encoding="utf-8"?>
<!-- Generator: Adobe Illustrator 19.2.1, SVG Export Plug-In . SVG Version: 6.00 Build 0)  -->
<svg version="1.1" id="layer" xmlns="http://www.w3.org/2000/svg" xmlns:xlink="http://www.w3.org/1999/xlink" x="0px" y="0px"
	 viewBox="0 0 652 652" style="enable-background:new 0 0 652 652;" xml:space="preserve">
<style type="text/css">
	.st0{fill:#010101;}
	.st1{fill:#6E451C;}
	.st2{fill:#FEFBEB;}
	.st3{clip-path:url(#SVGID_2_);fill:url(#SVGID_3_);}
	.st4{clip-path:url(#SVGID_5_);fill:url(#SVGID_6_);}
	.st5{fill:none;stroke:#FCD20A;stroke-width:0.3595;}
	.st6{fill:none;stroke:#EFE8B3;stroke-width:0.5939;}
	.st7{clip-path:url(#SVGID_8_);fill:url(#SVGID_9_);}
	.st8{fill:none;stroke:#9D6A29;stroke-width:0.3751;}
	.st9{fill:#FCFADE;}
	.st10{clip-path:url(#SVGID_11_);fill:url(#SVGID_12_);}
	.st11{fill:#1B3663;}
	.st12{clip-path:url(#SVGID_14_);fill:url(#SVGID_15_);}
	.st13{fill:none;stroke:#675221;stroke-width:0.6877;}
	.st14{clip-path:url(#SVGID_17_);fill:url(#SVGID_18_);}
	.st15{clip-path:url(#SVGID_20_);fill:url(#SVGID_21_);}
	.st16{fill:#FBE393;}
	.st17{fill:#F5E8AF;}
	.st18{fill:#FCF9D9;}
	.st19{fill:#B18F2F;}
	.st20{clip-path:url(#SVGID_23_);fill:url(#SVGID_24_);}
	.st21{clip-path:url(#SVGID_26_);fill:url(#SVGID_27_);}
	.st22{clip-path:url(#SVGID_29_);fill:url(#SVGID_30_);}
	.st23{clip-path:url(#SVGID_32_);fill:url(#SVGID_33_);}
	.st24{clip-path:url(#SVGID_35_);fill:url(#SVGID_36_);}
	.st25{clip-path:url(#SVGID_38_);fill:url(#SVGID_39_);}
	.st26{clip-path:url(#SVGID_41_);fill:url(#SVGID_42_);}
	.st27{clip-path:url(#SVGID_44_);fill:url(#SVGID_45_);}
	.st28{fill:#9D6A29;}
	.st29{fill:#FCF8CC;}
	.st30{clip-path:url(#SVGID_47_);fill:url(#SVGID_48_);}
</style>
<g>
	<path class="st0" d="M238.8,360l-32-67h-0.3l-3.4,56.5c-0.3,6.4,4.4,7.8,10.1,8v2.4H187v-2.4c9.2,0,10.3-2,10.9-13.4l3-48.9
		c0.5-8.3,0.2-10.6-7.5-11.1V282h19l30.3,63.3l30.1-63.3h18.5v2.3c-6.2,0.5-8.5,0.6-8.3,4.9l4,56.9c0.8,11.6,1.8,11.6,10.9,11.6v2.4
		h-32.3v-2.4c5.9,0,11.7-1.6,11.2-8.3l-3.6-56.3H273l-31.3,67H238.8z"/>
	<path class="st0" d="M299.5,325.2c-0.3-0.7-0.4-1.1-0.4-1.8c0-4.4,10.5-14.6,18.6-14.6c3.8,0,9.7,1.8,13.2,6.7
		c1.9,2.6,1.9,4.3,1.9,10.8v16.8c0,10.1,0,12.3,3.3,12.3c1.4,0,3-0.1,6.2-2.8l0.6,1.9c-6.8,5.5-10.3,6.9-12.4,6.9
		c-5.1,0-5.6-5.7-5.8-7.7c-8.7,7.2-11.2,7.7-14.6,7.7c-7.3,0-11.7-4.1-11.7-10.3c0-7.7,6.8-10.3,14.8-12.3c2.6-0.6,6.8-2.1,11.2-4.8
		v-9.9c0-3.5,0-5.5-2.1-8c-1.6-2-4.3-3.7-7-3.7c-4.1,0-7.8,3.5-7.8,6.2c0,0.8,0.1,1.3,0.6,2.4L299.5,325.2z M324.4,336.6
		c-2.4,1.4-4.4,2.3-7.4,3.5c-7.7,3.2-10.6,4.4-10.6,9.6c0,4.5,3.7,7.4,7.4,7.4c2,0,3.5-0.6,10.6-5.5V336.6z"/>
	<path class="st0" d="M357,349.1c0,6.9,1.6,8.5,8.4,8.5v2.4h-25.3v-2.4c5.5,0,8.4-3,8.4-7.9v-26.4c0-4.6-0.5-5.5-3.8-6.2l-4.3-0.9
		v-2L355,309h2v9.8c8.4-5.3,15.5-9.9,21.6-9.9c8.5,0,13.4,6.3,13.4,18.8c0,16.7-0.9,20-1,24.9c-0.1,3.4,1.9,5,7,5h2.8v2.4h-27v-2.4
		c3.7-0.1,5.8-1,7.2-2.4c2.4-2.4,2.6-11.6,2.6-28.3c0-10.1-4.9-13.2-9.9-13.2c-4,0-10.2,3.5-16.7,8V349.1z"/>
	<path class="st0" d="M413.2,350.1c0,5.9,1.6,7.5,8.2,7.5v2.4h-25.1v-2.4c6.9-0.4,8.5-2.8,8.5-9.7v-60.2c0-2.8-0.5-3.8-3.1-4.1
		l-5.4-0.8v-2.1l15-5.2h2v41.2c8.3-4.9,14.3-7.9,20.7-7.9c9.7,0,14,6,14,18.7c0,11.4-0.3,18.5-0.6,25.3c0.3,3.4,2.1,4.8,9.5,4.8v2.4
		h-27.1v-2.4c3.3,0,5.6-0.6,7-2c2.3-2.3,2.8-7.7,2.8-26.4c0-13.4-7.3-15.2-11.4-15.2s-8.7,2-14.8,5.9V350.1z"/>
	<path class="st0" d="M463.6,328.1c-0.3,1.9-0.5,3.6-0.5,5.3c0,13.1,9.2,21.9,19.1,21.9c6.3,0,11.2-2.5,16-8.2l1.4,1.5
		c-5.3,6.7-13.2,12.9-22.4,12.9c-12.3,0-21.9-11.2-21.9-25.8c0-13.3,8.9-26.9,24.3-26.9c17,0,16.6,12.2,20.7,16.3v2.9H463.6z
		 M489.7,324.8c-1.4-8.2-6.4-13.6-12.5-13.6c-4.1,0-10.4,1.9-13.3,13.6H489.7z"/>
	<path class="st0" d="M518.6,350.5c0,4.4,2.4,7.2,9,7.2v2.4h-27.9v-2.4c7.7,0,10.4-2.5,10.4-9.2v-25.3c0-4.9-0.6-5.5-3.9-6.2
		l-5.9-1.1v-2l16.3-5.7h1.9V350.5z M513.5,280c3,0,5.5,2.1,5.5,4.8c0,2.6-2.5,4.8-5.5,4.8c-3,0-5.4-2.1-5.4-4.8
		C508.1,282.1,510.5,280,513.5,280"/>
	<path class="st0" d="M543.4,349.8c0,6.5,1.8,7.8,8.8,7.8v2.4h-26.1v-2.4c7.3,0,8.9-3.3,8.9-9.7v-24.6c0-4.9-0.8-6-3.6-6.4l-4.9-0.6
		v-2.1l15.1-5.3h1.9v10c9-6.4,17.3-10,22.4-10c6.2,0,10.7,3.9,11.9,10c8.4-5.3,16.1-10,22.2-10c9,0,12.6,6.9,12.6,19
		c0,8,0,16.5-0.4,24.1c0,2.6,1.5,5.7,6.7,5.7h4v2.4h-28.3v-2.4h1.1c3.6,0,5.3-0.6,6.4-1.8c1.9-1.9,2-9.2,2-17.8v-9.8
		c0-9.7-3.3-14.3-9.4-14.3c-3.9,0-8.9,1.9-16.7,7v28.9c0,6.3,1.5,7.8,7.8,7.8v2.4H560v-2.4c7.1,0,9.6-2.5,9.6-9.7v-23.3
		c0-7.9-4.9-10.8-9.3-10.8c-3.5,0-8.3,1.6-16.8,7.3V349.8z"/>
	<path class="st1" d="M27.6,321.5c0,38.2,31,69.2,69.2,69.2s69.2-30.9,69.2-69.2c0-38.2-31-69.2-69.2-69.2S27.6,283.3,27.6,321.5"/>
	<path class="st2" d="M26.1,319.9c0,38.2,30.9,69.2,69.2,69.2c38.2,0,69.1-31,69.1-69.2c0-38.2-31-69.2-69.1-69.2
		C57,250.8,26.1,281.7,26.1,319.9"/>
</g>
<g>
	<defs>
		<path id="SVGID_1_" d="M27.1,320.7c0,38.2,30.9,69.1,69.2,69.1c38.2,0,69.2-30.9,69.2-69.1s-31-69.2-69.2-69.2
			C58,251.5,27.1,282.5,27.1,320.7"/>
	</defs>
	<clipPath id="SVGID_2_">
		<use xlink:href="#SVGID_1_"  style="overflow:visible;"/>
	</clipPath>
	
		<linearGradient id="SVGID_3_" gradientUnits="userSpaceOnUse" x1="-62.5445" y1="636.6971" x2="-46.9147" y2="636.6971" gradientTransform="matrix(6.3836 5.8285 -5.8285 6.3836 4155.5698 -3425.7278)">
		<stop  offset="0" style="stop-color:#FDEDA1"/>
		<stop  offset="0.3539" style="stop-color:#EDB62F"/>
		<stop  offset="0.5315" style="stop-color:#EEB82D"/>
		<stop  offset="0.6193" style="stop-color:#F1BE25"/>
		<stop  offset="0.6872" style="stop-color:#F7C818"/>
		<stop  offset="0.7303" style="stop-color:#FCD20B"/>
		<stop  offset="0.763" style="stop-color:#E2B411"/>
		<stop  offset="0.8074" style="stop-color:#C59318"/>
		<stop  offset="0.8529" style="stop-color:#AF781D"/>
		<stop  offset="0.8995" style="stop-color:#9F6621"/>
		<stop  offset="0.9476" style="stop-color:#955B23"/>
		<stop  offset="1" style="stop-color:#925724"/>
	</linearGradient>
	<polygon class="st3" points="-41.8,327 102.5,458.7 234.3,314.4 90,182.7 	"/>
</g>
<g>
	<defs>
		<path id="SVGID_4_" d="M30.2,320.7c0,36.5,29.6,66,66.1,66s66-29.6,66-66c0-36.5-29.6-66.1-66-66.1S30.2,284.2,30.2,320.7"/>
	</defs>
	<clipPath id="SVGID_5_">
		<use xlink:href="#SVGID_4_"  style="overflow:visible;"/>
	</clipPath>
	
		<linearGradient id="SVGID_6_" gradientUnits="userSpaceOnUse" x1="-65.2306" y1="632.6663" x2="-49.6008" y2="632.6663" gradientTransform="matrix(6.5796 9.9421 -9.9421 6.5796 6769.3877 -3263.1252)">
		<stop  offset="0" style="stop-color:#C9952F"/>
		<stop  offset="2.513951e-002" style="stop-color:#D2A542"/>
		<stop  offset="7.606491e-002" style="stop-color:#E8CD74"/>
		<stop  offset="9.550480e-002" style="stop-color:#F1DE89"/>
		<stop  offset="0.2764" style="stop-color:#EEC758"/>
		<stop  offset="0.4663" style="stop-color:#EBAC20"/>
		<stop  offset="0.4916" style="stop-color:#ECAE27"/>
		<stop  offset="0.7416" style="stop-color:#F5C66D"/>
		<stop  offset="0.8258" style="stop-color:#E6AE53"/>
		<stop  offset="0.936" style="stop-color:#D59437"/>
		<stop  offset="1" style="stop-color:#CF8A2D"/>
	</linearGradient>
	<polygon class="st4" points="-30.6,294.9 70.4,447.5 223.1,346.5 122.1,193.8 	"/>
</g>
<g>
	<path class="st5" d="M30.2,320.7c0,36.5,29.6,66.1,66.1,66.1c36.5,0,66-29.6,66-66.1c0-36.5-29.6-66.1-66-66.1
		C59.8,254.6,30.2,284.2,30.2,320.7z"/>
	<path class="st0" d="M96.2,260.8c-33.1,0-59.9,26.8-59.9,59.8c0,33.1,26.8,59.9,59.9,59.9c33,0,59.8-26.8,59.8-59.9
		C156,287.6,129.2,260.8,96.2,260.8 M96.2,373.8C66.8,373.8,43,350,43,320.7c0-29.3,23.8-53.1,53.1-53.1c27.2,0,53.1,24.9,53.1,53.1
		C149.3,350,125.5,373.8,96.2,373.8"/>
	<path class="st6" d="M96.2,260.8c-33.1,0-59.9,26.8-59.9,59.8c0,33.1,26.8,59.9,59.9,59.9c33,0,59.8-26.8,59.8-59.9
		C156,287.6,129.2,260.8,96.2,260.8z M96.2,373.8C66.8,373.8,43,350,43,320.7c0-29.3,23.8-53.1,53.1-53.1
		c27.2,0,53.1,24.9,53.1,53.1C149.3,350,125.5,373.8,96.2,373.8z"/>
</g>
<g>
	<defs>
		<path id="SVGID_7_" d="M31.7,320.7c0-35.7,28.9-64.6,64.6-64.6c35.7,0,64.6,28.9,64.6,64.6c0,35.7-28.9,64.6-64.6,64.6
			C60.6,385.3,31.7,356.4,31.7,320.7 M22.8,320.7c0,40.5,32.9,73.4,73.4,73.4s73.4-32.9,73.4-73.4c0-40.5-32.9-73.4-73.4-73.4
			S22.8,280.2,22.8,320.7"/>
	</defs>
	<clipPath id="SVGID_8_">
		<use xlink:href="#SVGID_7_"  style="overflow:visible;"/>
	</clipPath>
	
		<linearGradient id="SVGID_9_" gradientUnits="userSpaceOnUse" x1="-66.9323" y1="621.1805" x2="-51.3025" y2="621.1805" gradientTransform="matrix(-2.4825 8.6641 -8.6641 -2.4825 5331.5059 2374.7913)">
		<stop  offset="0" style="stop-color:#90702B"/>
		<stop  offset="5.615230e-003" style="stop-color:#90702B"/>
		<stop  offset="5.504611e-002" style="stop-color:#AF9646"/>
		<stop  offset="0.1083" style="stop-color:#CBB75E"/>
		<stop  offset="0.1632" style="stop-color:#E1D170"/>
		<stop  offset="0.2194" style="stop-color:#F0E37E"/>
		<stop  offset="0.278" style="stop-color:#F9EE85"/>
		<stop  offset="0.3427" style="stop-color:#FCF288"/>
		<stop  offset="0.3802" style="stop-color:#F1E47F"/>
		<stop  offset="0.4507" style="stop-color:#D6C068"/>
		<stop  offset="0.546" style="stop-color:#A98544"/>
		<stop  offset="0.6348" style="stop-color:#7B491E"/>
		<stop  offset="0.6637" style="stop-color:#815021"/>
		<stop  offset="0.7051" style="stop-color:#93632B"/>
		<stop  offset="0.7541" style="stop-color:#AF823A"/>
		<stop  offset="0.8084" style="stop-color:#D6AD50"/>
		<stop  offset="0.8315" style="stop-color:#E9C15A"/>
		<stop  offset="0.8514" style="stop-color:#DDB552"/>
		<stop  offset="0.9138" style="stop-color:#BD933D"/>
		<stop  offset="0.9656" style="stop-color:#A97E30"/>
		<stop  offset="1" style="stop-color:#A2772B"/>
	</linearGradient>
	<polygon class="st7" points="34,208.4 -16,383 158.5,433 208.5,258.4 	"/>
</g>
<g>
	<path class="st8" d="M96.3,247.3c-40.5,0-73.4,32.9-73.4,73.4c0,40.5,32.9,73.4,73.4,73.4c40.5,0,73.4-32.9,73.4-73.4
		C169.7,280.1,136.8,247.3,96.3,247.3z M96.3,385.3c-35.7,0-64.6-28.9-64.6-64.6c0-35.7,28.9-64.6,64.6-64.6
		c35.7,0,64.6,28.9,64.6,64.6C160.9,356.4,131.9,385.3,96.3,385.3z"/>
	<path class="st9" d="M134.4,283.8c9.5,9.5,16.8,22.2,16.8,36.7c0,9.4-5.8,19.5-10.1,27.1c4.3-7.6,8.9-18,8.9-27.4
		c0-14.5-7.3-27.1-16.8-36.7L134.4,283.8z"/>
	<path class="st9" d="M126.6,363.7c0,0-1.6,1-1.6,1.3c-8.4,5.6-17.3,7.8-28.2,7.8c14.4,1.3,24.2-3.8,26.8-5.7
		C126.1,365.2,126.6,363.7,126.6,363.7"/>
</g>
<g>
	<defs>
		<path id="SVGID_10_" d="M46.9,320.1c0,27.2,22.1,49.3,49.3,49.3c21.7,0,49.7-17.8,49.7-49.3c0-25.9-25.1-49.3-49.7-49.3
			C68.9,270.9,46.9,292.9,46.9,320.1"/>
	</defs>
	<clipPath id="SVGID_11_">
		<use xlink:href="#SVGID_10_"  style="overflow:visible;"/>
	</clipPath>
	
		<radialGradient id="SVGID_12_" cx="-58.307" cy="659.2221" r="15.6298" gradientTransform="matrix(5.7961 0 0 5.7961 434.0647 -3456.6477)" gradientUnits="userSpaceOnUse">
		<stop  offset="0" style="stop-color:#1B3764"/>
		<stop  offset="0.1985" style="stop-color:#1E3A66"/>
		<stop  offset="0.3538" style="stop-color:#28426D"/>
		<stop  offset="0.4944" style="stop-color:#395179"/>
		<stop  offset="0.6262" style="stop-color:#50668A"/>
		<stop  offset="0.7521" style="stop-color:#6E80A0"/>
		<stop  offset="0.8734" style="stop-color:#93A1BB"/>
		<stop  offset="0.9891" style="stop-color:#BFC7DB"/>
		<stop  offset="1" style="stop-color:#C3CBDE"/>
	</radialGradient>
	<rect x="46.9" y="270.9" class="st10" width="99" height="98.6"/>
</g>
<g>
	<path class="st11" d="M143.8,307.7c-1.7-6.4-4.6-12.3-8.5-17.4c-5.8-7.5-13.6-13.3-22.7-16.6c-5.1-1.8-10.7-2.8-16.5-2.8
		c-3.5,0-7,0.4-10.3,1.1c-7.8,1.7-14.9,5.2-20.9,10.1c-11.1,9-18.1,22.8-18.1,38.2c0,6.4,1.2,12.5,3.5,18.1c-1-4-1.6-8.2-1.6-12.5
		c0-13.8,5.7-26.2,14.8-35.2c-2.2,13.5-5.4,36-7.1,58.7c4.4,6.1,10.3,11.1,17,14.6v0.2c0.6-10.1,2.1-31.5,4.8-58.6
		c0,0,7.7,37.9,15.7,62.6h10.9c10.2-29.9,16.9-62,16.9-62c2.4,23.2,2.9,42.6,3.6,54c6.7-5.2,14.8-16,18.1-23.9
		c-1.6-16.7-2.9-26.5-4.7-37.7C141.1,302,142,303.6,143.8,307.7 M99.9,321.6c0,0-5.8-18.1-12.2-44c3.5-0.8,6.6-1.2,10.3-1.2
		c4.6,0,9.2,0.7,13.5,1.9C105.1,303.9,99.9,321.6,99.9,321.6"/>
</g>
<g>
	<defs>
		<path id="SVGID_13_" d="M46.9,320.1c0-27.3,22-49.3,49.3-49.3c24.7,0,49.5,21.7,49.7,49.3c0.2,31.5-28,49.3-49.7,49.3
			C68.8,369.4,46.9,347.4,46.9,320.1 M30.7,320.7c0,36.2,29.3,65.5,65.5,65.5c36.1,0,65.5-29.3,65.5-65.5
			c0-34.9-31.9-65.5-65.5-65.5C60,255.2,30.7,284.5,30.7,320.7"/>
	</defs>
	<clipPath id="SVGID_14_">
		<use xlink:href="#SVGID_13_"  style="overflow:visible;"/>
	</clipPath>
	
		<linearGradient id="SVGID_15_" gradientUnits="userSpaceOnUse" x1="-82.6283" y1="649.4976" x2="-66.9985" y2="649.4976" gradientTransform="matrix(5.1868 -5.3333 5.3333 5.1868 -2981.9771 -3444.8984)">
		<stop  offset="0" style="stop-color:#EAD47A"/>
		<stop  offset="1.577569e-002" style="stop-color:#ECD885"/>
		<stop  offset="4.379293e-002" style="stop-color:#F1E2A4"/>
		<stop  offset="8.052620e-002" style="stop-color:#FAF3D4"/>
		<stop  offset="9.550480e-002" style="stop-color:#FEFBEA"/>
		<stop  offset="0.1079" style="stop-color:#FDF6E3"/>
		<stop  offset="0.2358" style="stop-color:#F4CA9C"/>
		<stop  offset="0.3423" style="stop-color:#EDAA68"/>
		<stop  offset="0.4222" style="stop-color:#E99648"/>
		<stop  offset="0.4663" style="stop-color:#E78F3C"/>
		<stop  offset="0.5154" style="stop-color:#EA9D4E"/>
		<stop  offset="0.6139" style="stop-color:#F3C07C"/>
		<stop  offset="0.7416" style="stop-color:#FFF4C1"/>
		<stop  offset="0.7656" style="stop-color:#F4DFAA"/>
		<stop  offset="0.8206" style="stop-color:#DEB47C"/>
		<stop  offset="0.8732" style="stop-color:#CC9158"/>
		<stop  offset="0.922" style="stop-color:#BF793D"/>
		<stop  offset="0.9657" style="stop-color:#B86A2E"/>
		<stop  offset="1" style="stop-color:#B56528"/>
	</linearGradient>
	<polygon class="st12" points="98,451.6 227.1,318.9 94.3,189.8 -34.8,322.5 	"/>
</g>
<g>
	<path class="st13" d="M96.1,255.2c-36.2,0-65.5,29.3-65.5,65.5c0,36.2,29.3,65.5,65.5,65.5c36.2,0,65.5-29.3,65.5-65.5
		C161.6,285.8,129.8,255.2,96.1,255.2z M96.1,369.4c-27.3,0-49.3-22-49.3-49.3s22-49.3,49.3-49.3c24.7,0,49.6,21.7,49.7,49.3
		C146.1,351.6,117.9,369.4,96.1,369.4z"/>
</g>
<g>
	<defs>
		<path id="SVGID_16_" d="M98.9,320.1c0,0-6.7-19.8-14-47.7l-2.8-2.9l-19.7,7.1c0,0-7.4,36.9-10.2,73.9l15.3,13.3l3.1-1.4
			c0.7-10.4,2.2-31.4,5.1-58.1c0,0,8.2,38.5,16.1,61.6l11.3,0.2c7.8-23.1,18.1-61.1,18.1-61.1c4.2,38.3,5.6,65.1,5.6,65.1l14.2-22.6
			c0.2-3.3,0.6-6.1,0.6-6.1c-1.7-15.8-4-38.5-5.8-49.3c0,0-2.6-6.8-3.3-8.9c-1.3-4,0.9-6.1,0.9-6.1l-19.4-11.1
			C106.3,297.5,98.9,320.1,98.9,320.1"/>
	</defs>
	<clipPath id="SVGID_17_">
		<use xlink:href="#SVGID_16_"  style="overflow:visible;"/>
	</clipPath>
	
		<linearGradient id="SVGID_18_" gradientUnits="userSpaceOnUse" x1="-120.3826" y1="654.2821" x2="-104.7528" y2="654.2821" gradientTransform="matrix(0 -3.0777 3.0777 0 -1916.7083 -9.1354)">
		<stop  offset="0" style="stop-color:#AD862E"/>
		<stop  offset="6.435696e-002" style="stop-color:#B59131"/>
		<stop  offset="0.1762" style="stop-color:#CCAD3B"/>
		<stop  offset="0.2416" style="stop-color:#DBC141"/>
		<stop  offset="0.4538" style="stop-color:#ECCF77"/>
		<stop  offset="0.5787" style="stop-color:#F4D692"/>
		<stop  offset="0.6691" style="stop-color:#DABE76"/>
		<stop  offset="0.8132" style="stop-color:#B79D50"/>
		<stop  offset="0.9286" style="stop-color:#A18938"/>
		<stop  offset="1" style="stop-color:#99812F"/>
	</linearGradient>
	<rect x="52.3" y="266.1" class="st14" width="89.4" height="104"/>
</g>
<g>
	<defs>
		<path id="SVGID_19_" d="M67.6,363.9c0.6-9.3,2.4-34.3,5.5-63.1c0,0,11.9,40.4,19.7,63.5h9.1c10-31.4,19-62.9,19-62.9
			c2.9,26.5,3.1,48.8,3.8,59.2c0,0.5,1.9,3.2,1.9,3.2s-1.6,1-1.6,1.3c-8.4,5.6-17.3,7.8-28.2,7.8C86,372.8,75.9,369.5,67.6,363.9
			 M140.6,348.6c-2.1-24.3-6.3-53.7-8.4-66c0-0.3,0.2,0,0.5,0.4c0.3,0.4,0.5,0.8,0.5,0.5c9.5,9.5,16.8,22.2,16.8,36.7
			c0,9.4-4.5,19.8-8.8,27.4c0-0.2-0.2,0.2-0.3,0.5C140.7,348.3,140.6,348.6,140.6,348.6C140.6,348.6,140.6,348.6,140.6,348.6
			 M44.2,320.1c0-14.5,5.9-27.6,15.4-37.2l1.5-1c-2.1,12.5-6.9,41.7-9,66.5C47.7,340.8,44.2,329.5,44.2,320.1 M82.1,269.6
			c4.7-1.4,9.6-2.1,14.7-2.1c5.1,0,10,0.7,14.7,2.1l1.3,0.5c-8.6,28-15.7,53-15.7,53S89.6,298.9,82.1,269.6 M33.8,320.1
			c0,34.8,28.2,63.1,63.1,63.1c34.9,0,63.1-28.2,63.1-63.1c0-33.6-30.8-63.1-63.1-63.1C62,257,33.8,285.3,33.8,320.1"/>
	</defs>
	<clipPath id="SVGID_20_">
		<use xlink:href="#SVGID_19_"  style="overflow:visible;"/>
	</clipPath>
	
		<linearGradient id="SVGID_21_" gradientUnits="userSpaceOnUse" x1="-63.5462" y1="626.9629" x2="-47.9164" y2="626.9629" gradientTransform="matrix(1.5871 9.4329 -9.4329 1.5871 6100.3687 -143.4435)">
		<stop  offset="0" style="stop-color:#EDBE60"/>
		<stop  offset="5.618290e-002" style="stop-color:#EDBE60"/>
		<stop  offset="0.2118" style="stop-color:#F3D265"/>
		<stop  offset="0.2528" style="stop-color:#F5D867"/>
		<stop  offset="0.3129" style="stop-color:#EFCB5A"/>
		<stop  offset="0.4663" style="stop-color:#E0AE3C"/>
		<stop  offset="0.4957" style="stop-color:#D8A539"/>
		<stop  offset="0.5883" style="stop-color:#C48E2F"/>
		<stop  offset="0.6461" style="stop-color:#BD852C"/>
		<stop  offset="0.6936" style="stop-color:#C28D30"/>
		<stop  offset="0.7655" style="stop-color:#D1A13C"/>
		<stop  offset="0.8524" style="stop-color:#EAC350"/>
		<stop  offset="0.8876" style="stop-color:#F5D359"/>
		<stop  offset="0.894" style="stop-color:#F1CD56"/>
		<stop  offset="0.941" style="stop-color:#D6A340"/>
		<stop  offset="0.9779" style="stop-color:#C68A32"/>
		<stop  offset="1" style="stop-color:#C0802D"/>
	</linearGradient>
	<polygon class="st15" points="13.1,260.5 37.2,403.8 180.6,379.7 156.4,236.4 	"/>
</g>
<g>
	<path class="st16" d="M52.1,348.4c2.7-26.9,7.5-56.3,9-66.5l-2.4,6.4c-2.1,12.1-5.2,32-7.2,52.8L52.1,348.4z"/>
	<path class="st17" d="M73.1,300.8c0,0,11.9,40.4,19.8,63.5l-0.9,1.8c-5.7-16.7-13.1-41.8-16.8-54.5c-0.8-3.2-1.4-6.2-1.4-6.2
		L73.1,300.8z"/>
	<path class="st16" d="M97.2,323c0,0,7.9-24.1,15.7-53l-2.3,3c-5.4,21-10.6,37.3-12.8,43.9L97.2,323z"/>
	<path class="st16" d="M120.9,301.3c3.1,28.8,5.1,53.1,5.7,62.4l-1.9-3.2c-0.7-10.3-2-28.4-4.4-51.1L120.9,301.3z"/>
	<path class="st18" d="M112.9,270.1c-3.4-1.6-9.1-3.5-16.8-3.2c-5.1,0.2-8.6,0.6-14,2.7c4.7-1.4,9.6-2.1,14.7-2.1
		C101.9,267.5,108.2,268.7,112.9,270.1"/>
	<path class="st9" d="M53.2,345.7l-1.2,2.8c2.7-26.9,7.5-56.3,9-66.5C61,281.9,58.8,303.9,53.2,345.7"/>
	<path class="st9" d="M75.4,309.2l16.8,53.4C88.5,342.3,75.4,309.2,75.4,309.2"/>
	<path class="st9" d="M122,309.3c2,21.5,4.4,51.5,4.4,51.5C127.6,334.9,122,309.3,122,309.3"/>
	<path class="st9" d="M35.7,303.4C35.7,303.4,35.9,303.6,35.7,303.4c6.6-16.1,11.6-22.3,21-31.4l-2.6,2.1
		C40.4,285.1,36.3,299.7,35.7,303.4C35.1,307.1,35.7,303.4,35.7,303.4"/>
	<path class="st9" d="M112.8,272c-1.9,15.6-15.6,51-15.6,51L112.8,272z"/>
	<path class="st19" d="M67.9,361c1.3-19.3,4.7-54.6,4.7-54.6C67,341,67.9,361,67.9,361"/>
	<path class="st19" d="M140.2,347.6c-3-37.6-5.8-51-5.8-51s3.1,37.1,3.8,41.2C138.7,341.8,140.2,347.6,140.2,347.6"/>
	<path class="st19" d="M101.9,364.2c4-12,17.1-54.8,17.1-54.8C107.5,341.6,101.9,364.2,101.9,364.2"/>
</g>
<g>
	<defs>
		<path id="SVGID_22_" d="M29.6,320.8c0-37,29.8-67.1,66.6-67.1s66.6,30,66.6,67.1c0,37-29.8,67-66.6,67S29.6,357.9,29.6,320.8
			 M25,320.8c0,39.6,31.9,71.7,71.2,71.7c39.3,0,71.2-32.1,71.2-71.7c0-39.6-31.9-71.7-71.2-71.7C56.9,249.1,25,281.2,25,320.8"/>
	</defs>
	<clipPath id="SVGID_23_">
		<use xlink:href="#SVGID_22_"  style="overflow:visible;"/>
	</clipPath>
	
		<linearGradient id="SVGID_24_" gradientUnits="userSpaceOnUse" x1="-66.1721" y1="638.3322" x2="-50.5423" y2="638.3322" gradientTransform="matrix(9.4356 5.326 -5.326 9.4356 4050.4021 -5389.3042)">
		<stop  offset="0" style="stop-color:#D19F42"/>
		<stop  offset="2.972045e-002" style="stop-color:#D4A54B"/>
		<stop  offset="7.854547e-002" style="stop-color:#DCB764"/>
		<stop  offset="0.1404" style="stop-color:#EAD38C"/>
		<stop  offset="0.2079" style="stop-color:#FBF7C0"/>
		<stop  offset="0.4663" style="stop-color:#EFB844"/>
		<stop  offset="0.5316" style="stop-color:#F2C55C"/>
		<stop  offset="0.6688" style="stop-color:#F8E599"/>
		<stop  offset="0.7416" style="stop-color:#FCF7BC"/>
		<stop  offset="0.8219" style="stop-color:#ECD18B"/>
		<stop  offset="0.9009" style="stop-color:#DEB061"/>
		<stop  offset="0.9628" style="stop-color:#D69C47"/>
		<stop  offset="1" style="stop-color:#D3953E"/>
	</linearGradient>
	<polygon class="st20" points="-36.3,357.9 133,453.5 228.8,283.8 59.5,188.2 	"/>
</g>
<g>
	<path class="st5" d="M96.3,249.1c-39.3,0-71.2,32.1-71.2,71.7c0,39.6,31.9,71.7,71.2,71.7c39.3,0,71.2-32.1,71.2-71.7
		C167.5,281.2,135.6,249.1,96.3,249.1z M96.3,387.9c-36.8,0-66.6-30-66.6-67c0-37,29.8-67.1,66.6-67.1c36.8,0,66.6,30,66.6,67.1
		C162.9,357.8,133,387.9,96.3,387.9z"/>
</g>
<g>
	<defs>
		<path id="SVGID_25_" d="M92.6,248.6c-19.3,1.2-37.1,10-49.9,24.6c-12.8,14.7-19.1,32.9-17.8,52.4c0,0.2,0.3,2.2,0.5,2.2
			s0.1-1.4,0.1-1.6c-1.2-19.3,5.1-37.9,17.8-52.4C56,259.3,73.5,250.2,92.6,249c0.3,0,1.2,0,1.2-0.2c0-0.1-0.3-0.2-0.6-0.2
			C93,248.6,92.7,248.6,92.6,248.6"/>
	</defs>
	<clipPath id="SVGID_26_">
		<use xlink:href="#SVGID_25_"  style="overflow:visible;"/>
	</clipPath>
	
		<linearGradient id="SVGID_27_" gradientUnits="userSpaceOnUse" x1="-69.7509" y1="651.6444" x2="-54.1211" y2="651.6444" gradientTransform="matrix(4.4093 0 0 4.4093 332.429 -2585.0344)">
		<stop  offset="0" style="stop-color:#F2DE7F"/>
		<stop  offset="8.924518e-003" style="stop-color:#F2DF82"/>
		<stop  offset="0.1757" style="stop-color:#F8ECB1"/>
		<stop  offset="0.3228" style="stop-color:#FCF6D4"/>
		<stop  offset="0.4434" style="stop-color:#FEFCE9"/>
		<stop  offset="0.5225" style="stop-color:#FFFEF1"/>
		<stop  offset="0.5883" style="stop-color:#FEFAE9"/>
		<stop  offset="0.6931" style="stop-color:#FDF0D1"/>
		<stop  offset="0.824" style="stop-color:#FAE0AC"/>
		<stop  offset="0.9744" style="stop-color:#F6CA78"/>
		<stop  offset="1" style="stop-color:#F5C66E"/>
	</linearGradient>
	<rect x="23.7" y="248.6" class="st21" width="70.2" height="79.3"/>
</g>
<g>
	<defs>
		<path id="SVGID_28_" d="M162.3,317.5c1.1,17.4-4.6,34.3-16.1,47.4c-11.4,13.1-27.2,21.4-44.5,22.5c-0.2,0-1.1,0-1.1,0.2
			c0,0.2,0.9,0.1,1.1,0.1c17.5-1.1,33.5-9,45.1-22.3c11.6-13.3,17.2-29.7,16.1-47.4c0-0.2-0.3-2-0.5-2
			C162.2,316,162.3,317.3,162.3,317.5"/>
	</defs>
	<clipPath id="SVGID_29_">
		<use xlink:href="#SVGID_28_"  style="overflow:visible;"/>
	</clipPath>
	
		<linearGradient id="SVGID_30_" gradientUnits="userSpaceOnUse" x1="-102.679" y1="595.3576" x2="-87.0492" y2="595.3576" gradientTransform="matrix(-3.9886 0 0 -3.9886 -246.5904 2726.5161)">
		<stop  offset="0" style="stop-color:#F2DE7F"/>
		<stop  offset="8.924518e-003" style="stop-color:#F2DF82"/>
		<stop  offset="0.1757" style="stop-color:#F8ECB1"/>
		<stop  offset="0.3228" style="stop-color:#FCF6D4"/>
		<stop  offset="0.4434" style="stop-color:#FEFCE9"/>
		<stop  offset="0.5225" style="stop-color:#FFFEF1"/>
		<stop  offset="0.5883" style="stop-color:#FEFAE9"/>
		<stop  offset="0.6931" style="stop-color:#FDF0D1"/>
		<stop  offset="0.824" style="stop-color:#FAE0AC"/>
		<stop  offset="0.9744" style="stop-color:#F6CA78"/>
		<stop  offset="1" style="stop-color:#F5C66E"/>
	</linearGradient>
	<rect x="100.6" y="316" class="st22" width="63.4" height="71.7"/>
</g>
<g>
	<defs>
		<path id="SVGID_31_" d="M166.7,317.2c1.1,18.8-5.1,36.9-17.5,51c-12.4,14.1-29.5,22.6-48.3,23.8c-0.2,0-0.6,0.1-0.6,0.3
			c0,0.2,0.3,0.2,0.5,0.2c19-1.2,36.4-9.6,49-23.8c12.6-14.3,18.6-32.8,17.4-51.8c0-0.2-0.1-0.6-0.3-0.6
			C166.7,316.4,166.7,317,166.7,317.2"/>
	</defs>
	<clipPath id="SVGID_32_">
		<use xlink:href="#SVGID_31_"  style="overflow:visible;"/>
	</clipPath>
	
		<linearGradient id="SVGID_33_" gradientUnits="userSpaceOnUse" x1="-53.2246" y1="666.757" x2="-37.5947" y2="666.757" gradientTransform="matrix(4.2768 0 0 4.2768 327.9833 -2497.0542)">
		<stop  offset="0" style="stop-color:#F1DE89"/>
		<stop  offset="9.550480e-002" style="stop-color:#F1DE89"/>
		<stop  offset="9.699158e-002" style="stop-color:#F1DD88"/>
		<stop  offset="0.2182" style="stop-color:#CFAC60"/>
		<stop  offset="0.3245" style="stop-color:#B68842"/>
		<stop  offset="0.4108" style="stop-color:#A77230"/>
		<stop  offset="0.4663" style="stop-color:#A26A29"/>
		<stop  offset="0.5598" style="stop-color:#A8712E"/>
		<stop  offset="0.6979" style="stop-color:#BA853D"/>
		<stop  offset="0.8628" style="stop-color:#D8A655"/>
		<stop  offset="1" style="stop-color:#F5C66D"/>
	</linearGradient>
	<rect x="100.4" y="316.4" class="st23" width="68.1" height="76.2"/>
</g>
<g>
	<defs>
		<path id="SVGID_34_" d="M24.7,321.2c0.2,19.4,8,37.5,22,51.1c14,13.6,31.8,20.8,51.4,20.6c0.3,0,2.3-0.2,2.2-0.4
			c0-0.2-1.4-0.2-1.6-0.2c-19.3,0.2-37.6-7.1-51.4-20.5c-13.8-13.4-22-31.3-22.2-50.5c0-0.2,0.1-1.2-0.2-1.2
			C24.7,320,24.7,320.9,24.7,321.2"/>
	</defs>
	<clipPath id="SVGID_35_">
		<use xlink:href="#SVGID_34_"  style="overflow:visible;"/>
	</clipPath>
	
		<linearGradient id="SVGID_36_" gradientUnits="userSpaceOnUse" x1="-110.9424" y1="642.0079" x2="-95.3125" y2="642.0079" gradientTransform="matrix(0.2303 -4.406 4.406 0.2303 -2742.3762 -245.7864)">
		<stop  offset="0" style="stop-color:#F2DE7F"/>
		<stop  offset="8.924518e-003" style="stop-color:#F2DF82"/>
		<stop  offset="0.1757" style="stop-color:#F8ECB1"/>
		<stop  offset="0.3228" style="stop-color:#FCF6D4"/>
		<stop  offset="0.4434" style="stop-color:#FEFCE9"/>
		<stop  offset="0.5225" style="stop-color:#FFFEF1"/>
		<stop  offset="0.5883" style="stop-color:#FEFAE9"/>
		<stop  offset="0.6931" style="stop-color:#FDF0D1"/>
		<stop  offset="0.824" style="stop-color:#FAE0AC"/>
		<stop  offset="0.9744" style="stop-color:#F6CA78"/>
		<stop  offset="1" style="stop-color:#F5C66E"/>
	</linearGradient>
	<polygon class="st24" points="100.2,397 104.2,320.2 24.9,316 20.9,392.8 	"/>
</g>
<g>
	<defs>
		<path id="SVGID_37_" d="M101.7,253.8c0,0.2,1.3,0.4,1.5,0.4c17.7,2.2,33.5,11,44.6,24.8c9.8,12.2,15.2,27.1,14.9,42.5
			c-0.1,1.9,0.3,1.6,0.3-0.6c0.3-15.3-4.8-30.1-14.6-42.3c-11.2-13.9-26.7-22.6-44.5-24.8c-0.1,0-0.5,0-0.9,0
			C102.3,253.7,101.7,253.7,101.7,253.8"/>
	</defs>
	<clipPath id="SVGID_38_">
		<use xlink:href="#SVGID_37_"  style="overflow:visible;"/>
	</clipPath>
	
		<linearGradient id="SVGID_39_" gradientUnits="userSpaceOnUse" x1="-59.1091" y1="600.2894" x2="-43.4792" y2="600.2894" gradientTransform="matrix(-0.6628 3.5929 -3.5929 -0.6628 2255.3354 870.1829)">
		<stop  offset="0" style="stop-color:#F2DE7F"/>
		<stop  offset="8.924518e-003" style="stop-color:#F2DF82"/>
		<stop  offset="0.1757" style="stop-color:#F8ECB1"/>
		<stop  offset="0.3228" style="stop-color:#FCF6D4"/>
		<stop  offset="0.4434" style="stop-color:#FEFCE9"/>
		<stop  offset="0.5225" style="stop-color:#FFFEF1"/>
		<stop  offset="0.5883" style="stop-color:#FEFAE9"/>
		<stop  offset="0.6931" style="stop-color:#FDF0D1"/>
		<stop  offset="0.824" style="stop-color:#FAE0AC"/>
		<stop  offset="0.9744" style="stop-color:#F6CA78"/>
		<stop  offset="1" style="stop-color:#F5C66E"/>
	</linearGradient>
	<polygon class="st25" points="103.7,242.7 89.2,321.1 161.2,334.3 175.7,256 	"/>
</g>
<g>
	<defs>
		<path id="SVGID_40_" d="M30.2,326.4c0.7,15.3,6.5,29.3,17.2,40.8c12,12.9,27.7,20.3,45.4,21.1c0.2,0,2-0.1,2-0.3
			c0-0.2-1.3-0.2-1.5-0.2c-17.5-0.8-33.6-8.2-45.4-21c-10.6-11.5-17.1-25.6-17.7-40.9V326.4z M30.2,320.7c0-0.1,0-0.2,0-0.2
			S30.2,320.6,30.2,320.7"/>
	</defs>
	<clipPath id="SVGID_41_">
		<use xlink:href="#SVGID_40_"  style="overflow:visible;"/>
	</clipPath>
	
		<linearGradient id="SVGID_42_" gradientUnits="userSpaceOnUse" x1="-114.4796" y1="645.3682" x2="-98.8497" y2="645.3682" gradientTransform="matrix(0.409 -3.8546 3.8546 0.409 -2381.5371 -320.4861)">
		<stop  offset="0" style="stop-color:#F1DE89"/>
		<stop  offset="9.550480e-002" style="stop-color:#F1DE89"/>
		<stop  offset="9.699158e-002" style="stop-color:#F1DD88"/>
		<stop  offset="0.2182" style="stop-color:#CFAC60"/>
		<stop  offset="0.3245" style="stop-color:#B68842"/>
		<stop  offset="0.4108" style="stop-color:#A77230"/>
		<stop  offset="0.4663" style="stop-color:#A26A29"/>
		<stop  offset="0.5598" style="stop-color:#A8712E"/>
		<stop  offset="0.6979" style="stop-color:#BA853D"/>
		<stop  offset="0.8628" style="stop-color:#D8A655"/>
		<stop  offset="1" style="stop-color:#F5C66D"/>
	</linearGradient>
	<polygon class="st26" points="94.1,395 101.9,321.3 30.9,313.8 23.1,387.5 	"/>
</g>
<g>
	<defs>
		<path id="SVGID_43_" d="M93.4,248.7c-0.2,0-0.6,0-0.6,0.3c0,0.2,0.6,0.3,0.8,0.3c18.8-0.8,36.8,5.9,50.6,18.7
			c13.8,12.8,21.9,30,22.7,48.8c0,0.2,0.1,0.6,0.3,0.5c0.2,0,0.3-0.3,0.2-0.5c-0.7-19-8.7-36.6-22.7-49.5
			c-13.3-12.3-30.4-18.6-48.4-18.6C95.3,248.6,94.4,248.6,93.4,248.7"/>
	</defs>
	<clipPath id="SVGID_44_">
		<use xlink:href="#SVGID_43_"  style="overflow:visible;"/>
	</clipPath>
	
		<linearGradient id="SVGID_45_" gradientUnits="userSpaceOnUse" x1="-95.8745" y1="655.7103" x2="-80.2447" y2="655.7103" gradientTransform="matrix(9.755270e-002 -4.2776 4.2776 9.755270e-002 -2666.1248 -157.6552)">
		<stop  offset="0" style="stop-color:#F1DE89"/>
		<stop  offset="9.550480e-002" style="stop-color:#F1DE89"/>
		<stop  offset="9.699158e-002" style="stop-color:#F1DD88"/>
		<stop  offset="0.2182" style="stop-color:#CFAC60"/>
		<stop  offset="0.3245" style="stop-color:#B68842"/>
		<stop  offset="0.4108" style="stop-color:#A77230"/>
		<stop  offset="0.4663" style="stop-color:#A26A29"/>
		<stop  offset="0.5598" style="stop-color:#A8712E"/>
		<stop  offset="0.6979" style="stop-color:#BA853D"/>
		<stop  offset="0.8628" style="stop-color:#D8A655"/>
		<stop  offset="1" style="stop-color:#F5C66D"/>
	</linearGradient>
	<polygon class="st27" points="167.5,318.9 169.1,248.5 92.8,246.7 91.2,317.2 	"/>
</g>
<g>
	<path class="st28" d="M86.1,387c-35.2-5.4-59.6-41-54.1-76.3c5.4-35.3,39.3-61.7,74.5-56.3c-36.4-5.6-70.4,19.6-76,56.1
		C24.8,347.2,49.7,381.4,86.1,387"/>
	<path class="st29" d="M162.2,330.9c5.6-36.6-19.3-70.8-55.7-76.4c35.3,5.4,59.6,40.8,54.2,76c-5.4,35.2-39.3,61.9-74.6,56.5
		C122.5,392.7,156.6,367.6,162.2,330.9"/>
</g>
<g>
	<defs>
		<path id="SVGID_46_" d="M58,264.9c-14.5,10-24,24.6-27.3,41.9c0,0.2-0.2,2,0,2.1c0.2,0,0.4-1.2,0.4-1.4
			c3.3-17.2,13-32.1,27.3-41.9c14.3-9.9,31.7-14,48.7-10.8c0.2,0.1,1.1,0.3,1.1,0.1c0-0.2-0.8-0.3-1-0.4c-4.1-0.8-8.2-1.1-12.2-1.1
			C81.9,253.3,69.1,257.3,58,264.9"/>
	</defs>
	<clipPath id="SVGID_47_">
		<use xlink:href="#SVGID_46_"  style="overflow:visible;"/>
	</clipPath>
	
		<linearGradient id="SVGID_48_" gradientUnits="userSpaceOnUse" x1="-61.9607" y1="648.5811" x2="-46.3308" y2="648.5811" gradientTransform="matrix(3.8652 0.9848 -0.9848 3.8652 917.6824 -2173.2144)">
		<stop  offset="0" style="stop-color:#F1DE89"/>
		<stop  offset="9.550480e-002" style="stop-color:#F1DE89"/>
		<stop  offset="9.699158e-002" style="stop-color:#F1DD88"/>
		<stop  offset="0.2182" style="stop-color:#CFAC60"/>
		<stop  offset="0.3245" style="stop-color:#B68842"/>
		<stop  offset="0.4108" style="stop-color:#A77230"/>
		<stop  offset="0.4663" style="stop-color:#A26A29"/>
		<stop  offset="0.5598" style="stop-color:#A8712E"/>
		<stop  offset="0.6979" style="stop-color:#BA853D"/>
		<stop  offset="0.8628" style="stop-color:#D8A655"/>
		<stop  offset="1" style="stop-color:#F5C66D"/>
	</linearGradient>
	<polygon class="st30" points="16.8,305.4 103.6,327.6 122,255.1 35.2,233 	"/>
</g>
</svg>
