<?xml version="1.0" encoding="UTF-8" standalone="no"?>
<!-- Created with Inkscape (http://www.inkscape.org/) -->

<svg
   xmlns:dc="http://purl.org/dc/elements/1.1/"
   xmlns:cc="http://creativecommons.org/ns#"
   xmlns:rdf="http://www.w3.org/1999/02/22-rdf-syntax-ns#"
   xmlns:svg="http://www.w3.org/2000/svg"
   xmlns="http://www.w3.org/2000/svg"
   xmlns:sodipodi="http://sodipodi.sourceforge.net/DTD/sodipodi-0.dtd"
   xmlns:inkscape="http://www.inkscape.org/namespaces/inkscape"
   version="1.1"
   id="marca-de-agua"
   xml:space="preserve"
   viewBox="0 0 1020.7127 524.64966"
   sodipodi:docname="marca-de-agua.svg"
   inkscape:version="0.92.5 (2060ec1f9f, 2020-04-08)"><metadata
     id="metadata8"><rdf:RDF><cc:Work
         rdf:about=""><dc:format>image/svg+xml</dc:format><dc:type
           rdf:resource="http://purl.org/dc/dcmitype/StillImage" /><dc:title></dc:title></cc:Work></rdf:RDF></metadata><defs
     id="defs6"><clipPath
       clipPathUnits="userSpaceOnUse"
       id="clipPath20"><path
         d="m 103.805,155.691 c 14.586,43.356 44.093,64.758 67.855,74.86 0,0 -21.027,1.734 -40.433,-2.016 0.937,4.875 11.496,13.219 11.496,13.219 h 557.472 c 4.782,-2.766 9.703,-9.75 10.875,-13.219 0,0 -15.211,4.434 -38.812,1.781 13.894,-6.468 25.883,-14.382 36.398,-25.406 14.434,-15.129 25.492,-34.488 29.438,-49.219 -19.078,8.762 -63.813,23.672 -103.133,30.954 -32.742,6.062 -59.766,9.152 -76.277,9.152 H 278.156 c -68.414,-3.981 -140.144,-25.52 -174.351,-40.106 z m 578.66,96.493 -188.703,0.156 33.781,88.074 c -0.016,4.781 -2.652,7.195 -6.535,8.488 h -80.817 l 29.465,45.383 h 114.008 c 7.68,0 18.395,-4.445 18.395,-13.898 0,-12.785 -16.516,-46.348 -22.778,-66.387 -0.281,-0.906 -0.828,-2.387 0,-2.852 8.078,-4.523 30.821,-9.019 30.821,-9.019 14.054,2.918 33.207,-1.285 39.171,-6.984 -3.25,-0.465 -18.828,-4.946 -21.347,-7.997 19.074,0.332 41.051,1.372 53.707,-20.55 0,0 -24.821,3.355 -32.906,0.836 6.628,-1.727 30.027,-12.067 33.738,-15.25 z m -279.695,0.132 4.918,13.516 h 62.058 l -4.918,-13.516 z m -42.18,0.133 -199.879,0.164 c 10.687,7.149 26.176,12.578 32.176,14.828 0,0 -14.383,1.997 -32.383,-0.441 15.773,25.691 41.32,18.703 53.465,19.875 -0.199,1.195 -15.594,6.844 -21.031,8.434 16.308,11.668 38.824,6.855 38.824,6.855 9.34,1.617 19.402,3.648 27.156,5.895 9.004,2.605 13.406,5.586 16.402,4.898 l -30.632,81.328 h 61.726 z"
         id="path18"
         inkscape:connector-curvature="0" /></clipPath><linearGradient
       x1="-344.55753"
       y1="551.43188"
       x2="-229.9321"
       y2="551.43188"
       gradientUnits="userSpaceOnUse"
       gradientTransform="translate(810.54118,-187.60774)"
       spreadMethod="pad"
       id="linearGradient28"><stop
         style="stop-opacity:1;stop-color:#b22234"
         offset="0"
         id="stop24" /><stop
         style="stop-opacity:1;stop-color:#2d2b74"
         offset="1"
         id="stop26" /></linearGradient></defs><sodipodi:namedview
     pagecolor="#ffffff"
     bordercolor="#666666"
     borderopacity="1"
     objecttolerance="10"
     gridtolerance="10"
     guidetolerance="10"
     inkscape:pageopacity="0"
     inkscape:pageshadow="2"
     inkscape:window-width="1440"
     inkscape:window-height="784"
     id="namedview4"
     showgrid="false"
     fit-margin-top="0"
     fit-margin-left="0"
     fit-margin-right="0"
     fit-margin-bottom="0"
     inkscape:zoom="0.59468257"
     inkscape:cx="347.49709"
     inkscape:cy="270.57481"
     inkscape:window-x="0"
     inkscape:window-y="27"
     inkscape:window-maximized="1"
     inkscape:current-layer="g10" /><g
     id="g10"
     inkscape:groupmode="layer"
     inkscape:label="LOGOTIPO-PNG"
     transform="matrix(1.3333333,0,0,1.3333333,-60.536498,-173.20162)"><g
       id="g77"><rect
         y="129.90121"
         x="45.402374"
         height="393.48724"
         width="765.53448"
         id="rect73"
         style="opacity:1;fill:none;fill-opacity:1;fill-rule:nonzero;stroke:none;stroke-width:2.47277236;stroke-linecap:round;stroke-linejoin:round;stroke-miterlimit:4;stroke-dasharray:none;stroke-opacity:1" /><path
         inkscape:connector-curvature="0"
         id="path30"
         d="m 111.02873,184.69854 c 14.586,43.356 44.09395,64.75738 67.85596,74.85938 0,0 -21.02809,1.73438 -40.43409,-2.01562 0.93699,4.875 11.49609,13.21875 11.4961,13.21875 h 557.47267 c 4.782,-2.766 9.70299,-9.74976 10.875,-13.21875 0,0 -15.2115,4.43424 -38.8125,1.78125 13.89399,-6.468 25.88343,-14.38225 36.39843,-25.40626 14.434,-15.129 25.49151,-34.48775 29.43751,-49.21875 -19.078,8.76201 -63.81233,23.67161 -103.13234,30.95362 -32.74198,6.062 -59.76633,9.15234 -76.27734,9.15234 H 285.38029 C 216.9663,220.8235 145.23572,199.28454 111.02873,184.69854 Z m 498.76173,40.01221 2.04638,6.70752 7.01221,0.14795 -5.74219,4.01953 2.02296,6.71484 -5.6001,-4.21875 -5.7627,4.00049 2.28516,-6.63427 -5.58252,-4.24073 7.0122,0.12451 z m -30.01612,9.48047 2.05225,6.70312 7.01075,0.15235 -5.74659,4.01953 2.02441,6.71485 -5.60156,-4.21876 -5.7583,4.00049 2.28077,-6.63281 -5.58252,-4.24219 7.0122,0.12451 z m 58.89112,0.082 2.04638,6.70752 7.01221,0.14795 -5.74219,4.01953 2.02296,6.71484 -5.6001,-4.21875 -5.7627,4.0005 2.28516,-6.63282 -5.58252,-4.24219 7.0122,0.12451 z m -86.5459,14.68799 2.04932,6.70606 7.01221,0.14941 -5.74659,4.02246 2.02295,6.71485 -5.59571,-4.22168 -5.76269,3.99902 2.28516,-6.62842 -5.58545,-4.24219 7.01074,0.12159 z m 113.01856,0.12451 2.05077,6.70752 7.01221,0.14795 -5.74658,4.01953 2.02295,6.71484 -5.59717,-4.21875 -5.76123,4.0005 2.28516,-6.63428 -5.58691,-4.24072 7.0122,0.1245 z m 24.55077,32.10645 -28.06933,0.0234 -4.43408,3.10401 2.02295,6.71484 -5.59717,-4.22168 -5.76269,4.00049 2.28515,-6.62988 -3.89062,-2.95605 -145.25684,0.12011 33.78075,88.07374 c -0.016,4.78099 -2.65165,7.19578 -6.53466,8.48876 h -80.81689 l 29.46386,45.38233 h 114.00879 c 7.68,0 18.39551,-4.44398 18.39551,-13.89698 0,-12.78499 -16.51633,-46.34919 -22.77832,-66.38818 -0.28101,-0.906 -0.828,-2.38705 0,-2.85205 8.078,-4.523 30.82031,-9.01904 30.82031,-9.01904 14.05401,2.918 33.2074,-1.28391 39.1714,-6.98292 -3.25002,-0.465 -18.82818,-4.94704 -21.34717,-7.99804 19.07398,0.332 41.05102,1.37318 53.70703,-20.54883 0,0 -24.82125,3.35397 -32.90625,0.83496 6.62799,-1.72699 30.02729,-12.06602 33.73827,-15.24902 z m -279.69434,0.13184 4.91748,13.51611 h 62.05811 l -4.91748,-13.51611 z m -42.18017,0.1333 -199.8794,0.1626 c 10.687,7.149 26.17675,12.57861 32.17675,14.82861 0,0 -14.38329,1.99708 -32.3833,-0.44092 15.77301,25.691 41.32035,18.703 53.46534,19.875 -0.19899,1.195 -15.59524,6.84457 -21.03223,8.43457 16.308,11.668 38.82423,6.85401 38.82422,6.85401 9.34001,1.617 19.40274,3.64899 27.15674,5.89599 9.004,2.605 13.40585,5.58497 16.40186,4.89697 l -30.63282,81.32813 h 61.72705 z m 264.90967,14.98827 2.04639,6.70752 7.0122,0.14796 -5.74657,4.02246 2.02734,6.71484 -5.60157,-4.22168 -5.76123,4.00049 2.28516,-6.62988 -5.58105,-4.24219 7.01074,0.12158 z m -26.12109,15.87745 2.05078,6.70752 7.01074,0.14941 -5.74512,4.02247 2.02296,6.71484 -5.59718,-4.22169 -5.76269,4.0005 2.28662,-6.62989 -5.58545,-4.24218 7.01074,0.12157 z m -188.4756,121.46341 c -1.89894,0 -3.45412,0.40903 -4.66552,1.22754 -1.17865,0.81851 -2.11177,2.11239 -2.79932,3.88037 l -1.08105,2.79932 h 26.76562 l 1.08106,-2.79932 c 0.68755,-1.76798 0.75288,-3.06186 0.19629,-3.88037 -0.52385,-0.81851 -1.73532,-1.22754 -3.63428,-1.22754 z m 29.71143,0 c -1.89895,0 -3.45413,0.40903 -4.66553,1.22754 -1.17865,0.81851 -2.11175,2.11239 -2.79931,3.88037 l -1.07959,2.79932 h 27.60059 l 1.07958,-2.79932 c 0.68756,-1.76798 0.75288,-3.06186 0.19629,-3.88037 -0.52384,-0.81851 -1.73532,-1.22754 -3.63427,-1.22754 z m 25.04737,0 -3.04541,7.90723 h 13.30957 l -2.45654,-7.90723 z m 16.79589,0 -3.0454,7.90723 h 10.80469 l 3.0454,-7.90723 z m 19.54542,0 c -1.89895,0 -3.45413,0.40903 -4.66553,1.22754 -1.17867,0.81851 -2.11177,2.11239 -2.79931,3.88037 l -1.0796,2.79932 h 26.76416 l 1.08106,-2.79932 c 0.68754,-1.76798 0.75287,-3.06186 0.19628,-3.88037 -0.52384,-0.81851 -1.73532,-1.22754 -3.63427,-1.22754 z m 29.71289,0 c -1.89894,0 -3.45414,0.40903 -4.66553,1.22754 -1.17867,0.81851 -2.11176,2.11239 -2.79932,3.88037 l -1.08105,2.79932 h 27.60059 l 1.07959,-2.79932 c 0.68754,-1.76798 0.75434,-3.06186 0.19775,-3.88037 -0.52384,-0.81851 -1.73534,-1.22754 -3.63428,-1.22754 z m 25.0459,0 -3.04541,7.90723 h 10.80468 l 3.04542,-7.90723 z m 24.70312,0 -3.04541,7.90723 h 10.80469 l 3.04541,-7.90723 z m 15.02784,0 -5.00977,7.90723 h 29.56494 l 1.08106,-2.79932 c 0.68754,-1.76798 0.75288,-3.06186 0.19629,-3.88037 -0.52386,-0.81851 -1.73535,-1.22754 -3.63428,-1.22754 z m 37.91308,0 -4.91162,7.90723 h 19.1045 l 0.88476,-7.90723 z m 22.78711,0 -5.15625,7.90723 h 24.80127 l 5.10791,-7.90723 z m 26.96192,0 -3.04395,7.90723 h 22.68897 l 5.10644,-7.90723 z m 28.23926,0 -5.00977,7.90723 h 29.56494 l 1.08106,-2.79932 c 0.68755,-1.76798 0.75287,-3.06186 0.19628,-3.88037 -0.52384,-0.81851 -1.73532,-1.22754 -3.63427,-1.22754 z m -601.68899,0.0835 -5.15625,7.90576 h 24.80127 l 5.10645,-7.90576 z m 27.99317,0 -5.00977,7.90576 h 29.4668 l 1.08105,-2.79932 c 0.68756,-1.76799 0.75288,-3.06037 0.19629,-3.87891 -0.52385,-0.8185 -1.73532,-1.22753 -3.63427,-1.22753 z m 37.81494,0 -4.91015,7.90576 h 19.10449 l 0.8833,-7.90576 z m 26.76563,0 -3.04395,7.90576 h 13.30811 l -2.45508,-7.90576 z m 16.79589,0 -3.04394,7.90576 h 10.80323 l 3.0454,-7.90576 z m 19.54688,0 c -1.89894,0 -3.45413,0.40903 -4.66553,1.22753 -1.17866,0.81854 -2.11176,2.11092 -2.79931,3.87891 l -1.08106,2.79932 h 26.76563 l 1.08105,-2.79932 c 0.68755,-1.76799 0.75288,-3.06037 0.19629,-3.87891 -0.52385,-0.8185 -1.73532,-1.22753 -3.63428,-1.22753 z m 25.48829,0 -5.00977,7.90576 h 29.46679 l 1.0796,-2.79932 c 0.68755,-1.76799 0.75434,-3.06037 0.19775,-3.87891 -0.52386,-0.8185 -1.73533,-1.22753 -3.63427,-1.22753 z m 35.94873,0 c -1.89895,0 -3.45414,0.40903 -4.66553,1.22753 -1.17867,0.81854 -2.11176,2.11092 -2.79932,3.87891 l -1.08105,2.79932 h 27.60058 l 1.08106,-2.79932 c 0.68754,-1.76799 0.75287,-3.06037 0.19628,-3.87891 -0.52384,-0.8185 -1.73532,-1.22753 -3.63427,-1.22753 z m 26.32324,0 -5.00977,7.90576 h 29.4668 l 1.08106,-2.79932 c 0.68754,-1.76799 0.75286,-3.06037 0.19629,-3.87891 -0.52386,-0.8185 -1.73533,-1.22753 -3.63429,-1.22753 z m 31.87353,0 -5.15771,7.90576 h 24.80127 l 5.10791,-7.90576 z m 42.36621,9.73828 -7.56444,19.7915 c -0.68756,1.76799 -0.75288,3.06186 -0.19629,3.88037 0.58932,0.81852 1.83347,1.22754 3.73242,1.22754 h 19.30078 l 5.00976,-7.90722 h -13.70215 c -0.81851,0 -1.34259,-0.18039 -1.57177,-0.54053 -0.19644,-0.36015 -0.0985,-1.04755 0.29443,-2.0625 l 5.25586,-13.70215 c 0.0655,-0.13096 0.11375,-0.24455 0.14648,-0.34277 0.0328,-0.0982 0.0825,-0.21328 0.14796,-0.34424 z m 15.96094,0 c -0.0327,0.0982 -0.0654,0.21328 -0.0981,0.34424 l -0.0996,0.29443 -0.63721,1.66993 h 10.80323 l 0.83496,-2.3086 z m 13.75049,0 -7.56299,19.7915 c -0.68755,1.76799 -0.75287,3.06186 -0.19629,3.88037 0.58934,0.81852 1.83347,1.22754 3.73243,1.22754 h 16.69775 c 1.89894,0 3.42146,-0.40902 4.56738,-1.22754 1.17867,-0.81851 2.11177,-2.11238 2.79932,-3.88037 l 7.56299,-19.7915 h -10.80469 c -0.0327,0.13096 -0.0653,0.24601 -0.0981,0.34424 -0.0327,0.0982 -0.0825,0.21181 -0.14796,0.34277 l -5.25438,13.70215 c -0.3929,1.01495 -0.83459,1.70235 -1.32569,2.0625 -0.45837,0.36014 -1.0975,0.54053 -1.91602,0.54053 h -1.47363 c -0.81851,0 -1.34114,-0.18039 -1.57031,-0.54053 -0.19645,-0.36015 -0.0985,-1.04755 0.29443,-2.0625 l 5.25439,-13.70215 c 0.0655,-0.13096 0.11522,-0.24455 0.14796,-0.34277 0.0328,-0.0982 0.081,-0.21328 0.14648,-0.34424 z m 30.54639,0 -9.52734,24.89941 h 10.80469 l 4.95996,-12.96533 4.02685,12.96533 h 7.80908 l 9.52734,-24.89941 h -10.80468 l -1.17774,3.14356 -0.9829,-3.14356 z m 30.84229,0 -2.40674,6.33545 c -0.68756,1.76798 -0.75288,3.06185 -0.19629,3.88037 0.58932,0.81852 1.83347,1.22754 3.73242,1.22754 h 8.88867 c 0.55659,0.0982 0.86764,0.34392 0.93311,0.73682 0.0655,0.39288 -0.0652,1.01494 -0.39258,1.86621 l -0.14795,0.34277 c -0.39289,1.01495 -0.83457,1.70235 -1.32568,2.0625 -0.45836,0.36014 -1.09603,0.54053 -1.91455,0.54053 h -13.94825 l -1.07958,7.90722 h 19.54541 c 1.89895,0 3.43853,-0.40902 4.61718,-1.22754 1.21141,-0.81851 2.16012,-2.11238 2.84766,-3.88037 l 4.27295,-11.14746 c 0.68754,-1.76797 0.73581,-3.06186 0.14648,-3.88037 -0.55659,-0.81851 -1.78366,-1.22754 -3.68262,-1.22754 h -8.15185 c -0.81851,0 -1.3426,-0.16331 -1.57178,-0.49072 -0.19645,-0.3274 -0.0984,-0.9992 0.29444,-2.01416 l 0.0981,-0.34424 c 0.0655,-0.13096 0.11522,-0.24455 0.14795,-0.34277 0.0328,-0.0982 0.081,-0.21328 0.14648,-0.34424 z m 15.96093,0 -0.14794,0.44238 c -0.0328,0.16372 -0.081,0.29436 -0.14649,0.39258 h 10.80322 l 0.34424,-0.83496 z m 13.75049,0 -7.56299,19.7915 c -0.68754,1.76799 -0.75288,3.06186 -0.19629,3.88037 0.58934,0.81852 1.83348,1.22754 3.73242,1.22754 h 16.69776 c 1.89895,0 3.42147,-0.40902 4.56738,-1.22754 1.17865,-0.81851 2.11178,-2.11238 2.79932,-3.88037 l 7.56299,-19.7915 h -10.80469 c -0.0328,0.13096 -0.0653,0.24601 -0.0981,0.34424 -0.0328,0.0982 -0.081,0.21181 -0.14649,0.34277 l -5.25586,13.70215 c -0.39289,1.01495 -0.83457,1.70235 -1.32568,2.0625 -0.45836,0.36014 -1.09751,0.54053 -1.91601,0.54053 h -1.47217 c -0.81851,0 -1.34259,-0.18039 -1.57178,-0.54053 -0.19644,-0.36015 -0.0984,-1.04755 0.29443,-2.0625 l 5.2544,-13.70215 c 0.0655,-0.13096 0.1152,-0.24455 0.14795,-0.34277 0.0327,-0.0982 0.081,-0.21328 0.14648,-0.34424 z m 30.54785,0 -9.5288,24.89941 h 20.47998 l 5.05811,-7.90722 h -11.688 l 6.48194,-16.99219 z m 24.70167,0 -9.52734,24.89941 h 10.80468 l 9.52734,-24.89941 z m 15.17578,0 -9.57715,24.89941 h 22.1001 c 1.89894,0 3.42146,-0.40902 4.56738,-1.22754 1.17867,-0.81851 2.11176,-2.11238 2.79932,-3.88037 l 7.56298,-19.7915 h -10.80468 c -0.0328,0.13096 -0.0655,0.24601 -0.0982,0.34424 -0.0328,0.0982 -0.081,0.21181 -0.14648,0.34277 l -5.25586,13.70215 c -0.39289,1.01495 -0.83458,1.70235 -1.32568,2.0625 -0.45837,0.36014 -1.09605,0.54053 -1.91456,0.54053 h -3.63427 l 6.53174,-16.99219 z m 35.45801,0 -15.32227,24.89941 h 16.15723 l 5.10791,-7.90722 h -5.89454 l 9.57715,-15.6167 -2.89746,23.52392 h 10.6084 l 2.74952,-24.89941 z m 31.03711,0 -9.57569,24.89941 h 10.80469 l 9.57568,-24.89941 z m 21.02051,0 -9.52735,24.89941 h 22.63916 l 5.10791,-7.90722 h -13.89844 l 2.11231,-5.50049 h 9.62548 l 5.05812,-7.80762 h -11.688 l 1.42383,-3.68408 z m 28.38574,0 -9.57715,24.89941 h 22.1001 c 1.89895,0 3.42147,-0.40902 4.56738,-1.22754 1.17867,-0.81851 2.11177,-2.11238 2.79931,-3.88037 l 7.563,-19.7915 h -10.80469 c -0.0328,0.13096 -0.0654,0.24601 -0.0981,0.34424 -0.0328,0.0982 -0.081,0.21181 -0.14648,0.34277 l -5.25586,13.70215 c -0.39289,1.01495 -0.83457,1.70235 -1.32568,2.0625 -0.45837,0.36014 -1.09604,0.54053 -1.91456,0.54053 h -3.63427 l 6.53173,-16.99219 z m -595.89406,0.0835 -9.57569,24.89941 h 10.80469 l 9.57569,-24.89941 z m 22.19824,0 -9.57568,24.89941 h 10.80322 l 4.51905,-11.73779 1.71825,11.73779 h 10.8545 l -1.32715,-11.63965 c 1.89894,0 3.42146,-0.42609 4.56738,-1.27734 1.14591,-0.85125 2.04636,-2.12806 2.70117,-3.83057 l 3.09375,-8.15185 h -10.80322 c -0.0328,0.13095 -0.0653,0.24601 -0.0981,0.34423 -0.0328,0.0982 -0.0825,0.21183 -0.14795,0.34277 l -0.78516,2.0625 c -0.39289,1.01498 -0.83604,1.70237 -1.32714,2.0625 -0.45837,0.36017 -1.09605,0.54054 -1.91456,0.54054 h -3.53613 l 2.0625,-5.35254 z m 35.35987,0 -15.32227,24.89941 h 16.15723 l 5.10791,-7.90723 h -5.89307 l 9.57569,-15.6167 -2.89747,23.52393 h 10.60841 l 2.7495,-24.89941 z m 29.07422,0 -9.52735,24.89941 h 10.80323 l 4.96142,-12.96533 4.02685,12.96533 h 7.80762 l 9.52735,-24.89941 h -10.80322 l -1.17921,3.14355 -0.98144,-3.14355 z m 30.84082,0 -2.40674,6.33545 c -0.68756,1.76797 -0.75288,3.06039 -0.19629,3.8789 0.58932,0.81851 1.83347,1.22754 3.73242,1.22754 h 8.89014 c 0.55658,0.0982 0.86762,0.34393 0.93311,0.73682 0.0655,0.39288 -0.0667,1.01496 -0.39405,1.86621 l -0.14649,0.34424 c -0.39288,1.01494 -0.83457,1.70235 -1.32567,2.0625 -0.45839,0.36013 -1.0975,0.54052 -1.91602,0.54052 h -13.94678 l -1.08105,7.90723 h 19.5454 c 1.89896,0 3.43853,-0.40903 4.6172,-1.22754 1.21138,-0.81851 2.16011,-2.11238 2.84765,-3.88037 l 4.27295,-11.14892 c 0.68754,-1.76799 0.73727,-3.0604 0.14795,-3.87891 -0.55659,-0.81852 -1.78513,-1.22754 -3.68409,-1.22754 h -8.15185 c -0.81851,0 -1.3426,-0.16479 -1.57178,-0.49219 -0.19645,-0.32741 -0.0985,-0.99774 0.29444,-2.01269 l 0.0981,-0.34425 c 0.0655,-0.13094 0.11522,-0.24453 0.14795,-0.34277 0.0328,-0.0982 0.0825,-0.21328 0.14795,-0.34423 z m 15.96093,0 -0.14648,0.44238 c -0.0328,0.1637 -0.0825,0.29436 -0.14795,0.39258 h 10.80469 l 0.34424,-0.83496 z m 15.17579,0 -9.57716,24.89941 h 10.80469 l 4.46925,-11.63965 h 11.19726 c 1.89894,0 3.42147,-0.40902 4.56738,-1.22754 1.17865,-0.81851 2.11178,-2.11238 2.79932,-3.88037 l 3.09375,-8.15185 h -10.80469 c -0.0328,0.13095 -0.0654,0.24601 -0.0981,0.34423 -0.0328,0.0982 -0.081,0.21183 -0.14649,0.34277 l -0.78662,2.0625 c -0.39288,1.01498 -0.83457,1.70237 -1.32568,2.0625 -0.45836,0.36017 -1.09751,0.54054 -1.91601,0.54054 h -3.53467 l 2.0625,-5.35254 z m 30.30176,0 -7.563,19.7915 c -0.68754,1.76799 -0.75434,3.06186 -0.19775,3.88037 0.58934,0.81851 1.83347,1.22754 3.73243,1.22754 h 16.69775 c 1.89894,0 3.42146,-0.40903 4.56738,-1.22754 1.17866,-0.81851 2.11177,-2.11238 2.79932,-3.88037 l 7.56299,-19.7915 h -10.80323 c -0.0328,0.13095 -0.0654,0.24601 -0.0981,0.34423 -0.0327,0.0982 -0.0825,0.21183 -0.14795,0.34277 l -5.25439,13.70216 c -0.39288,1.01494 -0.83603,1.70235 -1.32716,2.0625 -0.45835,0.36013 -1.09603,0.54052 -1.91454,0.54052 H 305.582 c -0.81852,0 -1.3426,-0.18039 -1.57179,-0.54052 -0.19644,-0.36015 -0.0985,-1.04756 0.29444,-2.0625 l 5.25586,-13.70216 c 0.0655,-0.13094 0.11374,-0.24453 0.14649,-0.34277 0.0328,-0.0982 0.0825,-0.21328 0.14794,-0.34423 z m 31.97021,0 -9.57569,24.89941 h 10.80323 l 4.51904,-11.73779 1.71827,11.73779 h 10.85448 l -1.32714,-11.63965 c 1.89896,0 3.42146,-0.42609 4.56738,-1.27734 1.14592,-0.85125 2.04636,-2.12806 2.70117,-3.83057 l 3.09375,-8.15185 h -10.80322 c -0.0328,0.13095 -0.0654,0.24601 -0.0982,0.34423 -0.0328,0.0982 -0.0825,0.21183 -0.14794,0.34277 l -0.78516,2.0625 c -0.39288,1.01498 -0.83605,1.70237 -1.32715,2.0625 -0.45837,0.36017 -1.09604,0.54054 -1.91455,0.54054 h -3.53613 l 2.0625,-5.35254 z m 37.66846,0 -9.57715,24.89941 h 10.80469 l 9.57715,-24.89941 z"
         style="fill:#e4e4e4;fill-opacity:1;stroke:none;stroke-width:0.99999994" /></g></g></svg>